{"glyphs":{"0":{"ha":902,"x_min":95,"x_max":807,"o":"m 343 516 q 304 416 304 467 q 334 327 304 372 q 406 280 365 280 l 407 280 q 479 328 448 280 q 517 445 517 386 q 515 473 517 459 q 446 569 501 559 q 431 570 438 570 q 343 516 386 570 m 708 848 q 793 667 770 777 q 807 537 807 604 q 801 445 807 492 q 734 231 785 328 q 601 73 681 128 q 431 20 524 20 q 380 24 406 20 q 191 146 252 43 q 95 496 95 307 l 95 517 q 231 864 101 731 q 452 945 311 945 q 474 945 463 945 q 708 848 629 938 m 157 644 l 193 715 q 235 783 212 752 q 290 839 261 817 q 323 860 307 851 q 359 882 355 877 q 217 788 283 880 q 157 644 159 707 m 469 269 l 433 239 q 443 237 437 237 q 475 249 456 237 q 524 304 502 266 q 547 374 547 342 q 524 336 542 370 q 469 269 505 300 z "},"1":{"ha":543,"x_min":27,"x_max":515,"o":"m 170 711 q 159 712 165 712 q 88 695 136 712 q 56 688 68 688 l 53 688 q 31 709 37 690 q 27 734 27 722 q 33 761 27 748 q 150 904 77 881 q 252 918 192 918 q 371 907 305 918 q 418 800 408 903 q 422 701 422 761 q 418 574 422 646 q 409 343 410 343 l 409 321 q 423 228 409 236 q 450 220 431 223 q 478 212 471 215 q 515 146 515 197 l 515 144 q 485 70 515 94 q 282 47 460 50 l 247 47 q 76 63 102 47 q 44 121 52 79 q 42 144 42 133 q 52 187 42 168 q 97 209 62 208 q 147 222 136 210 q 186 470 166 262 q 194 608 194 553 q 170 711 194 701 m 77 762 q 101 783 87 764 q 112 798 105 790 q 123 811 119 807 q 145 833 132 823 q 172 856 167 849 q 109 825 138 856 q 77 762 80 792 m 81 152 q 90 140 81 140 q 98 142 93 140 q 111 150 102 144 q 121 157 119 156 l 140 164 q 165 176 155 170 q 196 237 195 197 q 162 201 193 235 q 120 167 136 172 q 96 163 118 167 q 81 152 81 161 z "},"2":{"ha":673,"x_min":27,"x_max":646,"o":"m 610 292 q 646 211 646 265 l 646 209 q 584 96 644 144 q 463 68 547 68 q 350 77 414 68 q 123 157 180 103 q 27 340 27 248 q 33 386 27 363 q 199 578 60 489 q 231 597 202 581 q 276 624 258 612 q 332 683 332 661 l 332 684 q 302 708 331 702 q 254 711 288 711 l 233 711 q 130 732 142 711 q 110 808 110 766 q 137 867 110 853 q 311 892 185 892 q 438 888 367 892 q 549 848 502 884 q 611 750 598 810 q 612 739 612 745 q 571 650 612 703 q 465 533 548 619 q 368 418 393 458 q 347 355 347 382 q 357 321 347 336 q 477 307 366 309 q 610 292 593 304 m 75 372 q 103 414 77 374 q 300 573 138 467 q 361 655 361 613 q 343 641 353 652 q 201 532 310 597 q 121 467 157 506 q 75 372 75 416 z "},"3":{"ha":640,"x_min":27,"x_max":612,"o":"m 194 448 q 138 458 156 450 q 109 500 110 471 l 109 506 q 172 585 109 570 q 235 592 191 589 q 297 600 277 595 q 330 635 330 609 q 329 641 330 637 q 292 677 326 672 q 197 666 292 675 q 177 665 186 665 q 127 694 131 665 q 125 731 125 713 q 214 884 125 840 q 401 916 277 916 q 435 916 418 916 q 551 863 505 913 q 599 739 597 813 l 599 731 q 547 586 599 634 q 527 570 541 581 q 510 555 515 560 q 494 518 494 539 l 494 517 q 522 467 496 492 q 548 445 527 463 q 574 421 565 431 q 612 319 612 381 q 593 220 612 275 q 519 115 570 155 q 378 47 471 77 q 277 34 336 34 q 237 35 258 34 q 97 71 151 42 q 38 151 58 92 q 27 214 27 182 q 38 276 27 245 q 92 330 58 330 l 96 330 q 193 293 106 329 q 258 278 229 278 q 302 288 281 278 q 347 347 342 306 q 348 357 348 352 q 315 418 348 393 q 213 448 279 448 q 194 448 203 448 m 174 765 l 173 765 q 193 791 173 766 q 241 833 217 821 q 268 851 263 845 q 200 829 226 851 q 174 765 174 806 m 308 566 l 292 548 q 340 566 317 549 q 362 610 361 582 q 341 600 349 608 q 308 566 323 578 m 292 233 q 353 258 325 233 q 382 319 382 284 q 358 295 374 317 q 316 254 340 269 q 292 233 299 243 z "},"4":{"ha":621,"x_min":27,"x_max":593,"o":"m 31 206 q 27 238 27 216 q 75 513 27 311 q 124 714 93 591 q 156 836 151 814 q 256 935 174 914 q 284 939 271 939 q 312 934 300 939 q 334 901 334 924 l 334 898 q 319 805 334 884 q 292 663 300 710 q 268 453 268 520 q 275 403 268 416 q 379 359 295 367 q 373 401 373 380 q 378 444 373 422 q 411 501 389 487 q 427 507 419 507 q 457 486 443 507 q 497 353 483 448 l 501 353 q 567 318 541 353 q 593 228 593 283 l 593 222 q 518 145 592 176 l 518 131 q 502 35 518 68 q 464 7 487 7 l 458 7 q 411 41 433 10 q 383 116 389 73 q 307 112 344 112 q 164 127 231 112 q 31 206 54 153 m 363 321 q 374 317 368 317 q 392 325 382 317 q 412 374 412 340 l 380 346 q 363 321 366 331 m 169 781 q 189 822 179 802 q 237 882 214 861 q 264 903 260 902 q 197 859 222 895 q 169 781 173 814 z "},"5":{"ha":664,"x_min":27,"x_max":637,"o":"m 608 656 q 579 652 601 652 q 485 662 548 652 q 355 677 393 677 q 339 676 345 677 q 321 642 328 674 q 318 617 318 629 q 328 569 318 593 q 597 459 544 566 q 617 353 617 420 q 596 186 617 284 q 527 84 583 123 q 406 43 475 48 q 322 41 371 41 q 229 43 281 41 q 56 65 89 48 q 27 128 27 81 q 49 209 27 172 q 100 223 57 223 l 108 223 q 157 220 125 223 q 212 216 200 217 q 250 215 233 215 q 311 221 288 215 q 359 271 357 233 q 360 286 360 279 q 330 347 360 326 q 246 374 307 363 q 149 399 176 387 q 83 465 100 420 q 70 587 70 519 q 74 667 70 625 q 115 814 86 777 q 410 890 195 890 q 561 882 478 890 q 635 753 626 831 q 637 729 637 741 q 608 656 637 679 m 315 170 q 370 195 347 173 q 397 248 396 217 q 372 227 388 246 q 335 191 352 203 l 323 182 q 315 170 317 176 m 114 695 l 117 700 q 122 707 121 705 q 172 789 144 764 q 224 828 200 815 q 293 853 248 840 q 177 815 238 858 q 114 695 104 764 z "},"6":{"ha":733,"x_min":27,"x_max":706,"o":"m 315 486 q 334 480 319 480 q 359 483 344 480 q 576 517 544 517 l 579 517 q 706 361 699 509 l 706 349 q 600 143 706 230 q 246 41 473 41 q 214 41 231 41 q 48 230 90 45 q 27 490 27 323 l 27 519 q 33 615 28 568 q 96 807 45 744 q 271 909 146 868 q 377 924 313 924 q 426 922 400 924 q 581 886 528 915 q 640 826 623 863 q 651 777 651 803 q 640 720 651 750 q 577 632 616 654 q 519 618 553 618 q 472 624 498 618 q 406 632 435 632 q 308 593 341 632 q 290 545 290 571 l 290 539 q 315 486 292 509 m 387 349 q 342 295 350 339 q 340 283 340 288 q 345 263 340 272 q 368 247 351 249 q 383 245 375 245 q 439 260 410 245 q 497 304 475 276 q 519 348 519 332 q 482 368 519 368 l 477 368 q 387 349 463 368 m 91 695 l 94 700 q 99 707 98 705 q 158 789 131 764 q 251 843 186 815 q 264 850 258 846 l 279 859 q 163 815 224 858 q 91 695 91 764 m 427 204 q 507 239 470 204 q 547 298 542 275 q 548 302 548 300 q 545 307 548 307 l 545 307 q 533 299 540 307 q 534 299 534 300 l 521 282 q 465 231 499 253 q 427 204 431 208 z "},"7":{"ha":671,"x_min":27,"x_max":644,"o":"m 573 400 q 576 395 574 399 q 578 391 577 391 q 620 347 620 368 q 616 334 620 341 q 551 298 603 312 q 515 124 530 178 q 424 24 492 42 q 393 20 408 20 q 323 55 351 20 q 307 121 307 76 q 311 177 307 145 q 321 264 321 241 q 319 277 321 275 q 294 291 310 291 q 288 290 291 291 q 260 288 272 288 q 239 290 248 288 q 191 317 210 298 q 168 360 170 338 q 167 368 167 364 q 255 429 167 417 q 267 430 260 430 q 290 428 277 430 q 312 425 304 425 q 317 426 315 425 q 358 492 345 430 q 361 521 361 508 q 322 584 361 566 q 202 602 294 597 q 77 626 113 606 q 27 722 27 653 q 28 739 27 730 q 83 858 33 807 q 198 927 127 904 q 385 955 280 955 q 440 953 412 955 q 637 861 607 942 q 644 803 644 840 q 573 400 644 686 m 75 755 q 98 786 81 760 q 136 829 115 814 q 188 863 157 847 q 222 882 217 878 q 127 846 174 881 q 75 755 75 806 m 321 382 q 374 405 354 382 q 395 460 394 426 q 372 435 387 455 q 342 402 357 414 q 321 382 326 389 z "},"8":{"ha":736,"x_min":27,"x_max":709,"o":"m 393 387 q 374 388 383 388 q 296 360 330 388 q 250 282 260 330 q 248 258 248 269 q 265 207 248 227 q 323 183 286 183 q 351 186 336 183 q 417 222 385 192 q 459 286 447 250 q 466 319 466 304 q 458 350 466 336 q 393 387 442 380 m 277 553 q 141 661 182 588 q 117 748 117 704 q 127 805 117 776 q 244 929 154 883 q 477 977 338 977 q 503 977 490 977 q 637 915 579 975 q 705 781 690 860 q 709 736 709 758 q 682 631 709 680 q 544 528 640 557 q 660 410 631 479 q 680 288 680 362 q 673 195 680 245 q 533 42 661 98 q 327 0 435 0 l 311 0 q 126 41 196 3 q 43 155 69 72 q 27 252 27 205 q 29 286 27 269 q 277 553 54 483 m 466 632 q 506 677 503 642 l 506 682 q 490 716 506 701 q 449 736 475 732 q 423 739 435 739 q 359 707 381 739 q 347 674 347 688 q 374 640 347 652 q 429 627 400 627 q 466 632 447 627 m 466 583 q 517 602 495 583 q 540 648 538 621 q 525 644 528 648 q 502 616 511 625 q 481 598 494 608 q 466 583 471 591 m 80 317 q 107 363 80 317 q 170 436 132 405 q 247 483 176 441 q 281 534 281 503 l 282 534 q 283 533 283 534 q 220 488 283 527 q 132 426 151 445 q 80 317 80 378 m 368 140 q 455 185 411 140 q 499 272 498 229 q 477 244 492 267 q 440 199 459 218 q 396 163 424 182 q 368 140 371 145 z "},"9":{"ha":733,"x_min":27,"x_max":706,"o":"m 450 430 q 195 409 236 409 l 189 409 q 27 612 27 430 l 27 614 q 140 826 27 739 q 489 924 267 924 q 519 923 504 924 q 685 734 644 919 q 706 475 706 641 l 706 445 q 701 349 705 395 q 637 157 688 220 q 461 54 587 96 q 353 41 419 41 q 307 42 331 41 q 152 78 205 49 q 93 138 110 101 q 83 187 83 161 q 93 244 83 214 q 153 306 114 302 l 155 306 q 256 287 173 306 q 323 279 292 279 q 438 321 393 279 q 469 376 465 345 q 469 384 469 380 q 450 430 469 410 m 340 591 q 390 611 368 593 q 417 650 410 628 q 420 666 420 659 q 412 691 420 680 q 366 718 399 711 q 339 723 353 723 q 290 710 317 723 q 225 660 248 691 q 213 629 213 643 q 224 606 213 616 q 298 589 245 589 q 340 591 317 589 m 77 661 q 96 691 82 665 q 222 811 138 766 l 291 846 q 153 787 229 846 q 77 661 77 728 m 360 547 q 422 570 393 547 q 455 628 446 588 l 444 627 l 444 627 q 441 622 444 625 q 432 610 439 621 q 374 557 414 585 q 367 552 368 552 l 360 547 m 385 239 q 464 273 425 239 q 504 346 503 309 q 490 335 496 344 q 484 327 487 332 q 478 318 481 321 q 418 263 456 288 q 401 252 409 256 q 385 239 389 245 z "},"\u0000":{"ha":190,"x_min":0,"x_max":0,"o":""},"\u001d":{"ha":190,"x_min":0,"x_max":0,"o":""}," ":{"ha":387,"x_min":0,"x_max":0,"o":""}," ":{"ha":387,"x_min":0,"x_max":0,"o":""},"!":{"ha":496,"x_min":109,"x_max":404,"o":"m 112 878 q 154 956 121 926 q 227 989 185 984 q 248 991 238 991 q 307 978 278 991 q 367 923 346 960 q 404 720 404 858 q 398 602 404 666 q 326 286 379 383 q 252 218 292 221 l 248 218 q 182 285 207 218 q 131 573 160 342 q 109 829 109 747 q 112 878 109 861 m 258 -16 q 238 -20 248 -20 q 198 1 216 -20 q 174 66 175 28 l 174 69 q 191 113 174 93 q 231 141 207 134 q 250 144 241 144 q 278 137 265 144 q 313 91 302 124 q 317 65 317 78 q 307 26 317 45 q 258 -16 292 -4 m 221 66 q 239 74 235 67 q 242 95 241 79 q 218 79 218 94 q 221 66 218 73 m 151 854 q 162 863 157 857 l 169 877 q 204 918 180 901 q 234 941 232 937 q 214 946 224 946 q 182 933 197 946 q 151 854 151 910 z "},"\"":{"ha":494,"x_min":68,"x_max":427,"o":"m 180 690 q 133 671 157 671 q 123 672 127 671 q 75 711 92 677 q 68 804 68 729 l 68 817 q 77 923 68 904 q 138 968 96 968 l 140 968 q 191 906 186 966 q 197 821 197 875 q 197 789 197 806 q 180 690 195 701 m 410 690 q 362 671 386 671 q 352 672 357 671 q 304 711 321 677 q 297 804 297 729 l 297 817 q 306 923 297 904 q 367 968 325 968 l 370 968 q 420 906 415 966 q 427 821 427 875 q 426 789 427 806 q 410 690 425 701 z "},"#":{"ha":821,"x_min":20,"x_max":800,"o":"m 391 726 q 473 726 440 727 q 547 724 513 725 q 593 849 580 838 q 647 878 623 878 q 658 876 653 878 q 688 828 682 868 q 690 810 689 820 q 677 716 690 789 q 733 705 721 711 q 796 651 785 678 q 800 638 799 645 q 751 591 800 609 q 727 584 741 587 q 647 574 704 578 q 629 493 639 536 q 612 423 621 456 q 686 410 671 418 q 749 356 737 384 q 752 343 751 350 q 703 296 753 314 q 680 289 692 292 q 576 277 652 282 q 543 174 555 197 q 487 121 516 121 q 473 124 480 121 q 427 209 439 138 q 437 271 431 236 q 373 269 407 269 q 286 267 326 267 q 256 174 267 195 q 199 121 229 121 q 186 124 193 121 q 140 209 152 138 q 150 272 143 237 q 119 277 132 274 q 24 326 37 293 q 20 342 20 334 q 109 418 23 385 q 182 423 147 421 q 217 566 197 488 q 167 572 186 568 q 71 621 85 588 q 68 637 68 629 q 157 713 71 680 q 258 720 212 718 q 306 849 293 838 q 360 878 336 878 q 371 876 366 878 q 401 828 395 868 q 402 809 401 820 q 391 726 403 790 m 505 566 q 420 564 466 565 q 357 562 387 563 q 342 493 350 530 q 327 430 334 460 q 425 431 387 432 q 471 430 449 430 q 505 566 486 492 z "},"$":{"ha":823,"x_min":95,"x_max":728,"o":"m 673 705 q 583 692 661 694 q 454 689 465 690 q 318 641 318 677 l 318 639 q 453 519 321 604 q 526 471 463 512 q 620 405 585 433 q 728 261 728 321 l 728 256 q 673 146 722 191 q 556 90 626 103 q 481 81 534 86 q 490 -14 490 28 q 486 -67 490 -43 q 448 -115 476 -115 q 401 -94 429 -115 q 385 -76 390 -86 q 367 7 367 -42 q 374 74 367 37 q 258 71 306 71 q 157 79 182 71 q 120 138 126 91 q 119 158 119 148 q 132 220 119 190 q 348 245 144 244 q 484 249 446 245 q 545 273 545 255 l 545 274 q 441 341 544 298 q 364 372 411 354 q 316 391 321 388 q 109 571 152 467 q 95 641 95 606 q 177 820 95 727 q 368 899 226 876 q 406 1048 368 996 q 430 1065 418 1065 q 440 1062 435 1065 q 475 998 460 1051 q 488 906 485 962 q 612 879 570 903 q 698 783 686 836 q 700 763 700 772 q 673 705 700 730 m 349 854 l 320 837 q 387 861 361 837 q 411 927 411 882 l 404 913 q 393 899 401 909 q 349 854 370 869 m 144 677 l 143 677 q 182 737 143 680 q 281 819 221 793 l 301 828 q 308 833 305 830 q 196 785 242 833 q 144 677 145 732 m 513 202 q 570 256 570 207 q 536 233 557 254 q 513 202 516 212 z "},"%":{"ha":1049,"x_min":95,"x_max":954,"o":"m 433 43 q 348 -27 387 -27 q 331 -24 339 -27 q 285 89 288 -5 q 460 578 326 241 q 624 939 595 917 q 701 977 669 977 q 715 975 709 977 q 746 911 746 964 q 745 886 746 900 q 606 466 739 828 q 433 43 471 101 m 208 812 q 192 770 192 791 q 208 727 192 748 q 239 707 222 707 l 241 707 q 273 730 260 708 q 288 780 288 755 q 286 797 288 788 q 252 839 278 836 q 248 840 250 840 q 208 812 227 840 m 365 971 q 417 823 417 917 q 416 791 417 808 q 334 618 406 673 q 251 590 297 590 q 235 591 243 590 q 146 642 176 596 q 95 807 97 716 l 95 814 q 149 968 95 907 q 257 1010 186 1009 q 365 971 327 1010 m 736 220 q 703 164 703 198 q 707 140 703 153 q 732 110 714 115 q 741 109 737 109 q 770 121 755 109 q 805 179 800 146 q 806 193 806 186 q 788 230 806 220 q 772 234 781 234 q 736 220 755 234 m 939 315 q 954 243 954 281 q 925 128 954 191 q 788 -5 875 21 q 747 -12 768 -12 q 686 3 717 -12 q 621 81 633 28 q 612 153 612 117 q 629 254 612 203 q 735 387 661 346 q 791 400 760 400 q 851 389 819 400 q 939 315 917 365 m 668 239 l 689 267 q 753 329 718 304 q 766 345 764 336 q 700 309 728 344 q 668 239 669 269 m 762 71 q 821 103 800 71 q 833 129 827 113 q 840 149 840 148 q 824 137 828 145 q 802 109 815 121 q 780 89 795 101 q 762 71 769 80 z "},"&":{"ha":879,"x_min":95,"x_max":861,"o":"m 444 542 q 554 518 460 524 q 708 513 572 517 q 833 509 829 511 q 858 481 851 499 q 861 468 861 474 q 853 447 861 456 q 785 422 835 422 q 709 432 753 422 q 769 271 769 345 q 764 230 769 250 q 659 99 747 151 q 473 39 581 52 q 401 34 435 34 q 283 50 338 34 q 170 101 221 52 q 103 220 121 149 q 95 283 95 252 q 108 359 95 323 q 210 477 135 434 q 212 479 212 478 q 202 486 212 482 q 162 504 177 494 q 107 622 107 540 q 109 649 107 635 q 169 828 121 775 q 341 918 212 876 q 447 932 382 932 q 496 930 470 932 q 651 895 597 923 q 710 815 690 873 q 721 753 721 783 q 709 690 721 721 q 647 602 686 624 q 589 587 623 587 q 542 593 568 587 q 484 602 507 602 q 455 595 465 602 q 432 565 432 581 q 444 542 432 553 m 459 386 q 426 355 441 381 q 406 301 410 331 q 405 283 405 292 q 413 250 405 264 q 458 226 426 226 q 500 220 480 220 q 567 239 537 220 q 612 309 607 265 q 612 320 612 315 q 581 377 612 357 q 517 393 555 393 q 459 386 491 393 m 146 330 q 163 353 152 334 q 190 388 176 374 q 228 452 227 425 q 204 439 215 452 q 193 423 201 436 q 176 402 184 412 q 146 330 146 368 m 544 178 q 614 209 582 178 q 646 277 646 239 q 618 244 642 274 q 574 201 595 215 q 544 178 547 182 z "},"'":{"ha":319,"x_min":95,"x_max":224,"o":"m 208 690 q 160 671 184 671 q 150 672 155 671 q 102 711 119 677 q 95 804 95 729 l 95 817 q 104 923 95 904 q 165 968 123 968 l 168 968 q 218 906 213 966 q 224 821 224 875 q 224 789 224 806 q 208 690 222 701 z "},"(":{"ha":594,"x_min":95,"x_max":499,"o":"m 308 332 q 360 208 319 255 q 437 150 387 177 q 493 111 484 124 q 499 91 499 102 q 483 45 499 72 q 425 1 468 3 q 411 0 418 0 q 275 36 342 0 q 148 176 186 84 q 95 479 95 302 q 100 590 95 532 q 162 835 111 728 q 341 973 219 953 q 372 976 357 976 q 433 962 406 976 q 487 896 475 942 q 491 869 491 881 q 476 833 491 846 q 450 817 468 826 q 419 800 426 805 q 324 603 359 765 q 302 416 302 501 q 308 332 302 372 m 329 934 q 273 909 309 933 q 226 869 241 887 q 178 750 183 816 l 191 773 q 203 802 201 799 q 275 889 233 855 q 329 917 303 911 l 329 934 z "},")":{"ha":603,"x_min":95,"x_max":508,"o":"m 291 642 q 235 763 277 717 q 157 819 208 792 q 101 855 110 842 q 95 876 95 864 q 111 920 95 894 q 168 966 125 962 q 186 966 177 966 q 319 933 253 966 q 448 798 408 888 q 508 474 508 666 q 505 392 508 435 q 447 150 496 256 q 271 10 393 33 q 236 7 253 7 q 178 19 205 7 q 123 83 136 39 q 120 105 120 95 q 141 141 120 130 q 172 153 149 145 q 205 169 193 161 q 291 359 265 205 q 304 504 304 433 q 291 642 304 575 m 166 92 q 222 117 186 92 q 269 157 254 138 q 317 276 312 210 l 304 253 q 292 224 294 227 q 220 136 262 170 q 166 109 192 115 l 166 92 z "},"*":{"ha":659,"x_min":34,"x_max":625,"o":"m 325 670 q 327 668 326 669 q 332 672 330 670 q 326 671 329 671 q 325 670 325 671 m 327 576 q 281 526 312 557 l 271 517 q 191 448 210 455 q 115 460 145 430 l 114 462 q 121 541 83 495 q 178 606 139 568 q 200 627 189 616 q 214 641 208 634 q 176 655 197 646 l 163 660 q 68 707 83 692 q 50 780 34 741 l 51 783 q 127 807 68 825 q 208 781 158 802 q 237 769 222 776 q 257 760 248 765 q 256 804 256 779 l 256 817 q 265 923 256 904 q 326 968 284 968 l 329 968 q 380 906 374 966 q 386 821 386 875 q 385 789 386 806 q 384 752 385 769 q 421 769 400 760 q 450 781 436 776 q 532 807 500 802 q 608 783 590 825 l 609 780 q 590 707 625 741 q 495 660 576 692 l 483 655 q 441 640 459 646 q 454 627 447 633 q 476 606 466 616 q 532 541 515 568 q 541 462 572 495 l 538 460 q 464 448 509 430 q 382 517 444 455 l 373 526 q 327 576 342 557 z "},"+":{"ha":802,"x_min":95,"x_max":707,"o":"m 474 195 q 414 156 454 156 q 396 158 406 156 q 309 221 347 169 q 302 369 302 266 l 302 387 q 118 408 128 394 q 95 465 95 436 q 96 477 95 471 q 143 533 102 514 q 309 549 160 541 q 340 744 323 734 q 402 766 371 766 q 418 764 410 766 q 479 715 460 757 q 492 553 488 696 q 663 542 640 552 q 699 505 686 531 q 707 465 707 486 q 707 454 707 460 q 687 410 703 427 q 648 394 671 394 q 642 395 645 394 q 492 385 602 387 q 474 195 487 219 m 289 500 q 334 517 317 500 q 351 561 351 533 q 289 500 323 551 z "},",":{"ha":309,"x_min":68,"x_max":241,"o":"m 72 68 q 140 141 88 124 q 168 146 155 146 q 230 109 204 146 q 241 68 241 92 q 229 10 241 43 q 176 -80 209 -45 q 104 -112 143 -127 q 88 -73 77 -95 q 121 -40 121 -51 q 122 -30 122 -35 q 104 5 122 -1 q 71 26 77 15 q 68 42 68 32 q 72 68 68 53 m 119 61 q 123 60 121 60 q 142 69 132 60 q 154 90 154 80 l 154 92 q 142 95 147 95 q 125 89 132 95 q 117 72 117 82 q 119 61 117 67 z "},"-":{"ha":519,"x_min":20,"x_max":502,"o":"m 119 429 q 24 492 37 446 q 20 508 20 500 q 109 598 20 583 q 309 610 231 614 q 448 589 403 607 q 499 530 488 574 q 501 509 500 520 q 466 449 502 470 q 442 441 455 445 q 271 421 372 427 q 119 429 188 416 m 69 507 q 122 541 90 524 l 198 568 q 160 570 179 570 q 86 558 122 570 q 60 529 60 541 q 69 507 60 515 z "},"­":{"ha":519,"x_min":20,"x_max":502,"o":"m 119 429 q 24 492 37 446 q 20 508 20 500 q 109 598 20 583 q 309 610 231 614 q 448 589 403 607 q 499 530 488 574 q 501 509 500 520 q 466 449 502 470 q 442 441 455 445 q 271 421 372 427 q 119 429 188 416 m 69 507 q 122 541 90 524 l 198 568 q 160 570 179 570 q 86 558 122 570 q 60 529 60 541 q 69 507 60 515 z "},".":{"ha":1049,"x_min":68,"x_max":973,"o":"m 68 -191 l 68 968 l 973 968 l 973 -191 l 68 -191 m 92 -164 l 949 -164 l 949 948 l 92 948 l 92 -164 m 492 319 l 494 319 l 501 319 l 501 307 q 503 221 503 259 l 498 220 l 494 220 q 492 313 492 268 l 492 315 l 492 319 m 830 319 l 831 319 l 840 319 q 840 310 840 313 q 842 221 840 273 l 834 220 l 831 220 q 829 307 830 259 q 830 319 830 315 m 536 316 l 538 316 q 543 308 538 315 q 541 288 541 296 l 541 275 q 551 236 541 245 l 551 236 q 575 315 566 236 l 576 315 q 585 313 585 313 q 581 254 581 273 q 589 233 581 233 q 591 220 591 222 l 585 220 q 572 241 576 220 l 571 241 q 553 222 564 222 l 549 222 q 531 264 536 222 q 530 279 530 267 l 530 286 q 536 316 530 303 m 742 316 l 746 316 q 765 297 754 316 q 773 267 773 282 l 773 261 q 746 222 773 236 q 736 220 741 220 l 732 220 q 708 249 711 220 l 708 255 q 735 315 708 289 q 742 316 741 316 m 169 313 l 175 313 q 194 286 194 310 q 172 253 194 263 q 153 248 163 250 l 153 223 l 153 223 q 143 225 149 223 l 143 248 l 140 248 l 136 249 q 140 262 136 256 l 143 262 l 143 262 q 139 290 143 290 q 135 297 135 294 q 169 313 147 313 m 718 255 l 718 250 q 735 233 718 235 q 760 252 750 233 q 764 264 764 257 l 764 266 q 746 302 764 284 q 744 303 744 302 q 720 269 732 303 q 718 255 718 262 m 152 295 q 153 263 153 271 q 153 262 153 263 q 178 273 173 266 q 184 286 184 280 q 174 300 184 298 l 170 300 q 152 295 152 298 m 274 297 q 293 264 287 297 q 283 261 292 264 q 274 283 279 283 q 260 233 262 277 q 261 222 261 223 q 251 221 254 221 q 242 280 242 268 q 252 281 250 281 l 252 281 q 254 268 252 278 l 255 268 q 274 297 262 297 m 364 293 q 387 271 378 293 q 388 260 388 265 l 388 258 q 364 222 388 233 q 358 221 361 221 q 340 247 340 224 q 357 291 340 281 q 364 293 358 292 m 416 293 q 441 233 429 293 q 441 228 441 233 q 433 223 436 223 q 418 277 423 265 q 406 230 412 269 q 402 223 405 230 l 397 223 q 391 262 393 223 q 390 277 390 271 q 399 279 395 279 q 401 265 401 267 l 402 265 q 416 293 407 293 m 804 293 q 827 228 814 293 q 819 223 821 223 q 802 277 808 268 q 789 227 798 269 q 787 223 787 223 l 783 223 q 776 277 778 223 q 786 279 780 279 q 787 264 787 266 l 787 264 q 804 293 792 293 m 320 292 q 332 280 332 288 l 332 279 q 326 274 332 278 l 325 274 q 316 279 322 279 q 305 271 307 279 q 325 267 305 268 q 338 244 338 260 q 325 221 338 227 l 319 220 l 316 220 q 293 235 300 220 l 293 236 q 299 243 294 238 l 300 243 q 319 233 308 233 q 328 244 328 236 q 314 254 326 254 q 295 269 295 254 l 295 271 q 320 292 295 292 m 618 292 q 632 279 627 292 l 632 279 q 623 274 625 274 q 615 279 623 278 q 604 272 607 279 l 604 271 q 623 267 604 268 q 636 243 636 261 q 620 220 636 225 l 614 220 q 591 235 599 220 l 591 236 q 597 243 596 243 l 598 243 q 616 233 606 233 q 626 244 626 236 q 615 254 626 252 q 595 262 598 254 q 593 271 593 269 q 618 292 593 292 m 847 291 l 847 291 q 857 290 856 290 q 856 272 856 277 l 856 266 q 865 242 857 242 l 865 242 q 878 288 878 251 l 878 288 l 888 288 l 888 286 q 892 226 892 233 q 872 188 892 195 q 869 188 871 188 l 865 188 q 850 201 853 188 q 849 208 849 204 l 849 208 q 851 218 849 218 l 852 218 q 860 214 858 214 l 859 208 q 865 201 859 202 l 867 201 q 882 230 882 201 q 882 244 882 233 l 881 244 q 863 228 876 228 l 863 228 q 846 260 850 228 l 846 271 q 847 291 846 278 m 224 290 q 240 275 240 288 l 240 271 q 214 247 240 258 l 207 247 q 218 236 207 239 q 233 248 226 236 l 235 248 q 241 238 241 240 q 220 223 229 223 l 216 223 q 195 254 198 223 q 217 290 195 281 l 224 290 m 462 290 l 469 290 q 488 260 488 284 q 487 236 487 245 q 488 225 487 236 q 479 220 482 220 l 479 220 l 477 227 q 462 222 469 222 l 457 222 q 442 236 442 224 l 442 241 q 464 265 442 262 q 477 261 471 264 l 477 262 q 466 279 475 279 q 454 272 460 279 l 452 272 q 446 279 450 273 l 446 281 q 462 290 454 290 m 667 290 q 683 275 683 288 q 654 247 683 255 l 650 247 l 650 245 q 661 236 654 236 q 676 248 667 236 l 677 248 q 683 240 677 248 q 669 225 683 234 q 663 223 666 223 l 658 223 q 638 253 642 223 q 659 290 638 280 l 667 290 m 350 248 q 358 235 351 235 l 360 235 q 378 259 376 240 l 378 261 q 364 279 374 279 l 363 279 q 351 257 354 279 q 350 248 350 252 m 207 261 q 229 273 220 261 l 229 275 q 223 276 224 276 q 207 263 212 276 l 207 261 m 650 261 l 652 261 q 673 274 663 261 q 667 276 669 276 l 665 276 q 650 262 654 276 l 650 261 m 452 240 l 452 238 q 459 234 452 236 q 476 245 471 234 q 463 250 471 250 q 452 240 452 248 m 419 172 q 429 149 428 172 l 429 147 l 425 146 l 424 146 q 418 161 422 161 q 413 148 414 161 q 414 145 414 146 q 415 119 414 138 q 421 121 418 121 l 423 121 l 423 111 l 416 109 q 419 62 419 70 l 412 62 q 409 106 409 98 l 408 106 q 401 104 405 104 l 401 116 q 408 117 406 116 q 406 153 406 132 q 418 172 408 172 l 419 172 m 553 172 q 564 147 562 172 l 559 146 l 557 146 l 557 147 q 553 161 557 157 q 547 151 547 157 q 549 119 547 145 q 549 119 549 119 q 556 121 553 121 l 557 121 l 557 115 l 557 111 q 549 109 557 111 l 551 106 q 553 62 551 98 l 546 62 q 543 106 546 66 q 535 104 537 104 l 535 116 l 543 117 q 541 152 541 148 q 553 172 541 172 m 481 161 l 484 161 l 488 161 l 488 155 q 490 65 488 113 l 482 65 q 481 134 481 109 l 481 161 m 498 161 l 499 161 l 505 161 l 505 140 q 507 65 505 119 l 499 65 q 497 157 497 110 l 497 159 q 498 161 497 161 m 359 159 q 366 157 364 157 q 364 129 364 138 l 366 129 l 374 130 l 374 119 q 364 117 373 119 l 367 67 l 366 66 l 360 66 q 357 117 358 85 l 348 117 l 348 127 l 355 128 l 357 128 l 357 140 q 359 159 357 159 m 674 159 q 682 157 676 159 q 680 138 680 149 l 680 129 l 682 129 l 690 130 l 690 119 l 688 119 l 680 117 l 684 67 l 680 66 l 676 66 q 674 117 674 108 l 664 117 l 665 122 l 665 127 l 672 128 l 673 128 l 673 129 q 674 159 673 143 m 773 159 q 781 157 775 159 q 780 134 780 145 l 780 129 l 781 129 l 789 130 l 789 125 l 789 119 q 780 117 789 119 l 780 113 q 783 67 780 103 l 781 66 l 775 66 l 772 117 l 764 117 l 764 127 l 771 128 l 772 128 l 773 159 m 274 157 l 281 157 q 296 141 290 157 q 292 135 292 137 l 290 135 q 276 145 284 145 q 252 127 264 145 q 246 104 246 115 l 246 101 q 262 77 246 81 q 268 77 264 77 q 289 90 289 79 l 289 97 q 281 99 286 99 l 274 99 l 274 111 q 296 104 293 111 q 298 98 298 100 q 296 79 296 81 q 299 61 296 71 q 294 58 298 61 l 293 58 q 289 73 290 58 q 269 64 285 67 l 268 64 q 239 99 242 64 l 239 102 q 269 155 239 141 l 274 157 m 587 135 q 610 109 603 135 l 610 100 q 587 66 610 77 l 583 65 q 566 79 572 65 q 565 90 565 86 l 565 93 q 578 132 565 121 q 587 135 583 135 m 640 135 q 663 71 650 135 l 662 71 q 656 68 659 68 q 640 122 646 114 q 624 68 635 117 l 623 68 l 620 68 q 614 119 616 68 l 619 121 l 621 121 q 623 98 623 110 l 623 98 q 640 135 629 135 m 330 132 q 344 119 344 130 q 345 117 345 119 q 321 93 345 102 q 311 91 317 91 l 311 90 q 322 79 311 83 l 323 79 q 338 90 330 79 l 340 90 q 345 83 340 88 l 345 83 q 325 68 335 68 l 321 68 q 302 90 308 68 l 302 100 q 320 131 302 122 q 330 132 323 132 m 734 132 l 742 132 q 758 113 753 132 q 760 101 760 102 q 758 83 760 97 q 760 68 760 81 l 755 65 l 753 65 l 751 73 q 734 66 745 66 l 732 66 q 718 79 718 68 l 718 85 q 738 106 720 106 q 752 101 746 106 l 752 103 q 740 123 752 120 l 738 123 q 726 117 734 123 l 726 117 q 722 122 725 117 l 722 123 q 734 132 728 132 m 430 131 q 437 129 431 131 q 447 79 437 79 q 466 123 460 87 q 467 131 467 127 l 467 131 q 474 129 469 131 q 472 98 472 113 l 472 90 q 475 77 472 84 q 472 70 472 73 l 471 70 q 465 87 466 73 l 464 87 q 451 68 461 77 l 445 68 q 431 119 431 68 l 431 125 l 430 131 m 572 93 q 582 77 573 77 l 583 77 q 601 94 593 77 q 603 102 603 100 q 588 123 599 123 l 585 123 q 572 93 575 123 m 310 102 q 336 117 326 102 q 329 121 335 121 l 327 121 q 310 102 314 121 m 724 83 q 732 77 726 77 l 736 77 q 751 90 745 77 q 739 95 745 95 l 738 95 q 724 83 724 93 m 344 31 q 355 28 345 31 q 352 -35 353 2 q 359 -81 352 -58 q 351 -88 351 -88 l 350 -88 q 346 -79 348 -88 l 345 -79 q 330 -90 345 -85 q 298 -62 308 -90 q 296 -43 296 -54 q 319 -3 296 -10 l 322 -3 q 342 -14 332 -3 l 342 -14 q 344 31 342 -8 m 214 26 l 224 23 q 223 -1 223 7 l 223 -11 q 233 -9 232 -9 q 235 -25 235 -22 l 233 -25 q 223 -26 227 -26 q 227 -87 225 -68 q 215 -89 218 -89 l 215 -88 q 212 -28 212 -47 l 210 -27 l 201 -27 l 201 -11 l 211 -11 l 211 -5 q 214 26 211 26 m 457 26 l 458 26 l 468 23 q 467 -7 467 4 l 467 -11 q 477 -9 476 -9 l 478 -18 l 478 -25 q 467 -26 467 -26 q 471 -87 467 -42 q 459 -89 462 -89 l 459 -88 q 456 -27 456 -37 l 444 -27 l 444 -11 l 455 -11 q 457 26 455 12 m 370 24 q 378 15 376 24 l 378 14 q 372 3 378 7 l 368 3 q 362 15 362 7 q 370 24 363 24 m 412 -3 q 439 -29 429 -3 q 441 -41 441 -37 l 441 -47 q 414 -87 441 -74 q 406 -89 412 -89 q 384 -61 387 -89 l 384 -52 q 404 -5 384 -17 q 412 -3 411 -3 m 543 -3 l 546 -3 q 553 -5 553 -3 l 553 -7 q 566 -3 559 -3 q 589 -33 583 -3 q 589 -43 589 -41 q 568 -86 587 -78 l 563 -87 l 556 -87 l 557 -92 q 557 -119 557 -96 l 546 -119 q 543 -3 543 -30 m 621 -3 q 647 -27 636 -3 q 650 -43 650 -36 q 624 -87 650 -73 q 614 -89 618 -89 q 593 -71 600 -89 q 592 -55 592 -62 q 612 -5 592 -18 q 621 -3 620 -3 m 758 -3 q 784 -27 774 -3 q 787 -40 787 -33 l 787 -45 q 760 -87 787 -75 q 751 -89 758 -89 q 730 -61 732 -89 l 730 -52 q 750 -5 730 -17 q 758 -3 757 -3 m 821 -3 q 840 -43 833 -3 l 840 -43 q 859 -3 846 -3 l 859 -3 q 886 -83 876 -3 l 885 -83 q 876 -87 878 -87 l 876 -87 q 859 -20 863 -20 q 847 -76 852 -35 q 840 -83 845 -83 q 833 -73 835 -83 q 820 -21 824 -21 q 809 -84 809 -60 q 798 -87 802 -87 l 798 -86 l 789 -16 q 801 -12 798 -12 q 804 -33 802 -17 l 805 -33 q 821 -3 811 -3 m 175 -4 q 191 -18 191 -7 l 191 -19 q 183 -25 191 -20 l 181 -25 q 172 -20 181 -20 l 172 -20 q 158 -26 163 -20 l 158 -29 q 179 -33 158 -33 q 197 -59 197 -41 l 197 -62 q 182 -88 197 -81 q 176 -90 179 -90 l 170 -90 q 143 -73 154 -90 q 151 -62 143 -70 l 153 -62 q 173 -75 158 -75 q 185 -61 185 -75 q 171 -49 185 -51 q 149 -41 153 -49 q 146 -33 146 -35 l 146 -27 q 175 -4 146 -4 m 484 -5 q 494 -7 492 -7 q 493 -31 493 -23 l 493 -35 q 501 -64 493 -57 l 505 -64 q 519 -16 519 -52 l 519 -9 l 531 -9 l 531 -9 q 536 -79 536 -70 l 536 -86 q 517 -127 536 -116 q 507 -130 511 -130 q 487 -116 492 -130 q 486 -110 486 -113 l 486 -104 q 488 -94 486 -94 l 498 -98 l 497 -104 l 497 -106 q 505 -113 497 -112 l 507 -113 q 524 -91 521 -113 q 525 -83 525 -88 l 525 -69 l 524 -60 l 524 -60 q 504 -81 517 -81 l 503 -81 q 482 -47 487 -81 q 481 -33 481 -41 l 481 -27 q 484 -5 481 -5 m 701 -5 l 706 -5 q 716 -12 710 -5 q 724 -24 724 -20 q 715 -33 716 -33 l 715 -33 q 703 -22 708 -22 l 702 -22 q 690 -41 694 -26 l 687 -56 q 696 -72 687 -71 l 699 -72 q 722 -61 706 -72 l 722 -61 q 726 -76 726 -75 q 694 -88 709 -88 q 675 -57 679 -88 q 688 -14 675 -34 q 701 -5 696 -5 m 364 -7 l 372 -7 l 376 -7 q 376 -13 376 -9 q 378 -87 376 -58 l 366 -87 l 366 -81 q 364 -7 364 -35 m 237 -7 q 249 -12 249 -11 l 249 -25 q 257 -71 249 -71 l 260 -71 q 277 -33 272 -58 q 281 -7 280 -26 l 282 -7 q 292 -12 292 -9 q 290 -52 290 -40 l 290 -58 q 294 -72 290 -65 q 287 -84 294 -76 l 287 -84 q 279 -67 279 -76 l 278 -67 q 259 -87 271 -87 l 257 -87 q 237 -24 237 -87 l 237 -7 m 308 -45 q 328 -73 308 -68 l 330 -73 q 340 -55 338 -73 l 340 -53 q 326 -20 340 -28 l 322 -20 l 321 -20 q 308 -43 309 -20 l 308 -45 m 395 -56 q 406 -73 395 -71 l 408 -73 q 428 -53 418 -73 q 429 -47 429 -50 l 429 -41 q 413 -20 425 -20 l 412 -20 q 395 -56 397 -20 m 553 -25 q 555 -71 553 -27 l 560 -71 q 578 -43 575 -71 q 566 -20 576 -20 l 566 -20 q 553 -25 559 -20 m 604 -56 l 604 -59 q 614 -73 604 -71 l 615 -73 q 635 -55 626 -73 q 638 -43 638 -50 q 619 -20 634 -20 q 604 -56 606 -20 m 741 -56 q 752 -73 741 -73 l 754 -73 q 774 -52 764 -73 q 775 -45 775 -48 l 775 -41 q 758 -20 770 -20 l 758 -20 q 741 -56 744 -20 m 663 -65 q 671 -75 669 -65 l 671 -78 q 663 -87 669 -87 q 655 -77 656 -87 q 663 -65 656 -65 m 486 928 l 486 764 l 309 764 q 239 738 273 764 l 239 745 q 486 928 339 928 m 543 928 l 549 928 q 739 827 639 928 q 777 764 777 781 l 543 764 l 543 928 m 290 707 l 486 707 l 486 643 q 435 656 463 656 l 290 656 q 277 669 277 656 l 277 694 q 290 707 279 707 m 543 707 l 802 707 l 808 643 l 808 631 q 720 429 808 505 l 606 429 q 543 492 543 437 l 543 707 m 220 656 l 227 656 q 321 599 227 607 l 441 599 q 486 555 486 599 l 486 485 q 416 429 486 429 l 309 429 q 220 618 220 510 l 220 656 m 511 410 l 517 410 q 644 372 559 372 l 644 365 q 517 340 571 340 l 511 340 q 385 365 457 340 l 385 372 q 511 410 474 372 z "},"/":{"ha":529,"x_min":34,"x_max":495,"o":"m 182 56 q 97 -14 136 -14 q 80 -10 88 -14 q 34 102 37 9 q 209 591 75 254 q 373 953 344 930 q 450 991 418 991 q 465 989 458 991 q 495 925 495 978 q 494 900 495 913 q 355 479 488 842 q 182 56 220 115 z "},":":{"ha":390,"x_min":95,"x_max":295,"o":"m 294 587 q 295 572 295 580 q 259 516 295 537 q 195 499 230 499 q 176 500 186 499 q 121 531 143 505 q 96 587 99 555 q 95 597 95 592 q 111 643 95 623 q 174 675 131 669 q 189 677 182 677 q 251 655 223 677 q 294 587 285 629 m 229 189 q 284 134 275 182 q 286 110 286 121 q 271 50 286 79 q 224 7 256 20 q 187 0 206 0 q 163 3 175 0 q 115 35 132 10 q 103 79 103 54 q 106 106 103 92 q 151 172 114 148 q 212 191 178 191 q 229 189 220 191 m 141 598 q 149 597 145 597 q 165 603 157 597 q 178 623 177 612 q 161 630 170 630 q 149 626 155 630 q 139 608 139 619 q 141 598 139 604 m 151 92 q 191 126 161 94 q 199 134 198 134 q 197 139 198 134 q 184 142 191 142 q 159 130 170 142 q 148 107 148 119 q 151 92 148 100 z "},";":{"ha":319,"x_min":68,"x_max":251,"o":"m 72 68 q 140 141 88 124 q 168 146 155 146 q 230 109 204 146 q 241 68 241 92 q 229 10 241 43 q 176 -80 209 -45 q 104 -112 143 -127 q 88 -73 77 -95 q 121 -40 121 -51 q 122 -30 122 -35 q 104 5 122 -1 q 71 26 77 15 q 68 42 68 32 q 72 68 68 53 m 119 61 q 123 60 121 60 q 142 69 132 60 q 154 90 154 80 l 154 92 q 142 95 147 95 q 125 89 132 95 q 117 72 117 82 q 119 61 117 67 m 193 693 q 249 637 239 686 q 251 614 251 625 q 236 553 251 583 q 189 511 221 524 q 152 504 171 504 q 128 507 140 504 q 80 539 96 514 q 68 583 68 558 q 71 610 68 596 q 115 675 79 652 q 176 694 143 694 q 193 693 184 694 m 116 596 q 156 630 126 597 q 163 637 163 637 q 162 643 163 637 q 149 646 155 646 q 123 634 135 646 q 113 611 113 623 q 116 596 113 604 z "},";":{"ha":319,"x_min":68,"x_max":251,"o":"m 72 68 q 140 141 88 124 q 168 146 155 146 q 230 109 204 146 q 241 68 241 92 q 229 10 241 43 q 176 -80 209 -45 q 104 -112 143 -127 q 88 -73 77 -95 q 121 -40 121 -51 q 122 -30 122 -35 q 104 5 122 -1 q 71 26 77 15 q 68 42 68 32 q 72 68 68 53 m 119 61 q 123 60 121 60 q 142 69 132 60 q 154 90 154 80 l 154 92 q 142 95 147 95 q 125 89 132 95 q 117 72 117 82 q 119 61 117 67 m 193 693 q 249 637 239 686 q 251 614 251 625 q 236 553 251 583 q 189 511 221 524 q 152 504 171 504 q 128 507 140 504 q 80 539 96 514 q 68 583 68 558 q 71 610 68 596 q 115 675 79 652 q 176 694 143 694 q 193 693 184 694 m 116 596 q 156 630 126 597 q 163 637 163 637 q 162 643 163 637 q 149 646 155 646 q 123 634 135 646 q 113 611 113 623 q 116 596 113 604 z "},"<":{"ha":770,"x_min":95,"x_max":675,"o":"m 104 447 q 95 479 95 460 l 95 488 q 104 519 95 507 q 132 570 114 543 q 574 865 514 864 q 589 865 582 865 q 669 838 650 865 q 675 817 675 828 q 638 749 675 789 q 298 484 522 625 q 638 217 522 341 q 675 150 675 178 q 669 129 675 138 q 589 102 650 102 l 574 102 q 132 397 514 102 q 104 447 114 423 m 143 492 q 164 515 152 497 q 186 539 178 532 q 237 579 222 569 q 290 618 252 590 q 342 658 322 642 l 562 807 q 224 592 511 807 q 170 549 178 558 q 142 499 142 523 q 143 492 142 496 z "},"=":{"ha":732,"x_min":68,"x_max":665,"o":"m 167 578 q 71 628 85 595 q 68 644 68 635 q 157 720 71 686 q 405 732 313 736 q 597 711 566 729 q 661 658 649 685 q 664 645 663 652 q 616 598 665 616 q 591 591 605 594 q 353 570 535 576 q 167 578 235 565 m 167 277 q 71 326 85 293 q 68 342 68 334 q 157 418 71 385 q 404 431 313 434 q 597 410 566 427 q 661 356 649 384 q 664 343 663 350 q 615 296 665 314 q 591 289 604 292 q 353 269 535 275 q 167 277 235 263 z "},">":{"ha":770,"x_min":95,"x_max":675,"o":"m 665 447 q 637 397 656 423 q 195 102 256 102 l 181 102 q 101 129 120 102 q 95 150 95 138 q 132 217 95 178 q 472 484 248 341 q 132 749 248 625 q 95 817 95 789 q 101 838 95 828 q 181 865 120 865 q 195 865 188 865 q 637 570 256 864 q 665 519 656 543 q 675 488 675 507 l 675 479 q 665 447 675 460 m 144 164 q 224 225 155 167 q 322 307 309 297 q 368 340 334 315 q 414 375 395 361 q 462 409 461 409 q 489 459 489 433 q 465 446 475 458 q 448 423 448 424 l 309 319 q 144 164 146 190 z "},"?":{"ha":667,"x_min":95,"x_max":637,"o":"m 144 887 q 343 988 229 984 l 353 988 q 547 901 462 988 q 637 697 637 808 q 636 679 637 688 q 524 500 630 599 q 376 334 399 384 q 368 252 371 323 q 304 200 367 216 q 266 195 284 195 q 229 201 246 195 q 182 254 189 215 q 179 283 179 269 q 196 349 179 319 q 276 427 212 377 q 355 516 336 474 q 364 556 364 538 q 338 610 364 587 q 256 644 315 630 q 163 670 184 661 q 95 769 96 701 q 144 887 95 830 m 340 134 q 364 72 364 102 q 363 62 364 67 q 330 16 359 34 q 265 0 302 0 l 262 0 q 210 22 231 0 q 192 64 192 41 l 192 66 q 232 117 193 87 q 286 146 260 139 q 307 150 297 150 q 340 134 328 150 m 242 66 q 288 95 273 66 q 274 98 281 98 q 258 93 266 98 q 242 66 243 84 m 144 781 q 176 831 144 784 q 264 907 208 879 q 329 938 326 938 l 329 937 q 306 940 317 940 q 203 895 257 940 q 157 844 174 872 q 140 799 140 818 q 144 781 140 789 m 227 296 l 226 296 q 225 297 225 296 q 277 353 225 301 q 313 387 277 352 q 362 437 343 415 q 410 524 410 491 q 407 538 410 532 q 382 498 403 535 q 317 418 359 459 q 280 386 302 404 q 251 362 258 369 q 227 296 227 338 z "},"@":{"ha":1042,"x_min":95,"x_max":947,"o":"m 745 922 q 888 769 833 874 q 947 553 939 671 q 947 520 947 536 q 913 341 947 421 q 781 200 869 240 q 703 179 736 179 q 645 201 668 179 q 604 274 644 203 q 532 256 568 256 q 467 271 499 256 q 371 370 406 300 q 345 485 345 425 q 347 523 345 504 q 427 680 359 612 q 545 727 467 725 l 549 727 q 665 688 623 727 q 672 733 671 732 q 693 745 680 745 q 712 740 702 745 q 736 715 736 728 q 663 313 736 399 q 669 303 667 307 q 705 273 681 273 q 722 277 713 273 q 790 346 759 290 q 834 516 834 425 q 804 676 834 592 q 692 844 763 789 q 565 890 633 890 q 488 876 528 890 q 295 707 375 837 q 226 489 226 595 q 238 401 226 444 q 401 187 274 274 q 650 101 518 106 q 669 100 659 100 q 854 177 792 100 l 918 121 q 894 97 905 108 q 623 0 773 0 q 557 5 591 0 q 247 159 380 28 q 96 471 110 294 q 95 507 95 489 q 236 851 95 686 q 480 975 312 953 q 551 980 517 980 q 745 922 668 980 m 477 534 q 453 466 453 500 q 477 398 453 432 q 528 367 500 367 l 532 367 q 581 404 561 368 q 605 483 605 444 q 602 509 605 496 q 549 576 589 570 q 541 577 545 577 q 477 534 507 577 z "},"A":{"ha":721,"x_min":27,"x_max":694,"o":"m 693 113 q 694 102 694 107 q 667 40 694 66 q 594 9 637 10 q 508 45 546 9 q 448 168 465 87 q 380 243 432 241 l 377 243 q 293 176 327 243 q 248 86 248 87 l 249 87 q 183 24 224 45 q 121 7 152 7 q 104 9 113 7 q 43 46 64 14 q 27 108 27 71 q 30 142 27 124 q 58 275 39 200 q 98 427 82 372 q 142 565 122 507 q 356 928 253 880 q 392 937 374 937 q 521 819 459 937 q 693 113 639 590 m 429 408 q 420 458 428 411 q 405 527 412 501 q 378 578 391 578 q 361 557 369 578 q 330 432 352 539 q 328 416 328 420 l 328 414 q 333 412 328 412 q 339 412 336 412 q 367 416 353 416 q 397 412 382 416 q 419 406 404 410 l 426 404 l 427 404 q 429 406 429 404 l 429 408 m 401 363 q 424 362 413 362 q 467 378 458 362 q 470 393 470 384 q 456 447 470 412 q 457 437 457 442 q 451 404 457 420 q 401 363 439 371 m 83 153 q 83 153 83 153 q 136 354 83 167 q 199 551 168 467 q 363 852 281 770 q 380 880 380 869 q 380 884 380 882 q 373 885 376 885 q 282 791 336 885 q 180 555 233 704 q 80 180 80 273 q 83 153 80 163 z "},"B":{"ha":701,"x_min":95,"x_max":674,"o":"m 98 887 q 118 918 103 911 q 260 941 184 941 q 372 929 313 941 q 592 827 506 901 q 674 673 674 756 q 673 651 674 662 q 504 442 658 541 q 437 413 489 432 q 445 414 440 414 q 536 387 468 414 q 648 274 637 346 q 650 254 650 264 q 604 151 650 202 q 454 56 550 92 q 258 20 357 20 q 118 38 189 20 q 98 57 103 42 q 95 458 97 62 l 95 618 q 98 887 95 867 m 319 560 q 321 532 319 538 q 340 519 324 522 q 366 518 353 518 q 427 528 401 518 q 465 575 465 543 q 463 595 465 585 q 362 654 446 654 l 349 654 q 317 626 321 653 l 317 596 q 319 560 319 569 m 419 279 q 374 328 414 309 q 349 335 359 335 q 317 304 326 335 q 315 281 315 293 q 315 269 315 275 q 328 243 319 250 q 349 240 336 240 q 378 243 361 240 q 419 278 419 251 l 419 279 m 131 838 q 201 886 157 875 q 180 892 193 892 q 150 886 168 892 q 133 870 136 882 q 131 838 132 867 m 400 488 q 422 486 412 486 q 482 502 461 486 q 504 547 504 517 q 500 574 504 559 q 400 488 476 507 m 375 212 q 414 204 397 204 q 448 215 434 204 q 462 243 462 226 q 450 279 462 259 q 432 233 448 248 q 375 212 416 220 z "},"C":{"ha":703,"x_min":47,"x_max":656,"o":"m 420 943 q 382 945 401 945 q 138 815 231 945 q 47 496 47 688 l 47 487 q 143 159 49 290 q 385 27 237 27 q 420 29 403 27 q 565 100 504 38 q 639 231 618 154 q 648 296 648 266 q 637 357 648 330 q 558 412 615 412 l 555 412 q 478 391 526 412 q 399 363 425 367 q 373 361 385 361 q 300 387 330 361 q 265 463 267 416 l 265 467 q 296 539 265 511 q 366 564 323 564 q 392 562 378 564 q 480 535 417 559 q 567 513 536 514 l 570 513 q 647 576 627 513 q 656 637 656 604 q 644 718 656 674 q 567 865 622 805 q 420 943 504 935 m 395 312 q 541 368 478 333 q 475 313 532 327 q 430 307 450 307 q 395 312 410 307 m 91 570 q 130 734 91 654 q 237 865 170 818 q 292 889 259 880 q 326 896 313 896 q 345 890 338 896 q 300 871 336 885 q 252 846 269 857 q 91 570 163 779 z "},"D":{"ha":814,"x_min":95,"x_max":787,"o":"m 95 178 q 96 203 95 191 q 132 865 107 768 q 281 960 156 960 q 475 913 378 960 q 549 867 513 894 q 733 650 670 780 q 787 440 783 544 l 787 428 q 736 260 787 344 q 598 114 686 178 q 418 24 513 52 q 304 7 357 7 q 239 14 270 7 q 134 70 172 29 q 95 172 95 112 l 95 178 m 308 345 q 307 338 307 341 q 347 334 326 334 q 406 342 375 334 q 486 385 455 356 q 513 435 513 410 q 513 445 513 440 q 448 506 505 480 q 358 532 389 532 q 322 499 323 532 q 308 345 320 401 m 159 753 q 172 796 164 760 q 189 850 181 834 q 226 890 205 880 q 261 908 258 905 q 240 914 252 914 q 218 910 230 914 q 176 872 188 900 q 159 753 159 835 m 381 288 q 498 323 446 288 q 557 420 557 361 q 522 380 551 418 q 434 313 491 338 q 381 288 382 290 z "},"E":{"ha":712,"x_min":68,"x_max":692,"o":"m 414 527 q 525 503 431 509 q 581 492 563 500 q 610 450 609 480 l 610 444 q 549 362 610 380 q 488 352 530 357 q 427 342 445 347 q 394 304 394 334 l 394 289 q 431 267 397 273 q 446 267 436 267 q 472 267 457 267 q 511 268 496 268 l 524 268 q 591 230 587 264 q 593 196 593 212 q 491 39 593 85 q 290 7 419 7 q 255 7 273 7 q 89 197 130 11 q 68 483 68 290 l 68 513 q 73 635 68 589 q 137 827 85 765 q 312 930 187 889 q 416 944 353 944 q 467 942 440 944 q 622 907 568 936 q 681 827 661 885 q 692 764 692 795 q 681 702 692 733 q 618 614 657 636 q 560 600 594 600 q 513 606 538 600 q 455 614 477 614 q 427 608 436 614 q 404 563 404 593 q 414 527 404 538 m 121 637 q 134 678 127 646 q 151 736 142 715 q 283 857 186 817 q 332 875 288 859 q 375 892 369 888 q 186 827 274 892 q 121 637 121 778 z "},"F":{"ha":710,"x_min":95,"x_max":705,"o":"m 97 487 q 95 616 95 559 l 95 643 q 136 905 98 844 q 312 972 178 972 q 362 970 336 972 q 608 908 509 959 q 682 820 657 873 q 705 715 705 771 q 703 688 705 701 q 647 579 692 603 q 591 570 621 570 q 532 572 565 570 q 450 577 483 577 q 402 572 418 577 q 344 483 345 556 q 372 408 344 416 q 401 406 379 406 q 437 403 424 406 q 505 364 486 389 q 516 334 516 350 q 513 318 516 326 q 480 277 505 295 q 423 256 454 260 q 351 251 372 251 q 336 254 336 251 q 336 255 336 254 q 322 151 328 247 q 283 26 316 56 q 216 0 252 0 q 170 10 195 0 q 98 126 103 38 q 96 195 96 155 q 97 266 96 227 q 100 371 100 368 l 97 487 m 150 772 q 164 817 156 781 q 188 869 172 850 q 233 903 208 893 q 273 920 266 916 q 251 923 262 923 q 219 918 236 923 q 172 890 187 910 q 150 772 150 861 z "},"G":{"ha":855,"x_min":47,"x_max":828,"o":"m 631 642 q 460 537 515 635 q 432 411 432 481 q 434 373 432 393 q 528 243 445 260 q 587 235 568 235 q 605 243 605 235 l 605 244 q 589 269 604 250 q 562 305 570 292 q 548 347 548 328 q 570 388 548 371 q 675 412 600 412 l 691 412 q 806 381 779 410 q 825 347 820 367 q 828 328 828 337 q 822 302 828 315 q 752 248 820 298 q 736 193 742 240 q 717 119 730 140 q 593 29 677 59 q 469 7 533 7 q 441 8 455 7 q 120 195 225 24 q 47 464 47 312 q 56 571 47 515 q 184 827 77 718 q 437 958 292 939 q 496 962 467 962 q 686 917 595 962 q 772 822 758 882 q 776 783 776 807 q 767 695 776 749 q 753 642 760 656 q 733 630 747 630 q 695 637 731 630 q 643 642 669 642 l 631 642 m 602 337 q 606 336 604 336 q 635 353 614 336 q 646 366 645 360 q 633 368 641 368 q 608 363 623 368 q 595 351 598 359 q 595 348 595 349 q 602 337 595 341 m 572 199 q 598 196 587 196 q 635 207 621 196 q 652 241 652 220 q 642 262 652 262 q 626 227 631 261 q 601 213 621 222 q 572 199 578 203 m 98 539 q 120 609 99 538 q 147 672 127 631 q 220 780 168 713 q 384 887 270 843 q 421 899 390 890 q 454 911 447 905 q 203 798 311 911 q 98 541 98 686 l 98 539 z "},"H":{"ha":865,"x_min":68,"x_max":804,"o":"m 112 172 q 87 425 97 248 q 71 688 73 663 q 68 742 68 717 q 105 894 68 839 q 196 945 140 945 q 215 944 205 945 q 332 863 283 934 q 387 676 387 786 q 385 608 387 669 q 385 585 385 595 q 387 542 385 559 q 465 467 399 473 l 467 467 q 515 576 507 467 q 518 666 518 608 q 520 735 519 721 q 576 869 528 817 q 676 923 620 918 q 688 924 682 924 q 768 886 737 924 q 804 768 804 843 q 803 747 804 758 q 728 130 775 292 q 602 14 694 14 q 591 14 597 14 q 528 107 547 18 q 517 178 522 134 q 509 234 511 224 q 449 290 498 279 q 431 292 439 292 q 373 244 392 292 q 351 177 365 224 q 330 112 338 133 q 238 40 300 43 l 225 40 q 140 66 159 40 q 112 172 130 81 m 117 775 q 130 808 123 785 q 144 842 138 832 q 170 870 150 851 q 191 895 189 887 q 176 898 183 898 q 155 892 165 898 q 131 864 140 882 q 117 775 117 835 m 555 635 q 608 813 565 759 q 650 851 627 837 q 675 870 671 864 l 673 870 q 569 777 597 870 q 554 669 554 728 q 555 635 554 653 m 557 573 q 558 545 558 558 q 550 479 558 503 q 488 430 535 439 q 469 428 479 428 q 442 431 456 428 q 418 438 418 437 q 482 414 449 414 q 490 414 486 414 q 563 515 563 420 q 557 573 563 541 z "},"I":{"ha":633,"x_min":54,"x_max":595,"o":"m 193 617 q 154 625 178 622 q 117 631 124 629 q 67 675 77 640 q 54 744 54 718 l 54 751 q 71 842 55 800 q 252 926 97 913 q 371 929 286 929 q 523 901 466 929 q 593 781 581 872 q 595 744 595 764 q 559 661 595 707 q 508 623 537 632 q 459 616 497 620 q 420 602 433 614 q 395 534 402 585 q 392 429 392 510 q 393 410 392 418 q 411 262 395 274 q 471 253 418 256 q 513 247 500 249 q 550 180 550 232 l 550 178 q 526 23 557 47 q 279 1 494 3 q 251 0 264 0 q 115 16 154 0 q 83 73 90 31 q 81 180 81 168 q 90 222 81 203 q 166 243 100 243 q 226 256 215 245 q 237 384 237 281 q 236 420 237 419 q 193 617 230 602 m 107 784 q 125 810 111 774 q 155 842 136 831 q 201 861 169 850 q 237 875 232 871 q 136 857 169 875 q 105 821 115 846 q 100 799 100 809 q 107 784 100 787 m 124 195 q 123 189 123 192 q 165 174 123 174 l 168 174 q 210 185 191 176 q 265 237 249 204 q 275 279 275 257 q 267 321 275 299 q 267 304 267 320 q 262 274 266 288 q 208 212 252 229 q 168 208 199 208 q 124 195 125 208 z "},"J":{"ha":608,"x_min":27,"x_max":581,"o":"m 185 574 q 112 578 115 578 q 56 623 67 587 q 32 738 41 670 q 27 802 27 775 q 35 853 27 836 q 252 937 65 924 q 334 940 296 940 q 511 913 446 940 q 578 777 566 890 q 581 719 581 746 q 565 612 581 658 q 491 568 551 572 q 444 555 448 562 q 443 549 443 554 q 435 362 443 504 q 426 231 431 286 q 412 124 426 169 q 317 34 394 62 q 189 14 261 14 l 172 14 q 45 95 59 17 q 44 113 44 104 q 52 153 44 133 q 81 189 63 180 q 152 205 97 197 q 220 229 205 213 q 243 326 243 253 q 242 359 243 341 q 219 543 237 473 q 209 566 212 562 q 185 574 203 573 m 78 806 q 94 824 87 814 q 104 838 102 836 q 178 871 118 853 l 221 884 q 79 850 106 884 q 71 827 71 838 q 78 806 71 817 m 83 105 q 84 103 83 105 q 88 109 85 100 q 94 127 90 120 q 152 150 106 149 l 162 150 q 246 175 212 150 q 284 257 284 203 q 281 289 284 272 l 281 281 q 269 224 281 245 q 211 181 254 201 q 147 169 186 169 q 99 163 109 168 q 81 134 85 155 q 81 123 81 129 q 83 105 81 109 z "},"K":{"ha":783,"x_min":60,"x_max":776,"o":"m 725 900 q 746 756 768 836 q 661 613 726 687 q 387 427 533 470 q 603 325 526 393 q 724 189 692 247 q 701 41 776 97 q 561 24 641 -3 q 433 105 500 45 q 345 212 393 143 q 330 135 340 195 q 309 60 323 92 q 261 11 293 26 q 198 1 233 -3 q 138 24 164 5 q 101 77 110 45 q 71 359 81 150 q 81 746 60 595 q 155 912 96 857 q 273 950 208 962 q 374 857 357 935 q 378 648 380 825 q 398 681 382 654 q 430 734 418 715 q 519 861 478 812 q 725 900 648 1012 m 623 888 q 529 818 591 898 q 484 753 511 794 q 451 707 457 714 q 416 675 453 709 q 400 644 392 653 q 472 705 416 627 q 566 829 551 815 q 623 888 623 887 m 130 783 q 155 823 133 786 q 220 890 175 858 q 166 871 197 907 q 130 783 136 835 z "},"L":{"ha":649,"x_min":68,"x_max":621,"o":"m 393 220 q 408 219 398 219 q 425 220 415 219 q 505 222 472 222 q 578 214 565 222 q 618 158 612 195 q 617 113 621 136 q 550 24 604 51 q 437 7 515 7 q 343 18 396 7 q 177 104 223 44 q 95 368 122 174 q 73 581 83 450 q 68 703 68 649 q 87 857 68 812 q 155 924 106 899 q 252 945 199 945 l 256 945 q 425 823 385 944 q 444 682 444 767 q 436 560 444 627 q 391 329 430 511 q 380 247 380 271 l 380 244 q 390 220 380 220 q 393 220 391 220 m 115 766 q 130 804 121 775 q 154 846 139 829 q 193 873 166 860 q 229 893 222 887 q 212 897 222 897 l 206 897 q 140 868 165 892 q 115 766 115 843 z "},"M":{"ha":1067,"x_min":27,"x_max":1040,"o":"m 63 68 q 27 195 27 106 q 28 228 27 210 q 53 376 30 253 q 82 557 76 521 q 113 714 99 651 q 136 805 124 762 q 158 869 147 845 q 239 942 186 932 q 254 943 247 943 q 336 897 300 943 q 429 720 378 843 q 519 509 499 548 q 545 476 536 476 q 549 478 547 476 q 564 532 551 480 q 584 616 568 546 q 609 716 598 677 q 686 881 644 840 q 800 931 736 931 l 801 931 q 899 860 871 930 q 985 496 931 776 q 1040 125 1040 217 l 1040 121 q 1001 48 1039 78 q 920 10 967 22 q 865 3 892 3 q 835 4 850 3 q 759 58 787 9 q 736 165 745 83 q 723 257 727 231 q 716 283 719 283 q 695 235 713 281 q 543 84 636 84 q 533 85 538 84 q 380 262 438 93 q 370 307 373 306 q 359 262 366 307 q 330 113 336 128 q 330 113 330 113 q 216 9 300 33 q 192 9 204 9 q 63 68 114 16 m 556 429 q 567 427 562 427 q 629 539 605 427 q 644 617 632 553 q 662 704 654 671 q 735 848 688 807 q 763 862 739 851 q 783 878 782 870 q 767 883 776 883 q 735 872 754 883 q 686 819 704 854 q 631 627 663 774 q 585 467 602 490 q 562 448 579 460 q 555 435 555 444 q 556 429 555 432 m 182 766 q 195 798 188 775 q 210 833 203 823 q 235 861 215 842 q 256 885 254 878 q 241 888 248 888 q 220 882 231 888 q 196 854 205 873 q 182 766 182 825 z "},"N":{"ha":878,"x_min":95,"x_max":823,"o":"m 334 59 q 304 14 329 30 q 235 0 283 0 l 232 0 q 133 17 155 1 q 104 62 109 34 q 95 297 95 127 q 96 414 95 351 q 99 766 99 677 l 99 814 q 117 893 99 868 q 161 937 130 920 q 238 945 204 952 q 298 914 272 939 q 359 831 323 890 q 521 453 452 679 q 554 376 545 376 l 555 376 q 582 474 562 380 q 595 709 592 522 q 618 897 599 869 q 716 945 652 945 q 731 945 724 945 q 816 862 808 937 q 823 699 823 789 q 812 441 823 584 q 709 42 787 111 q 616 6 671 9 l 608 6 q 521 37 557 6 q 379 224 424 121 q 361 271 370 245 q 351 296 351 295 q 348 300 349 300 q 347 298 347 300 q 345 270 346 294 q 334 59 341 104 m 650 822 q 654 828 652 825 q 671 861 669 858 q 688 876 675 867 q 707 890 702 884 q 696 896 700 895 q 686 897 690 897 q 651 873 665 897 q 642 845 642 859 q 650 822 642 833 m 557 351 q 580 344 570 344 q 621 401 610 344 q 634 481 634 442 q 632 509 634 495 q 623 471 629 500 q 610 422 616 439 q 557 351 591 358 m 127 748 q 172 863 137 835 q 180 874 178 869 q 166 876 172 876 q 134 854 145 876 q 123 796 123 830 q 127 748 123 774 z "},"O":{"ha":863,"x_min":47,"x_max":816,"o":"m 649 886 q 770 722 726 827 q 816 505 812 623 l 816 489 q 781 282 816 380 q 666 102 742 171 q 440 14 573 18 l 427 14 q 217 100 296 14 q 54 447 81 248 q 47 532 47 490 q 140 814 47 691 q 384 939 216 916 q 454 943 420 943 q 649 886 572 943 m 322 494 q 296 410 296 450 q 345 307 296 355 q 415 272 379 272 q 429 273 422 272 q 498 334 473 281 q 521 427 521 382 q 511 483 521 456 q 422 566 483 565 q 322 494 364 566 m 430 224 q 531 280 492 224 q 566 397 566 330 q 541 343 564 395 q 473 259 517 291 q 430 224 431 229 m 99 587 q 119 637 109 601 q 141 705 132 683 q 286 852 180 798 q 348 873 302 860 q 399 892 390 886 q 181 808 263 892 q 99 587 99 724 z "},"P":{"ha":846,"x_min":95,"x_max":802,"o":"m 309 226 q 300 184 300 213 q 302 146 300 168 q 309 73 309 93 q 309 64 309 67 q 224 14 300 17 q 214 13 218 13 q 132 56 145 14 q 96 481 103 143 q 95 542 95 513 q 146 876 95 793 q 263 951 181 933 q 338 958 298 958 q 432 949 382 958 q 719 817 634 915 q 802 616 802 722 q 760 461 802 541 q 563 271 688 323 q 410 245 511 250 q 309 226 323 241 m 302 435 q 346 430 324 430 q 395 436 370 430 q 477 479 445 448 q 511 528 506 507 q 512 536 512 532 q 489 578 512 557 q 403 609 454 609 q 378 608 391 609 q 286 551 311 600 q 271 481 271 523 l 271 478 q 274 440 273 441 q 282 439 275 439 q 302 435 292 438 m 148 718 q 158 747 153 726 q 166 781 165 775 q 195 839 180 819 q 239 880 212 864 q 271 893 248 885 q 299 907 292 899 q 279 909 290 909 q 236 901 260 909 q 180 861 197 888 q 148 718 148 808 m 377 385 q 496 422 446 385 q 553 524 553 465 q 520 481 550 523 q 433 410 490 439 q 404 399 429 408 q 377 385 385 391 z "},"Q":{"ha":859,"x_min":54,"x_max":819,"o":"m 668 95 q 707 3 705 38 l 707 -1 q 683 -60 707 -32 q 627 -92 657 -90 l 621 -92 q 538 -21 565 -92 q 528 -7 534 -12 q 510 1 522 -2 q 433 12 486 8 q 353 22 375 17 q 172 125 248 44 q 68 324 96 205 q 54 439 54 381 q 71 566 54 502 q 182 785 102 687 q 450 922 291 915 q 467 922 458 922 q 718 793 619 922 q 819 479 819 664 q 817 428 819 454 q 668 95 802 208 m 523 515 q 463 565 500 545 q 411 584 436 581 q 391 585 401 585 q 310 548 351 583 q 258 470 269 513 q 255 452 256 461 q 286 325 246 387 q 399 236 329 257 q 419 231 410 233 q 452 248 450 227 q 452 260 453 253 q 447 300 446 294 q 485 329 452 328 l 489 328 q 513 316 501 327 q 534 302 528 302 l 535 301 q 559 332 549 301 q 566 363 564 347 q 523 515 577 443 m 410 188 q 429 180 420 182 q 475 198 452 178 q 490 229 486 208 q 505 255 494 248 q 529 259 511 258 q 560 264 549 260 q 610 338 601 278 q 585 312 591 330 q 582 298 584 308 q 580 286 581 290 q 558 272 575 273 q 538 274 550 272 q 485 285 517 277 q 482 249 484 264 q 466 206 477 214 q 444 199 460 202 q 410 188 425 195 m 104 490 q 132 574 104 490 q 215 731 158 654 q 347 836 264 798 q 403 859 368 846 q 432 871 428 868 q 196 748 294 871 q 104 490 104 631 z "},"R":{"ha":723,"x_min":95,"x_max":687,"o":"m 285 24 q 199 3 260 3 q 123 35 135 3 q 96 445 101 96 q 95 569 95 513 q 113 848 95 795 q 250 942 140 928 q 297 945 273 945 q 429 923 361 945 q 623 747 547 885 q 687 519 687 633 q 686 488 687 503 q 615 326 678 395 q 563 284 585 296 q 511 259 541 272 q 492 248 495 252 q 492 245 492 247 q 501 232 492 240 q 562 169 517 218 q 625 105 607 121 q 656 58 656 78 q 652 44 656 50 q 534 7 629 9 l 527 7 q 427 31 458 7 q 345 164 427 34 q 314 198 326 198 q 312 197 313 198 q 304 166 304 195 l 304 155 q 304 114 304 146 q 285 24 304 42 m 292 536 l 292 531 q 332 471 292 471 q 362 477 345 471 q 439 556 437 504 l 439 557 q 402 605 439 589 q 336 617 374 616 l 334 617 q 297 595 304 617 q 292 536 294 585 m 147 789 q 161 808 157 793 q 189 854 165 830 q 239 882 203 867 q 252 887 250 887 l 254 896 q 172 872 195 896 q 147 789 147 848 m 347 425 q 452 467 408 423 q 484 524 484 498 q 479 542 484 533 q 455 499 473 522 q 385 441 425 465 q 347 425 363 429 z "},"S":{"ha":716,"x_min":43,"x_max":679,"o":"m 648 571 q 500 553 629 556 q 367 536 376 551 q 364 528 364 532 q 389 487 364 512 q 456 425 398 477 q 541 344 509 377 q 631 186 631 248 q 629 170 631 177 q 560 59 615 102 q 438 13 509 18 q 340 9 384 9 q 73 37 123 9 q 43 104 43 53 q 65 191 43 151 q 174 214 78 214 l 296 214 q 353 218 335 214 q 385 245 384 224 l 385 246 q 323 313 385 271 q 273 345 303 326 q 237 366 241 363 q 54 584 83 467 q 47 637 47 610 q 153 843 47 741 q 373 935 217 905 q 479 945 433 945 q 599 913 559 945 q 677 725 667 859 q 679 680 679 701 q 648 571 679 595 m 92 123 q 105 149 100 143 q 138 162 115 161 q 115 170 125 170 q 98 164 106 170 q 87 142 87 156 q 92 123 87 134 m 328 176 q 351 170 337 170 q 389 180 367 170 q 423 227 423 195 q 420 248 423 237 q 395 202 416 224 q 336 176 370 176 q 328 176 332 176 m 100 657 q 121 696 109 667 q 149 749 136 731 q 311 859 196 819 q 370 874 316 861 q 417 891 411 886 q 403 892 410 892 q 309 876 370 892 q 198 832 236 856 q 118 745 154 804 q 94 679 94 704 q 100 657 94 665 z "},"T":{"ha":690,"x_min":14,"x_max":677,"o":"m 214 480 q 140 544 199 540 q 66 549 77 549 l 64 549 q 26 602 35 560 q 14 705 16 642 q 14 747 14 727 q 24 859 14 835 q 127 927 43 905 q 276 943 190 943 q 308 943 292 943 q 614 872 543 937 q 671 744 656 834 q 677 629 677 707 q 665 589 677 616 l 665 589 l 664 588 q 530 517 638 530 q 477 503 490 513 q 459 448 460 489 q 425 46 452 111 q 340 1 408 5 q 332 0 336 0 q 252 42 269 0 l 252 43 q 237 109 243 64 q 225 213 229 155 q 222 374 224 224 q 214 480 220 460 m 59 742 q 117 863 60 836 q 199 890 158 881 q 184 891 191 891 q 99 876 142 891 q 54 793 54 861 q 59 742 54 770 m 258 462 q 254 363 254 410 q 269 173 254 240 q 258 462 258 449 z "},"U":{"ha":825,"x_min":44,"x_max":781,"o":"m 670 121 q 552 21 633 52 q 417 0 497 0 q 360 2 396 0 q 200 49 273 10 q 95 146 125 88 q 45 457 53 228 q 44 566 44 496 q 77 839 44 768 q 195 937 112 917 q 229 941 214 941 q 319 876 291 941 q 334 824 328 856 q 340 714 340 786 q 336 570 340 661 q 334 448 334 488 q 345 321 334 370 q 404 273 356 273 l 408 273 q 479 323 458 275 q 522 568 509 391 q 561 830 536 758 q 664 927 593 927 q 722 903 695 926 q 764 831 750 877 q 781 701 781 781 q 762 439 781 595 q 670 121 727 229 m 580 688 q 593 736 584 696 q 608 793 604 781 q 642 851 620 830 q 654 873 654 863 q 654 878 654 876 q 645 879 649 879 q 593 803 612 879 q 578 711 578 749 q 580 688 578 699 m 99 725 q 111 763 101 728 q 136 823 119 799 q 178 863 150 844 q 211 888 206 881 q 193 892 202 892 q 149 874 172 892 q 102 787 111 844 q 100 753 102 783 l 99 725 m 417 227 q 536 317 500 227 q 562 456 562 384 l 544 397 q 454 252 514 291 q 418 238 419 238 l 417 227 z "},"V":{"ha":924,"x_min":7,"x_max":918,"o":"m 65 803 q 73 805 72 805 l 74 808 q 78 814 75 810 q 100 844 91 836 q 113 859 109 853 q 94 867 104 867 q 74 855 83 867 q 65 803 65 844 m 15 795 q 96 917 27 890 q 222 895 161 943 q 361 580 296 839 q 405 379 380 500 q 435 233 431 251 q 541 600 530 566 q 703 924 631 873 q 767 942 730 942 q 838 926 804 943 q 914 807 918 887 q 767 346 909 638 q 613 104 693 193 q 427 0 519 0 q 267 102 350 0 q 131 339 196 191 q 39 605 73 471 q 15 795 7 736 m 573 541 q 645 690 609 600 l 661 736 q 737 867 709 852 q 772 899 770 899 l 772 899 q 755 905 764 905 q 678 819 718 905 q 633 715 660 779 l 583 583 q 573 542 573 551 l 573 541 z "},"W":{"ha":1097,"x_min":7,"x_max":1090,"o":"m 423 342 q 441 505 428 418 q 483 621 455 578 q 538 664 508 659 q 593 638 568 668 q 631 545 619 606 q 643 477 636 531 q 656 385 652 406 q 675 321 665 334 q 702 341 686 304 q 754 648 722 397 q 816 897 782 863 q 897 942 848 928 q 988 945 944 954 q 1061 907 1035 937 q 1086 827 1090 876 q 981 376 1072 655 q 781 13 876 50 q 699 1 741 -3 q 622 31 653 5 q 565 134 583 63 q 547 196 548 196 q 539 184 543 196 q 536 170 538 180 q 531 151 533 159 q 481 54 516 94 q 270 41 397 -43 q 67 397 136 128 q 27 830 7 631 q 90 938 35 911 q 210 918 144 964 q 315 784 268 876 q 361 515 342 732 q 392 310 378 316 q 416 319 408 303 q 423 342 422 329 m 81 840 q 93 863 86 852 q 122 901 123 908 q 94 899 100 901 q 75 880 83 896 q 67 852 69 868 q 73 823 65 832 l 81 840 m 932 911 q 889 907 916 918 q 852 880 864 896 q 823 795 839 861 q 779 549 819 778 q 725 329 747 371 q 693 294 724 326 q 683 261 672 271 q 765 391 725 223 q 801 589 770 414 q 871 860 841 817 q 908 890 878 871 q 932 911 933 907 m 408 245 q 421 243 415 243 q 458 286 444 243 q 479 382 465 304 q 500 473 492 452 q 508 493 502 481 q 517 513 514 507 q 522 543 523 530 q 520 553 522 548 q 514 555 517 555 q 474 463 492 555 q 437 319 447 335 q 426 304 434 314 q 414 289 418 294 q 406 255 406 274 q 408 245 407 251 z "},"X":{"ha":837,"x_min":3,"x_max":867,"o":"m 24 787 q 69 684 31 739 q 212 524 129 602 q 277 452 275 464 q 133 286 275 465 q 78 38 3 123 q 304 75 155 -48 q 401 168 349 111 q 444 215 444 215 q 475 168 444 215 q 546 73 511 111 q 762 35 662 -51 q 736 289 862 121 q 637 403 703 334 q 586 465 587 456 q 634 523 585 474 q 734 630 702 591 q 787 901 867 793 q 564 843 707 1010 q 471 717 522 794 q 429 654 431 654 q 402 697 427 654 q 341 794 368 755 q 170 948 243 937 q 68 901 119 956 q 24 787 16 844 m 435 600 q 475 633 434 599 q 604 796 494 648 q 667 871 644 850 q 714 887 699 900 q 699 867 712 877 q 677 851 673 847 q 645 813 677 850 q 603 755 636 803 q 544 675 566 703 q 435 600 465 575 m 103 116 q 96 127 96 125 q 99 142 96 129 q 183 262 111 186 q 275 359 272 355 l 329 445 q 290 341 329 387 l 158 197 q 123 146 140 176 q 103 116 107 119 m 73 807 q 74 841 66 821 q 96 873 80 859 q 126 895 111 889 q 153 891 143 900 q 133 873 150 886 q 109 855 113 859 q 92 829 104 850 q 73 807 81 811 z "},"Y":{"ha":803,"x_min":7,"x_max":796,"o":"m 441 614 q 477 710 449 632 q 522 823 502 781 q 646 939 574 937 l 649 939 q 731 922 694 939 q 785 862 777 901 q 787 841 787 852 q 609 509 796 752 q 559 258 522 397 q 557 86 572 141 q 526 20 547 33 q 422 0 499 1 l 420 0 q 319 16 347 0 q 277 62 289 34 q 264 129 269 83 q 267 236 260 174 q 283 346 273 298 q 269 444 293 395 q 195 545 254 473 q 81 687 86 680 q 7 838 7 789 l 7 842 q 58 917 10 892 q 119 932 87 932 q 165 925 141 932 q 321 802 260 899 q 399 614 362 737 q 418 574 412 574 q 441 614 425 575 m 56 838 q 86 858 65 841 q 110 884 107 876 q 52 856 52 884 q 56 838 52 848 m 425 549 q 441 543 433 543 q 498 609 468 543 q 525 677 511 636 l 541 724 q 614 855 586 840 q 649 887 646 887 l 649 886 q 632 892 641 892 q 555 807 594 892 q 513 703 536 767 q 487 633 490 638 q 450 584 479 615 q 425 549 425 558 l 425 549 z "},"Z":{"ha":750,"x_min":20,"x_max":732,"o":"m 648 907 q 730 819 730 877 l 730 814 q 718 728 730 766 q 596 507 698 653 q 416 269 436 296 q 389 219 389 234 l 389 216 q 440 199 393 202 q 496 197 454 198 q 561 195 537 197 q 701 170 668 191 q 732 120 732 149 l 732 119 q 701 72 732 90 q 367 20 623 24 l 331 20 q 58 62 131 20 q 20 114 20 84 l 20 119 q 52 189 22 138 q 228 418 80 240 q 377 639 359 576 q 380 656 380 648 q 361 679 380 674 q 231 688 361 679 q 108 713 130 696 q 71 779 71 743 q 73 793 71 786 q 224 906 87 871 q 400 934 282 921 q 486 938 444 938 q 648 907 578 938 m 338 878 q 202 858 279 878 q 144 833 175 851 q 115 802 115 816 q 121 791 115 796 q 127 788 123 788 q 142 796 133 788 q 153 808 144 800 q 163 819 160 816 q 216 844 180 831 q 288 864 238 852 q 338 878 332 873 m 71 132 l 72 132 q 98 152 83 132 q 109 170 102 158 q 117 186 115 182 q 162 248 142 222 q 211 307 177 267 q 258 366 242 345 q 308 425 267 376 q 361 491 342 465 q 420 635 420 573 q 382 575 418 633 q 338 503 345 513 q 272 420 323 481 q 180 309 201 334 q 70 136 70 172 q 71 132 70 134 z "},"[":{"ha":594,"x_min":95,"x_max":499,"o":"m 308 318 q 360 194 319 241 q 437 136 387 163 q 493 98 484 111 q 499 77 499 89 q 483 32 499 58 q 425 -13 468 -11 q 411 -14 418 -14 q 275 22 342 -14 q 148 163 186 71 q 95 466 95 288 q 100 576 95 519 q 162 821 111 715 q 341 960 219 939 q 372 962 357 962 q 433 949 406 962 q 487 882 475 928 q 491 856 491 867 q 476 819 491 832 q 450 804 468 812 q 419 787 426 791 q 324 589 359 751 q 302 402 302 488 q 308 318 302 358 m 329 920 q 273 895 309 920 q 226 855 241 873 q 178 736 183 802 l 191 760 q 203 788 201 785 q 275 876 233 842 q 329 903 303 897 l 329 920 z "},"\\":{"ha":529,"x_min":34,"x_max":495,"o":"m 347 36 q 174 459 309 94 q 35 880 41 821 q 34 905 34 893 q 64 968 34 958 q 79 970 71 970 q 156 932 111 970 q 320 571 185 910 q 495 82 454 234 q 449 -31 492 -12 q 432 -34 441 -34 q 347 36 393 -34 z "},"]":{"ha":603,"x_min":95,"x_max":508,"o":"m 291 629 q 235 749 277 703 q 157 805 208 779 q 101 842 110 829 q 95 862 95 850 q 111 907 95 880 q 168 952 125 949 q 186 953 177 953 q 319 920 253 953 q 448 785 408 875 q 508 460 508 652 q 505 378 508 421 q 447 136 496 242 q 271 -3 393 19 q 236 -7 253 -7 q 178 5 205 -7 q 123 70 136 25 q 120 92 120 81 q 141 127 120 116 q 172 140 149 132 q 205 155 193 148 q 291 345 265 192 q 304 490 304 420 q 291 629 304 562 m 166 78 q 222 103 186 79 q 269 143 254 125 q 317 262 312 197 l 304 239 q 292 211 294 214 q 220 123 262 157 q 166 95 192 101 l 166 78 z "},"^":{"ha":599,"x_min":27,"x_max":572,"o":"m 274 1052 q 297 1059 283 1059 l 302 1059 q 326 1052 316 1059 q 361 1031 342 1045 q 572 716 572 760 l 572 705 q 553 649 572 662 q 537 644 546 644 q 490 670 517 644 q 300 856 312 837 q 197 743 267 804 q 145 700 177 726 q 110 670 117 677 q 62 644 82 644 q 47 649 54 644 q 27 705 27 662 l 27 716 q 237 1031 28 760 q 274 1052 256 1045 m 76 726 q 160 837 85 732 q 258 966 239 948 q 286 1000 283 992 q 245 983 260 1000 q 94 770 185 910 q 76 726 77 745 z "},"_":{"ha":582,"x_min":-106,"x_max":688,"o":"m 170 -147 q -83 -130 -75 -142 q -106 -72 -106 -101 q -106 -60 -106 -66 q -58 -4 -100 -23 q 170 7 -36 5 l 184 7 q 292 3 227 7 q 336 2 315 2 q 394 5 367 2 q 428 6 412 6 q 635 -5 609 6 q 688 -77 688 -28 l 688 -81 q 614 -142 687 -136 q 378 -151 439 -150 q 331 -152 355 -152 q 170 -147 258 -152 z "},"`":{"ha":429,"x_min":95,"x_max":334,"o":"m 334 779 q 303 726 328 742 q 273 716 290 716 q 242 724 258 716 q 165 795 223 732 q 100 880 107 860 q 95 909 95 896 q 117 956 95 937 q 148 968 132 968 q 197 945 171 968 q 279 862 229 921 q 334 781 334 800 l 334 779 z "},"a":{"ha":721,"x_min":27,"x_max":694,"o":"m 693 113 q 694 102 694 107 q 667 40 694 66 q 594 9 637 10 q 508 45 546 9 q 448 168 465 87 q 380 243 432 241 l 377 243 q 293 176 327 243 q 248 86 248 87 l 249 87 q 183 24 224 45 q 121 7 152 7 q 104 9 113 7 q 43 46 64 14 q 27 108 27 71 q 30 142 27 124 q 58 275 39 200 q 98 427 82 372 q 142 565 122 507 q 356 928 253 880 q 392 937 374 937 q 521 819 459 937 q 693 113 639 590 m 429 408 q 420 458 428 411 q 405 527 412 501 q 378 578 391 578 q 361 557 369 578 q 330 432 352 539 q 328 416 328 420 l 328 414 q 333 412 328 412 q 339 412 336 412 q 367 416 353 416 q 397 412 382 416 q 419 406 404 410 l 426 404 l 427 404 q 429 406 429 404 l 429 408 m 401 363 q 424 362 413 362 q 467 378 458 362 q 470 393 470 384 q 456 447 470 412 q 457 437 457 442 q 451 404 457 420 q 401 363 439 371 m 83 153 q 83 153 83 153 q 136 354 83 167 q 199 551 168 467 q 363 852 281 770 q 380 880 380 869 q 380 884 380 882 q 373 885 376 885 q 282 791 336 885 q 180 555 233 704 q 80 180 80 273 q 83 153 80 163 z "},"b":{"ha":701,"x_min":95,"x_max":674,"o":"m 98 887 q 118 918 103 911 q 260 941 184 941 q 372 929 313 941 q 592 827 506 901 q 674 673 674 756 q 673 651 674 662 q 504 442 658 541 q 437 413 489 432 q 445 414 440 414 q 536 387 468 414 q 648 274 637 346 q 650 254 650 264 q 604 151 650 202 q 454 56 550 92 q 258 20 357 20 q 118 38 189 20 q 98 57 103 42 q 95 458 97 62 l 95 618 q 98 887 95 867 m 319 560 q 321 532 319 538 q 340 519 324 522 q 366 518 353 518 q 427 528 401 518 q 465 575 465 543 q 463 595 465 585 q 362 654 446 654 l 349 654 q 317 626 321 653 l 317 596 q 319 560 319 569 m 419 279 q 374 328 414 309 q 349 335 359 335 q 317 304 326 335 q 315 281 315 293 q 315 269 315 275 q 328 243 319 250 q 349 240 336 240 q 378 243 361 240 q 419 278 419 251 l 419 279 m 131 838 q 201 886 157 875 q 180 892 193 892 q 150 886 168 892 q 133 870 136 882 q 131 838 132 867 m 400 488 q 422 486 412 486 q 482 502 461 486 q 504 547 504 517 q 500 574 504 559 q 400 488 476 507 m 375 212 q 414 204 397 204 q 448 215 434 204 q 462 243 462 226 q 450 279 462 259 q 432 233 448 248 q 375 212 416 220 z "},"c":{"ha":703,"x_min":47,"x_max":656,"o":"m 420 943 q 382 945 401 945 q 138 815 231 945 q 47 496 47 688 l 47 487 q 143 159 49 290 q 385 27 237 27 q 420 29 403 27 q 565 100 504 38 q 639 231 618 154 q 648 296 648 266 q 637 357 648 330 q 558 412 615 412 l 555 412 q 478 391 526 412 q 399 363 425 367 q 373 361 385 361 q 300 387 330 361 q 265 463 267 416 l 265 467 q 296 539 265 511 q 366 564 323 564 q 392 562 378 564 q 480 535 417 559 q 567 513 536 514 l 570 513 q 647 576 627 513 q 656 637 656 604 q 644 718 656 674 q 567 865 622 805 q 420 943 504 935 m 395 312 q 541 368 478 333 q 475 313 532 327 q 430 307 450 307 q 395 312 410 307 m 91 570 q 130 734 91 654 q 237 865 170 818 q 292 889 259 880 q 326 896 313 896 q 345 890 338 896 q 300 871 336 885 q 252 846 269 857 q 91 570 163 779 z "},"d":{"ha":814,"x_min":95,"x_max":787,"o":"m 95 178 q 96 203 95 191 q 132 865 107 768 q 281 960 156 960 q 475 913 378 960 q 549 867 513 894 q 733 650 670 780 q 787 440 783 544 l 787 428 q 736 260 787 344 q 598 114 686 178 q 418 24 513 52 q 304 7 357 7 q 239 14 270 7 q 134 70 172 29 q 95 172 95 112 l 95 178 m 308 345 q 307 338 307 341 q 347 334 326 334 q 406 342 375 334 q 486 385 455 356 q 513 435 513 410 q 513 445 513 440 q 448 506 505 480 q 358 532 389 532 q 322 499 323 532 q 308 345 320 401 m 159 753 q 172 796 164 760 q 189 850 181 834 q 226 890 205 880 q 261 908 258 905 q 240 914 252 914 q 218 910 230 914 q 176 872 188 900 q 159 753 159 835 m 381 288 q 498 323 446 288 q 557 420 557 361 q 522 380 551 418 q 434 313 491 338 q 381 288 382 290 z "},"e":{"ha":712,"x_min":68,"x_max":692,"o":"m 414 527 q 525 503 431 509 q 581 492 563 500 q 610 450 609 480 l 610 444 q 549 362 610 380 q 488 352 530 357 q 427 342 445 347 q 394 304 394 334 l 394 289 q 431 267 397 273 q 446 267 436 267 q 472 267 457 267 q 511 268 496 268 l 524 268 q 591 230 587 264 q 593 196 593 212 q 491 39 593 85 q 290 7 419 7 q 255 7 273 7 q 89 197 130 11 q 68 483 68 290 l 68 513 q 73 635 68 589 q 137 827 85 765 q 312 930 187 889 q 416 944 353 944 q 467 942 440 944 q 622 907 568 936 q 681 827 661 885 q 692 764 692 795 q 681 702 692 733 q 618 614 657 636 q 560 600 594 600 q 513 606 538 600 q 455 614 477 614 q 427 608 436 614 q 404 563 404 593 q 414 527 404 538 m 121 637 q 134 678 127 646 q 151 736 142 715 q 283 857 186 817 q 332 875 288 859 q 375 892 369 888 q 186 827 274 892 q 121 637 121 778 z "},"f":{"ha":710,"x_min":95,"x_max":705,"o":"m 97 487 q 95 616 95 559 l 95 643 q 136 905 98 844 q 312 972 178 972 q 362 970 336 972 q 608 908 509 959 q 682 820 657 873 q 705 715 705 771 q 703 688 705 701 q 647 579 692 603 q 591 570 621 570 q 532 572 565 570 q 450 577 483 577 q 402 572 418 577 q 344 483 345 556 q 372 408 344 416 q 401 406 379 406 q 437 403 424 406 q 505 364 486 389 q 516 334 516 350 q 513 318 516 326 q 480 277 505 295 q 423 256 454 260 q 351 251 372 251 q 336 254 336 251 q 336 255 336 254 q 322 151 328 247 q 283 26 316 56 q 216 0 252 0 q 170 10 195 0 q 98 126 103 38 q 96 195 96 155 q 97 266 96 227 q 100 371 100 368 l 97 487 m 150 772 q 164 817 156 781 q 188 869 172 850 q 233 903 208 893 q 273 920 266 916 q 251 923 262 923 q 219 918 236 923 q 172 890 187 910 q 150 772 150 861 z "},"g":{"ha":855,"x_min":47,"x_max":828,"o":"m 631 642 q 460 537 515 635 q 432 411 432 481 q 434 373 432 393 q 528 243 445 260 q 587 235 568 235 q 605 243 605 235 l 605 244 q 589 269 604 250 q 562 305 570 292 q 548 347 548 328 q 570 388 548 371 q 675 412 600 412 l 691 412 q 806 381 779 410 q 825 347 820 367 q 828 328 828 337 q 822 302 828 315 q 752 248 820 298 q 736 193 742 240 q 717 119 730 140 q 593 29 677 59 q 469 7 533 7 q 441 8 455 7 q 120 195 225 24 q 47 464 47 312 q 56 571 47 515 q 184 827 77 718 q 437 958 292 939 q 496 962 467 962 q 686 917 595 962 q 772 822 758 882 q 776 783 776 807 q 767 695 776 749 q 753 642 760 656 q 733 630 747 630 q 695 637 731 630 q 643 642 669 642 l 631 642 m 602 337 q 606 336 604 336 q 635 353 614 336 q 646 366 645 360 q 633 368 641 368 q 608 363 623 368 q 595 351 598 359 q 595 348 595 349 q 602 337 595 341 m 572 199 q 598 196 587 196 q 635 207 621 196 q 652 241 652 220 q 642 262 652 262 q 626 227 631 261 q 601 213 621 222 q 572 199 578 203 m 98 539 q 120 609 99 538 q 147 672 127 631 q 220 780 168 713 q 384 887 270 843 q 421 899 390 890 q 454 911 447 905 q 203 798 311 911 q 98 541 98 686 l 98 539 z "},"h":{"ha":865,"x_min":68,"x_max":804,"o":"m 112 172 q 87 425 97 248 q 71 688 73 663 q 68 742 68 717 q 105 894 68 839 q 196 945 140 945 q 215 944 205 945 q 332 863 283 934 q 387 676 387 786 q 385 608 387 669 q 385 585 385 595 q 387 542 385 559 q 465 467 399 473 l 467 467 q 515 576 507 467 q 518 666 518 608 q 520 735 519 721 q 576 869 528 817 q 676 923 620 918 q 688 924 682 924 q 768 886 737 924 q 804 768 804 843 q 803 747 804 758 q 728 130 775 292 q 602 14 694 14 q 591 14 597 14 q 528 107 547 18 q 517 178 522 134 q 509 234 511 224 q 449 290 498 279 q 431 292 439 292 q 373 244 392 292 q 351 177 365 224 q 330 112 338 133 q 238 40 300 43 l 225 40 q 140 66 159 40 q 112 172 130 81 m 117 775 q 130 808 123 785 q 144 842 138 832 q 170 870 150 851 q 191 895 189 887 q 176 898 183 898 q 155 892 165 898 q 131 864 140 882 q 117 775 117 835 m 555 635 q 608 813 565 759 q 650 851 627 837 q 675 870 671 864 l 673 870 q 569 777 597 870 q 554 669 554 728 q 555 635 554 653 m 557 573 q 558 545 558 558 q 550 479 558 503 q 488 430 535 439 q 469 428 479 428 q 442 431 456 428 q 418 438 418 437 q 482 414 449 414 q 490 414 486 414 q 563 515 563 420 q 557 573 563 541 z "},"i":{"ha":633,"x_min":54,"x_max":595,"o":"m 193 617 q 154 625 178 622 q 117 631 124 629 q 67 675 77 640 q 54 744 54 718 l 54 751 q 71 842 55 800 q 252 926 97 913 q 371 929 286 929 q 523 901 466 929 q 593 781 581 872 q 595 744 595 764 q 559 661 595 707 q 508 623 537 632 q 459 616 497 620 q 420 602 433 614 q 395 534 402 585 q 392 429 392 510 q 393 410 392 418 q 411 262 395 274 q 471 253 418 256 q 513 247 500 249 q 550 180 550 232 l 550 178 q 526 23 557 47 q 279 1 494 3 q 251 0 264 0 q 115 16 154 0 q 83 73 90 31 q 81 180 81 168 q 90 222 81 203 q 166 243 100 243 q 226 256 215 245 q 237 384 237 281 q 236 420 237 419 q 193 617 230 602 m 107 784 q 125 810 111 774 q 155 842 136 831 q 201 861 169 850 q 237 875 232 871 q 136 857 169 875 q 105 821 115 846 q 100 799 100 809 q 107 784 100 787 m 124 195 q 123 189 123 192 q 165 174 123 174 l 168 174 q 210 185 191 176 q 265 237 249 204 q 275 279 275 257 q 267 321 275 299 q 267 304 267 320 q 262 274 266 288 q 208 212 252 229 q 168 208 199 208 q 124 195 125 208 m 359 1206 q 414 1151 405 1200 q 416 1127 416 1139 q 401 1067 416 1097 q 355 1025 387 1038 q 317 1017 336 1017 q 294 1020 305 1017 q 245 1053 262 1027 q 233 1097 233 1072 q 236 1123 233 1109 q 281 1189 244 1165 q 342 1208 309 1208 q 359 1206 350 1208 m 281 1109 q 321 1143 292 1111 q 329 1151 328 1151 q 328 1156 328 1151 q 314 1159 321 1159 q 289 1147 300 1159 q 278 1124 278 1137 q 281 1109 278 1117 z "},"j":{"ha":608,"x_min":27,"x_max":581,"o":"m 185 574 q 112 578 115 578 q 56 623 67 587 q 32 738 41 670 q 27 802 27 775 q 35 853 27 836 q 252 937 65 924 q 334 940 296 940 q 511 913 446 940 q 578 777 566 890 q 581 719 581 746 q 565 612 581 658 q 491 568 551 572 q 444 555 448 562 q 443 549 443 554 q 435 362 443 504 q 426 231 431 286 q 412 124 426 169 q 317 34 394 62 q 189 14 261 14 l 172 14 q 45 95 59 17 q 44 113 44 104 q 52 153 44 133 q 81 189 63 180 q 152 205 97 197 q 220 229 205 213 q 243 326 243 253 q 242 359 243 341 q 219 543 237 473 q 209 566 212 562 q 185 574 203 573 m 78 806 q 94 824 87 814 q 104 838 102 836 q 178 871 118 853 l 221 884 q 79 850 106 884 q 71 827 71 838 q 78 806 71 817 m 83 105 q 84 103 83 105 q 88 109 85 100 q 94 127 90 120 q 152 150 106 149 l 162 150 q 246 175 212 150 q 284 257 284 203 q 281 289 284 272 l 281 281 q 269 224 281 245 q 211 181 254 201 q 147 169 186 169 q 99 163 109 168 q 81 134 85 155 q 81 123 81 129 q 83 105 81 109 z "},"k":{"ha":783,"x_min":60,"x_max":776,"o":"m 725 900 q 746 756 768 836 q 661 613 726 687 q 387 427 533 470 q 603 325 526 393 q 724 189 692 247 q 701 41 776 97 q 561 24 641 -3 q 433 105 500 45 q 345 212 393 143 q 330 135 340 195 q 309 60 323 92 q 261 11 293 26 q 198 1 233 -3 q 138 24 164 5 q 101 77 110 45 q 71 359 81 150 q 81 746 60 595 q 155 912 96 857 q 273 950 208 962 q 374 857 357 935 q 378 648 380 825 q 398 681 382 654 q 430 734 418 715 q 519 861 478 812 q 725 900 648 1012 m 623 888 q 529 818 591 898 q 484 753 511 794 q 451 707 457 714 q 416 675 453 709 q 400 644 392 653 q 472 705 416 627 q 566 829 551 815 q 623 888 623 887 m 130 783 q 155 823 133 786 q 220 890 175 858 q 166 871 197 907 q 130 783 136 835 z "},"l":{"ha":649,"x_min":68,"x_max":621,"o":"m 393 220 q 408 219 398 219 q 425 220 415 219 q 505 222 472 222 q 578 214 565 222 q 618 158 612 195 q 617 113 621 136 q 550 24 604 51 q 437 7 515 7 q 343 18 396 7 q 177 104 223 44 q 95 368 122 174 q 73 581 83 450 q 68 703 68 649 q 87 857 68 812 q 155 924 106 899 q 252 945 199 945 l 256 945 q 425 823 385 944 q 444 682 444 767 q 436 560 444 627 q 391 329 430 511 q 380 247 380 271 l 380 244 q 390 220 380 220 q 393 220 391 220 m 115 766 q 130 804 121 775 q 154 846 139 829 q 193 873 166 860 q 229 893 222 887 q 212 897 222 897 l 206 897 q 140 868 165 892 q 115 766 115 843 z "},"m":{"ha":1067,"x_min":27,"x_max":1040,"o":"m 63 68 q 27 195 27 106 q 28 228 27 210 q 53 376 30 253 q 82 557 76 521 q 113 714 99 651 q 136 805 124 762 q 158 869 147 845 q 239 942 186 932 q 254 943 247 943 q 336 897 300 943 q 429 720 378 843 q 519 509 499 548 q 545 476 536 476 q 549 478 547 476 q 564 532 551 480 q 584 616 568 546 q 609 716 598 677 q 686 881 644 840 q 800 931 736 931 l 801 931 q 899 860 871 930 q 985 496 931 776 q 1040 125 1040 217 l 1040 121 q 1001 48 1039 78 q 920 10 967 22 q 865 3 892 3 q 835 4 850 3 q 759 58 787 9 q 736 165 745 83 q 723 257 727 231 q 716 283 719 283 q 695 235 713 281 q 543 84 636 84 q 533 85 538 84 q 380 262 438 93 q 370 307 373 306 q 359 262 366 307 q 330 113 336 128 q 330 113 330 113 q 216 9 300 33 q 192 9 204 9 q 63 68 114 16 m 556 429 q 567 427 562 427 q 629 539 605 427 q 644 617 632 553 q 662 704 654 671 q 735 848 688 807 q 763 862 739 851 q 783 878 782 870 q 767 883 776 883 q 735 872 754 883 q 686 819 704 854 q 631 627 663 774 q 585 467 602 490 q 562 448 579 460 q 555 435 555 444 q 556 429 555 432 m 182 766 q 195 798 188 775 q 210 833 203 823 q 235 861 215 842 q 256 885 254 878 q 241 888 248 888 q 220 882 231 888 q 196 854 205 873 q 182 766 182 825 z "},"n":{"ha":878,"x_min":95,"x_max":823,"o":"m 334 59 q 304 14 329 30 q 235 0 283 0 l 232 0 q 133 17 155 1 q 104 62 109 34 q 95 297 95 127 q 96 414 95 351 q 99 766 99 677 l 99 814 q 117 893 99 868 q 161 937 130 920 q 238 945 204 952 q 298 914 272 939 q 359 831 323 890 q 521 453 452 679 q 554 376 545 376 l 555 376 q 582 474 562 380 q 595 709 592 522 q 618 897 599 869 q 716 945 652 945 q 731 945 724 945 q 816 862 808 937 q 823 699 823 789 q 812 441 823 584 q 709 42 787 111 q 616 6 671 9 l 608 6 q 521 37 557 6 q 379 224 424 121 q 361 271 370 245 q 351 296 351 295 q 348 300 349 300 q 347 298 347 300 q 345 270 346 294 q 334 59 341 104 m 650 822 q 654 828 652 825 q 671 861 669 858 q 688 876 675 867 q 707 890 702 884 q 696 896 700 895 q 686 897 690 897 q 651 873 665 897 q 642 845 642 859 q 650 822 642 833 m 557 351 q 580 344 570 344 q 621 401 610 344 q 634 481 634 442 q 632 509 634 495 q 623 471 629 500 q 610 422 616 439 q 557 351 591 358 m 127 748 q 172 863 137 835 q 180 874 178 869 q 166 876 172 876 q 134 854 145 876 q 123 796 123 830 q 127 748 123 774 z "},"o":{"ha":863,"x_min":47,"x_max":816,"o":"m 649 886 q 770 722 726 827 q 816 505 812 623 l 816 489 q 781 282 816 380 q 666 102 742 171 q 440 14 573 18 l 427 14 q 217 100 296 14 q 54 447 81 248 q 47 532 47 490 q 140 814 47 691 q 384 939 216 916 q 454 943 420 943 q 649 886 572 943 m 322 494 q 296 410 296 450 q 345 307 296 355 q 415 272 379 272 q 429 273 422 272 q 498 334 473 281 q 521 427 521 382 q 511 483 521 456 q 422 566 483 565 q 322 494 364 566 m 430 224 q 531 280 492 224 q 566 397 566 330 q 541 343 564 395 q 473 259 517 291 q 430 224 431 229 m 99 587 q 119 637 109 601 q 141 705 132 683 q 286 852 180 798 q 348 873 302 860 q 399 892 390 886 q 181 808 263 892 q 99 587 99 724 z "},"p":{"ha":846,"x_min":95,"x_max":802,"o":"m 309 226 q 300 184 300 213 q 302 146 300 168 q 309 73 309 93 q 309 64 309 67 q 224 14 300 17 q 214 13 218 13 q 132 56 145 14 q 96 481 103 143 q 95 542 95 513 q 146 876 95 793 q 263 951 181 933 q 338 958 298 958 q 432 949 382 958 q 719 817 634 915 q 802 616 802 722 q 760 461 802 541 q 563 271 688 323 q 410 245 511 250 q 309 226 323 241 m 302 435 q 346 430 324 430 q 395 436 370 430 q 477 479 445 448 q 511 528 506 507 q 512 536 512 532 q 489 578 512 557 q 403 609 454 609 q 378 608 391 609 q 286 551 311 600 q 271 481 271 523 l 271 478 q 274 440 273 441 q 282 439 275 439 q 302 435 292 438 m 148 718 q 158 747 153 726 q 166 781 165 775 q 195 839 180 819 q 239 880 212 864 q 271 893 248 885 q 299 907 292 899 q 279 909 290 909 q 236 901 260 909 q 180 861 197 888 q 148 718 148 808 m 377 385 q 496 422 446 385 q 553 524 553 465 q 520 481 550 523 q 433 410 490 439 q 404 399 429 408 q 377 385 385 391 z "},"q":{"ha":859,"x_min":54,"x_max":819,"o":"m 668 95 q 707 3 705 38 l 707 -1 q 683 -60 707 -32 q 627 -92 657 -90 l 621 -92 q 538 -21 565 -92 q 528 -7 534 -12 q 510 1 522 -2 q 433 12 486 8 q 353 22 375 17 q 172 125 248 44 q 68 324 96 205 q 54 439 54 381 q 71 566 54 502 q 182 785 102 687 q 450 922 291 915 q 467 922 458 922 q 718 793 619 922 q 819 479 819 664 q 817 428 819 454 q 668 95 802 208 m 523 515 q 463 565 500 545 q 411 584 436 581 q 391 585 401 585 q 310 548 351 583 q 258 470 269 513 q 255 452 256 461 q 286 325 246 387 q 399 236 329 257 q 419 231 410 233 q 452 248 450 227 q 452 260 453 253 q 447 300 446 294 q 485 329 452 328 l 489 328 q 513 316 501 327 q 534 302 528 302 l 535 301 q 559 332 549 301 q 566 363 564 347 q 523 515 577 443 m 410 188 q 429 180 420 182 q 475 198 452 178 q 490 229 486 208 q 505 255 494 248 q 529 259 511 258 q 560 264 549 260 q 610 338 601 278 q 585 312 591 330 q 582 298 584 308 q 580 286 581 290 q 558 272 575 273 q 538 274 550 272 q 485 285 517 277 q 482 249 484 264 q 466 206 477 214 q 444 199 460 202 q 410 188 425 195 m 104 490 q 132 574 104 490 q 215 731 158 654 q 347 836 264 798 q 403 859 368 846 q 432 871 428 868 q 196 748 294 871 q 104 490 104 631 z "},"r":{"ha":723,"x_min":95,"x_max":687,"o":"m 285 24 q 199 3 260 3 q 123 35 135 3 q 96 445 101 96 q 95 569 95 513 q 113 848 95 795 q 250 942 140 928 q 297 945 273 945 q 429 923 361 945 q 623 747 547 885 q 687 519 687 633 q 686 488 687 503 q 615 326 678 395 q 563 284 585 296 q 511 259 541 272 q 492 248 495 252 q 492 245 492 247 q 501 232 492 240 q 562 169 517 218 q 625 105 607 121 q 656 58 656 78 q 652 44 656 50 q 534 7 629 9 l 527 7 q 427 31 458 7 q 345 164 427 34 q 314 198 326 198 q 312 197 313 198 q 304 166 304 195 l 304 155 q 304 114 304 146 q 285 24 304 42 m 292 536 l 292 531 q 332 471 292 471 q 362 477 345 471 q 439 556 437 504 l 439 557 q 402 605 439 589 q 336 617 374 616 l 334 617 q 297 595 304 617 q 292 536 294 585 m 147 789 q 161 808 157 793 q 189 854 165 830 q 239 882 203 867 q 252 887 250 887 l 254 896 q 172 872 195 896 q 147 789 147 848 m 347 425 q 452 467 408 423 q 484 524 484 498 q 479 542 484 533 q 455 499 473 522 q 385 441 425 465 q 347 425 363 429 z "},"s":{"ha":716,"x_min":43,"x_max":679,"o":"m 648 571 q 500 553 629 556 q 367 536 376 551 q 364 528 364 532 q 389 487 364 512 q 456 425 398 477 q 541 344 509 377 q 631 186 631 248 q 629 170 631 177 q 560 59 615 102 q 438 13 509 18 q 340 9 384 9 q 73 37 123 9 q 43 104 43 53 q 65 191 43 151 q 174 214 78 214 l 296 214 q 353 218 335 214 q 385 245 384 224 l 385 246 q 323 313 385 271 q 273 345 303 326 q 237 366 241 363 q 54 584 83 467 q 47 637 47 610 q 153 843 47 741 q 373 935 217 905 q 479 945 433 945 q 599 913 559 945 q 677 725 667 859 q 679 680 679 701 q 648 571 679 595 m 92 123 q 105 149 100 143 q 138 162 115 161 q 115 170 125 170 q 98 164 106 170 q 87 142 87 156 q 92 123 87 134 m 328 176 q 351 170 337 170 q 389 180 367 170 q 423 227 423 195 q 420 248 423 237 q 395 202 416 224 q 336 176 370 176 q 328 176 332 176 m 100 657 q 121 696 109 667 q 149 749 136 731 q 311 859 196 819 q 370 874 316 861 q 417 891 411 886 q 403 892 410 892 q 309 876 370 892 q 198 832 236 856 q 118 745 154 804 q 94 679 94 704 q 100 657 94 665 z "},"t":{"ha":690,"x_min":14,"x_max":677,"o":"m 214 480 q 140 544 199 540 q 66 549 77 549 l 64 549 q 26 602 35 560 q 14 705 16 642 q 14 747 14 727 q 24 859 14 835 q 127 927 43 905 q 276 943 190 943 q 308 943 292 943 q 614 872 543 937 q 671 744 656 834 q 677 629 677 707 q 665 589 677 616 l 665 589 l 664 588 q 530 517 638 530 q 477 503 490 513 q 459 448 460 489 q 425 46 452 111 q 340 1 408 5 q 332 0 336 0 q 252 42 269 0 l 252 43 q 237 109 243 64 q 225 213 229 155 q 222 374 224 224 q 214 480 220 460 m 59 742 q 117 863 60 836 q 199 890 158 881 q 184 891 191 891 q 99 876 142 891 q 54 793 54 861 q 59 742 54 770 m 258 462 q 254 363 254 410 q 269 173 254 240 q 258 462 258 449 z "},"u":{"ha":825,"x_min":44,"x_max":781,"o":"m 670 121 q 552 21 633 52 q 417 0 497 0 q 360 2 396 0 q 200 49 273 10 q 95 146 125 88 q 45 457 53 228 q 44 566 44 496 q 77 839 44 768 q 195 937 112 917 q 229 941 214 941 q 319 876 291 941 q 334 824 328 856 q 340 714 340 786 q 336 570 340 661 q 334 448 334 488 q 345 321 334 370 q 404 273 356 273 l 408 273 q 479 323 458 275 q 522 568 509 391 q 561 830 536 758 q 664 927 593 927 q 722 903 695 926 q 764 831 750 877 q 781 701 781 781 q 762 439 781 595 q 670 121 727 229 m 580 688 q 593 736 584 696 q 608 793 604 781 q 642 851 620 830 q 654 873 654 863 q 654 878 654 876 q 645 879 649 879 q 593 803 612 879 q 578 711 578 749 q 580 688 578 699 m 99 725 q 111 763 101 728 q 136 823 119 799 q 178 863 150 844 q 211 888 206 881 q 193 892 202 892 q 149 874 172 892 q 102 787 111 844 q 100 753 102 783 l 99 725 m 417 227 q 536 317 500 227 q 562 456 562 384 l 544 397 q 454 252 514 291 q 418 238 419 238 l 417 227 z "},"v":{"ha":924,"x_min":7,"x_max":918,"o":"m 65 803 q 73 805 72 805 l 74 808 q 78 814 75 810 q 100 844 91 836 q 113 859 109 853 q 94 867 104 867 q 74 855 83 867 q 65 803 65 844 m 15 795 q 96 917 27 890 q 222 895 161 943 q 361 580 296 839 q 405 379 380 500 q 435 233 431 251 q 541 600 530 566 q 703 924 631 873 q 767 942 730 942 q 838 926 804 943 q 914 807 918 887 q 767 346 909 638 q 613 104 693 193 q 427 0 519 0 q 267 102 350 0 q 131 339 196 191 q 39 605 73 471 q 15 795 7 736 m 573 541 q 645 690 609 600 l 661 736 q 737 867 709 852 q 772 899 770 899 l 772 899 q 755 905 764 905 q 678 819 718 905 q 633 715 660 779 l 583 583 q 573 542 573 551 l 573 541 z "},"w":{"ha":1097,"x_min":7,"x_max":1090,"o":"m 423 342 q 441 505 428 418 q 483 621 455 578 q 538 664 508 659 q 593 638 568 668 q 631 545 619 606 q 643 477 636 531 q 656 385 652 406 q 675 321 665 334 q 702 341 686 304 q 754 648 722 397 q 816 897 782 863 q 897 942 848 928 q 988 945 944 954 q 1061 907 1035 937 q 1086 827 1090 876 q 981 376 1072 655 q 781 13 876 50 q 699 1 741 -3 q 622 31 653 5 q 565 134 583 63 q 547 196 548 196 q 539 184 543 196 q 536 170 538 180 q 531 151 533 159 q 481 54 516 94 q 270 41 397 -43 q 67 397 136 128 q 27 830 7 631 q 90 938 35 911 q 210 918 144 964 q 315 784 268 876 q 361 515 342 732 q 392 310 378 316 q 416 319 408 303 q 423 342 422 329 m 81 840 q 93 863 86 852 q 122 901 123 908 q 94 899 100 901 q 75 880 83 896 q 67 852 69 868 q 73 823 65 832 l 81 840 m 932 911 q 889 907 916 918 q 852 880 864 896 q 823 795 839 861 q 779 549 819 778 q 725 329 747 371 q 693 294 724 326 q 683 261 672 271 q 765 391 725 223 q 801 589 770 414 q 871 860 841 817 q 908 890 878 871 q 932 911 933 907 m 408 245 q 421 243 415 243 q 458 286 444 243 q 479 382 465 304 q 500 473 492 452 q 508 493 502 481 q 517 513 514 507 q 522 543 523 530 q 520 553 522 548 q 514 555 517 555 q 474 463 492 555 q 437 319 447 335 q 426 304 434 314 q 414 289 418 294 q 406 255 406 274 q 408 245 407 251 z "},"x":{"ha":837,"x_min":3,"x_max":867,"o":"m 24 787 q 69 684 31 739 q 212 524 129 602 q 277 452 275 464 q 133 286 275 465 q 78 38 3 123 q 304 75 155 -48 q 401 168 349 111 q 444 215 444 215 q 475 168 444 215 q 546 73 511 111 q 762 35 662 -51 q 736 289 862 121 q 637 403 703 334 q 586 465 587 456 q 634 523 585 474 q 734 630 702 591 q 787 901 867 793 q 564 843 707 1010 q 471 717 522 794 q 429 654 431 654 q 402 697 427 654 q 341 794 368 755 q 170 948 243 937 q 68 901 119 956 q 24 787 16 844 m 435 600 q 475 633 434 599 q 604 796 494 648 q 667 871 644 850 q 714 887 699 900 q 699 867 712 877 q 677 851 673 847 q 645 813 677 850 q 603 755 636 803 q 544 675 566 703 q 435 600 465 575 m 103 116 q 96 127 96 125 q 99 142 96 129 q 183 262 111 186 q 275 359 272 355 l 329 445 q 290 341 329 387 l 158 197 q 123 146 140 176 q 103 116 107 119 m 73 807 q 74 841 66 821 q 96 873 80 859 q 126 895 111 889 q 153 891 143 900 q 133 873 150 886 q 109 855 113 859 q 92 829 104 850 q 73 807 81 811 z "},"y":{"ha":803,"x_min":7,"x_max":796,"o":"m 441 614 q 477 710 449 632 q 522 823 502 781 q 646 939 574 937 l 649 939 q 731 922 694 939 q 785 862 777 901 q 787 841 787 852 q 609 509 796 752 q 559 258 522 397 q 557 86 572 141 q 526 20 547 33 q 422 0 499 1 l 420 0 q 319 16 347 0 q 277 62 289 34 q 264 129 269 83 q 267 236 260 174 q 283 346 273 298 q 269 444 293 395 q 195 545 254 473 q 81 687 86 680 q 7 838 7 789 l 7 842 q 58 917 10 892 q 119 932 87 932 q 165 925 141 932 q 321 802 260 899 q 399 614 362 737 q 418 574 412 574 q 441 614 425 575 m 56 838 q 86 858 65 841 q 110 884 107 876 q 52 856 52 884 q 56 838 52 848 m 425 549 q 441 543 433 543 q 498 609 468 543 q 525 677 511 636 l 541 724 q 614 855 586 840 q 649 887 646 887 l 649 886 q 632 892 641 892 q 555 807 594 892 q 513 703 536 767 q 487 633 490 638 q 450 584 479 615 q 425 549 425 558 l 425 549 z "},"z":{"ha":750,"x_min":20,"x_max":732,"o":"m 648 907 q 730 819 730 877 l 730 814 q 718 728 730 766 q 596 507 698 653 q 416 269 436 296 q 389 219 389 234 l 389 216 q 440 199 393 202 q 496 197 454 198 q 561 195 537 197 q 701 170 668 191 q 732 120 732 149 l 732 119 q 701 72 732 90 q 367 20 623 24 l 331 20 q 58 62 131 20 q 20 114 20 84 l 20 119 q 52 189 22 138 q 228 418 80 240 q 377 639 359 576 q 380 656 380 648 q 361 679 380 674 q 231 688 361 679 q 108 713 130 696 q 71 779 71 743 q 73 793 71 786 q 224 906 87 871 q 400 934 282 921 q 486 938 444 938 q 648 907 578 938 m 338 878 q 202 858 279 878 q 144 833 175 851 q 115 802 115 816 q 121 791 115 796 q 127 788 123 788 q 142 796 133 788 q 153 808 144 800 q 163 819 160 816 q 216 844 180 831 q 288 864 238 852 q 338 878 332 873 m 71 132 l 72 132 q 98 152 83 132 q 109 170 102 158 q 117 186 115 182 q 162 248 142 222 q 211 307 177 267 q 258 366 242 345 q 308 425 267 376 q 361 491 342 465 q 420 635 420 573 q 382 575 418 633 q 338 503 345 513 q 272 420 323 481 q 180 309 201 334 q 70 136 70 172 q 71 132 70 134 z "},"{":{"ha":594,"x_min":95,"x_max":499,"o":"m 308 332 q 360 208 319 255 q 437 150 387 177 q 493 111 484 124 q 499 91 499 102 q 483 45 499 72 q 425 1 468 3 q 411 0 418 0 q 275 36 342 0 q 148 176 186 84 q 95 479 95 302 q 100 590 95 532 q 162 835 111 728 q 341 973 219 953 q 372 976 357 976 q 433 962 406 976 q 487 896 475 942 q 491 869 491 881 q 476 833 491 846 q 450 817 468 826 q 419 800 426 805 q 324 603 359 765 q 302 416 302 501 q 308 332 302 372 m 329 934 q 273 909 309 933 q 226 869 241 887 q 178 750 183 816 l 191 773 q 203 802 201 799 q 275 889 233 855 q 329 917 303 911 l 329 934 z "},"|":{"ha":437,"x_min":95,"x_max":342,"o":"m 98 807 q 136 889 106 858 q 203 924 164 918 q 220 925 212 925 q 275 911 249 925 q 330 854 311 892 q 342 657 342 780 q 333 401 342 549 q 294 70 315 110 q 225 0 262 3 l 222 0 q 161 69 184 0 q 115 430 142 127 q 95 750 95 653 q 98 807 95 788 m 142 805 q 156 851 142 833 q 199 871 172 871 l 199 871 q 170 838 197 871 q 142 805 143 806 z "},"}":{"ha":603,"x_min":95,"x_max":508,"o":"m 291 642 q 235 763 277 717 q 157 819 208 792 q 101 855 110 842 q 95 876 95 864 q 111 920 95 894 q 168 966 125 962 q 186 966 177 966 q 319 933 253 966 q 448 798 408 888 q 508 474 508 666 q 505 392 508 435 q 447 150 496 256 q 271 10 393 33 q 236 7 253 7 q 178 19 205 7 q 123 83 136 39 q 120 105 120 95 q 141 141 120 130 q 172 153 149 145 q 205 169 193 161 q 291 359 265 205 q 304 504 304 433 q 291 642 304 575 m 166 92 q 222 117 186 92 q 269 157 254 138 q 317 276 312 210 l 304 253 q 292 224 294 227 q 220 136 262 170 q 166 109 192 115 l 166 92 z "},"~":{"ha":652,"x_min":95,"x_max":557,"o":"m 191 615 q 235 623 214 623 q 260 621 248 623 q 316 579 297 612 q 395 538 339 538 q 461 576 428 538 q 517 609 490 609 l 522 609 q 555 578 549 606 q 557 562 557 570 q 545 515 557 540 q 390 421 503 426 q 359 420 372 420 q 316 424 327 420 q 259 477 286 433 q 229 497 248 497 l 224 497 q 184 473 203 494 q 148 449 172 458 q 123 444 134 444 q 115 445 119 444 q 95 473 97 450 l 95 477 q 106 524 95 498 q 191 615 136 594 z "},"¡":{"ha":496,"x_min":109,"x_max":404,"o":"m 400 -68 q 358 -146 391 -117 q 285 -180 327 -174 q 264 -181 274 -181 q 205 -168 234 -181 q 145 -113 166 -151 q 109 90 109 -48 q 114 208 109 144 q 186 524 133 427 q 260 591 220 589 l 264 591 q 330 525 305 591 q 381 237 352 468 q 404 -19 404 62 q 400 -68 404 -51 m 254 826 q 274 830 264 830 q 314 808 296 830 q 338 744 337 782 l 338 741 q 321 696 338 717 q 281 669 305 676 q 262 666 271 666 q 234 673 247 666 q 199 719 210 686 q 195 745 195 732 q 205 783 195 764 q 254 826 220 814 m 291 744 q 273 736 277 743 q 270 715 271 731 q 294 730 294 715 q 291 744 294 736 m 361 -44 q 350 -53 355 -47 l 343 -67 q 308 -109 332 -92 q 278 -132 280 -127 q 298 -136 288 -136 q 330 -123 315 -136 q 361 -44 361 -100 z "},"¢":{"ha":675,"x_min":52,"x_max":627,"o":"m 249 338 l 336 684 q 237 627 280 680 q 191 487 191 563 q 241 347 191 414 q 249 338 247 341 m 438 642 l 348 290 l 353 290 q 500 398 442 290 l 627 370 q 526 214 589 267 q 345 157 449 157 q 315 159 322 157 l 262 -50 l 149 -50 l 212 196 q 144 254 181 214 q 52 487 52 354 q 138 719 52 622 q 345 816 222 816 q 370 815 366 816 l 420 1008 l 532 1008 l 475 785 q 515 760 490 778 q 620 601 582 705 l 485 577 q 438 642 463 618 z "},"£":{"ha":828,"x_min":68,"x_max":760,"o":"m 583 718 q 532 795 570 764 q 441 826 492 826 q 336 783 380 826 q 293 677 293 739 l 293 564 l 488 564 q 547 539 522 564 q 570 481 570 515 l 570 479 q 547 422 570 446 q 488 397 522 397 l 293 397 l 293 166 l 677 166 q 736 142 711 166 q 760 83 760 117 l 760 82 q 736 24 760 47 q 677 0 711 0 l 209 0 q 151 24 176 0 q 127 82 127 47 l 127 397 l 127 397 q 85 415 103 397 q 68 458 68 433 l 68 503 q 85 546 68 528 q 127 564 103 564 l 127 564 l 127 677 q 219 899 127 808 q 441 991 311 991 q 633 926 548 991 q 744 761 716 863 q 747 738 747 749 q 730 690 747 712 q 665 657 706 657 l 663 657 q 583 718 600 657 z "},"¤":{"ha":708,"x_min":26,"x_max":682,"o":"m 354 671 q 247 626 292 671 q 203 519 203 582 q 247 412 203 456 q 354 368 292 368 q 461 412 416 368 q 505 519 505 456 q 461 626 505 582 q 354 671 416 671 m 116 662 l 26 752 l 120 846 l 210 757 q 354 796 267 796 q 498 757 442 796 l 588 846 l 682 753 l 592 663 q 631 519 631 606 q 592 375 631 431 l 682 285 l 588 191 l 498 281 q 354 241 441 241 q 210 281 267 241 l 121 191 l 26 285 l 117 375 q 77 519 77 432 q 116 662 77 606 z "},"¥":{"ha":758,"x_min":1,"x_max":758,"o":"m 446 138 l 446 0 l 300 0 l 300 138 l 126 138 l 126 251 l 300 251 l 300 320 l 126 320 l 126 439 l 283 439 l 1 997 l 156 997 l 374 545 l 608 997 l 758 997 l 464 439 l 631 439 l 631 320 l 446 320 l 446 251 l 631 251 l 631 138 l 446 138 z "},"¦":{"ha":368,"x_min":102,"x_max":267,"o":"m 102 1013 l 267 1013 l 267 515 l 102 515 l 102 1013 m 102 299 l 267 299 l 267 -178 l 102 -178 l 102 299 z "},"§":{"ha":690,"x_min":68,"x_max":622,"o":"m 524 268 q 589 208 558 251 q 615 153 607 183 q 622 96 622 126 l 622 85 q 570 -47 620 11 q 454 -122 526 -98 q 357 -140 406 -140 l 348 -140 q 68 104 115 -133 l 191 125 q 284 -12 214 22 q 345 -26 309 -23 q 359 -26 352 -26 q 463 14 420 -26 q 492 62 484 35 q 496 90 496 77 q 484 132 496 114 q 419 181 466 161 q 331 211 379 197 q 157 290 204 248 q 95 441 95 346 q 180 621 95 558 q 190 628 190 627 q 189 629 190 629 q 184 627 189 629 q 157 649 178 630 q 95 800 95 705 q 180 979 95 916 q 294 1025 227 1014 q 348 1029 320 1029 l 360 1029 q 527 976 465 1026 q 612 806 591 924 l 485 787 q 409 904 467 876 q 350 916 385 916 q 264 889 301 916 q 225 815 227 861 l 225 812 q 232 770 225 789 q 252 738 238 751 q 306 704 275 715 q 400 677 338 694 q 589 567 540 635 q 615 511 607 542 q 622 454 622 485 l 622 443 q 570 312 620 370 q 524 268 539 276 m 352 332 l 361 332 q 463 372 420 332 q 492 420 484 393 q 496 449 496 435 q 484 490 496 472 q 419 540 466 519 q 377 555 398 548 q 350 557 366 557 q 264 531 301 557 q 225 457 227 503 l 225 454 q 232 411 225 430 q 252 380 238 393 q 304 347 275 356 q 352 332 324 340 z "},"¨":{"ha":539,"x_min":47,"x_max":492,"o":"m 173 881 q 229 825 219 874 q 231 802 231 813 q 216 741 231 771 q 169 699 201 712 q 132 692 151 692 q 108 694 119 692 q 60 727 76 702 q 47 771 47 746 q 50 798 47 784 q 95 863 58 840 q 156 882 123 882 q 173 881 164 882 m 96 784 q 136 818 106 785 q 143 825 142 825 q 142 831 142 825 q 128 833 135 833 q 103 822 115 833 q 92 799 92 811 q 96 784 92 791 m 434 881 q 490 825 480 874 q 492 802 492 813 q 477 741 492 771 q 430 699 462 712 q 393 692 412 692 q 369 694 380 692 q 321 727 337 702 q 309 771 309 746 q 311 798 309 784 q 356 863 319 840 q 417 882 384 882 q 434 881 425 882 m 356 807 q 406 825 366 805 q 415 829 414 829 q 416 835 414 829 q 404 842 410 840 q 376 840 391 847 q 358 822 362 833 q 356 807 355 815 z "},"©":{"ha":1246,"x_min":75,"x_max":1167,"o":"m 804 637 q 753 734 791 698 q 631 782 704 782 q 495 724 551 782 q 439 584 439 667 l 439 463 q 495 324 439 381 q 631 265 551 265 q 751 311 702 265 q 808 433 799 356 l 903 424 q 812 242 887 311 q 631 171 736 171 q 424 258 509 171 q 340 467 340 345 l 340 580 q 424 789 340 703 q 631 877 509 877 q 812 805 736 877 q 896 655 876 747 l 804 637 m 621 1060 q 890 989 759 1060 q 1094 787 1021 919 q 1167 513 1167 656 q 1095 242 1167 372 q 893 39 1023 111 q 621 -33 763 -33 q 350 39 479 -33 q 147 242 220 111 q 75 513 75 372 q 148 787 75 656 q 353 989 222 919 q 621 1060 484 1060 m 621 970 q 397 911 506 970 q 227 742 288 852 q 165 513 165 632 q 225 287 165 395 q 395 118 286 179 q 621 58 503 58 q 848 118 739 58 q 1017 287 956 179 q 1077 513 1077 395 q 1016 742 1077 632 q 845 911 954 852 q 621 970 736 970 z "},"«":{"ha":768,"x_min":20,"x_max":781,"o":"m 298 781 l 514 781 l 203 509 l 514 237 l 298 237 l 39 466 q 20 509 20 483 q 39 552 20 535 l 298 781 m 566 781 l 781 781 l 470 509 l 781 237 l 566 237 l 307 466 q 288 509 288 483 q 307 552 288 535 l 566 781 z "},"¬":{"ha":751,"x_min":88,"x_max":663,"o":"m 88 594 l 663 594 l 663 237 l 532 237 l 532 471 l 88 471 l 88 594 z "},"®":{"ha":1228,"x_min":68,"x_max":1160,"o":"m 614 1060 q 883 989 752 1060 q 1087 787 1014 919 q 1160 513 1160 656 q 1088 242 1160 372 q 886 39 1017 111 q 614 -33 756 -33 q 343 39 473 -33 q 140 242 213 111 q 68 513 68 372 q 141 787 68 656 q 346 989 215 919 q 614 1060 477 1060 m 614 970 q 390 911 499 970 q 220 742 281 852 q 158 513 158 632 q 219 287 158 395 q 388 118 279 179 q 614 58 496 58 q 841 118 732 58 q 1010 287 949 179 q 1070 513 1070 395 q 1009 742 1070 632 q 838 911 947 852 q 614 970 729 970 m 417 839 l 677 838 q 807 783 753 838 q 861 653 861 729 q 794 510 861 566 q 657 467 751 467 l 659 467 l 867 143 l 775 143 l 566 467 l 503 467 l 503 143 l 417 143 l 417 839 m 677 547 q 750 579 720 548 q 780 653 780 610 q 750 726 780 696 q 677 758 720 757 l 503 758 l 503 547 l 677 547 z "},"¯":{"ha":646,"x_min":34,"x_max":557,"o":"m 557 964 q 533 906 557 929 q 475 882 509 882 l 116 882 q 58 906 81 882 q 34 964 34 929 l 34 965 q 58 1023 34 999 q 116 1048 81 1048 l 475 1048 q 533 1023 509 1048 q 557 965 557 999 l 557 964 z "},"°":{"ha":612,"x_min":68,"x_max":544,"o":"m 210 842 q 236 779 210 806 q 298 753 262 753 l 313 753 q 376 779 349 753 q 402 842 402 806 q 376 905 402 878 q 313 930 350 930 l 298 930 q 236 905 262 930 q 210 842 210 878 m 68 842 q 134 1001 68 935 q 294 1067 201 1067 l 317 1067 q 477 1001 410 1067 q 544 842 544 935 q 477 682 544 749 q 317 616 410 616 l 294 616 q 134 682 201 616 q 68 842 68 749 z "},"±":{"ha":781,"x_min":34,"x_max":747,"o":"m 474 735 l 665 735 q 723 711 699 735 q 747 652 747 686 l 747 651 q 723 593 747 616 q 665 569 699 569 l 474 569 l 474 378 q 450 320 474 345 q 391 296 425 296 l 390 296 q 332 320 355 296 q 308 378 308 345 l 308 569 l 116 569 q 58 593 81 569 q 34 651 34 616 l 34 652 q 58 711 34 686 q 116 735 81 735 l 308 735 l 308 927 q 332 985 308 962 q 390 1009 355 1009 l 391 1009 q 450 985 425 1009 q 474 927 474 962 l 474 735 m 747 143 q 723 85 747 109 q 665 61 699 61 l 116 61 q 58 85 81 61 q 34 143 34 109 l 34 144 q 58 203 34 178 q 116 227 81 227 l 665 227 q 723 203 699 227 q 747 144 747 178 l 747 143 z "},"´":{"ha":428,"x_min":95,"x_max":333,"o":"m 95 777 l 95 779 q 149 860 95 798 q 231 943 200 919 q 280 966 258 966 q 311 954 296 966 q 333 907 333 935 q 328 878 333 893 q 263 793 321 858 q 186 722 205 730 q 155 714 170 714 q 125 724 139 714 q 95 777 100 740 m 144 784 q 233 871 146 785 q 258 907 256 893 q 179 839 230 905 q 172 831 176 835 q 165 824 168 826 q 144 784 145 800 z "},"µ":{"ha":805,"x_min":75,"x_max":730,"o":"m 241 209 l 241 -26 q 216 -83 241 -60 q 159 -108 192 -108 l 157 -108 q 99 -83 123 -108 q 75 -26 75 -60 l 75 869 q 99 928 75 903 q 157 951 123 951 l 159 951 q 216 927 192 951 q 241 869 241 903 l 241 498 q 288 383 241 431 q 403 336 335 336 q 517 383 470 336 q 564 498 564 431 l 564 869 q 589 928 564 903 q 646 951 613 951 l 648 951 q 706 928 682 951 q 730 869 730 903 l 730 178 q 706 120 730 143 q 648 96 682 96 l 646 96 q 589 120 613 96 q 564 178 564 143 l 564 209 q 403 170 539 170 q 241 209 266 170 z "},"¶":{"ha":765,"x_min":68,"x_max":727,"o":"m 727 857 l 668 857 l 668 0 l 526 0 l 526 857 l 484 857 l 484 0 l 336 0 l 336 378 q 144 483 220 395 q 68 686 68 570 q 144 887 68 800 q 355 999 224 988 l 727 999 l 727 857 z "},"·":{"ha":387,"x_min":68,"x_max":223,"o":"m 174 566 q 222 519 214 561 q 223 499 223 509 q 211 448 223 473 q 171 412 198 422 q 139 406 155 406 q 119 408 129 406 q 78 435 92 414 q 68 473 68 452 q 70 496 68 484 q 108 551 77 531 q 160 568 132 568 q 174 566 167 568 m 109 484 q 142 513 117 485 q 149 519 149 519 q 148 524 149 519 q 136 526 142 526 q 115 516 125 526 q 106 496 106 507 q 109 484 106 490 z "},"∙":{"ha":387,"x_min":68,"x_max":223,"o":"m 174 566 q 222 519 214 561 q 223 499 223 509 q 211 448 223 473 q 171 412 198 422 q 139 406 155 406 q 119 408 129 406 q 78 435 92 414 q 68 473 68 452 q 70 496 68 484 q 108 551 77 531 q 160 568 132 568 q 174 566 167 568 m 109 484 q 142 513 117 485 q 149 519 149 519 q 148 524 149 519 q 136 526 142 526 q 115 516 125 526 q 106 496 106 507 q 109 484 106 490 z "},"¸":{"ha":438,"x_min":68,"x_max":370,"o":"m 146 -54 q 145 -39 145 -47 q 160 41 145 -10 q 208 114 180 114 q 283 83 271 114 q 287 65 287 75 q 265 -3 287 39 l 264 -6 q 342 -48 313 -18 q 370 -113 370 -77 q 369 -127 370 -121 q 303 -247 368 -222 q 254 -256 281 -256 q 174 -240 218 -256 q 77 -176 104 -214 q 68 -153 68 -163 q 70 -144 68 -149 q 106 -124 77 -130 q 125 -122 116 -122 q 199 -140 157 -122 q 222 -146 213 -146 q 226 -146 224 -146 q 248 -123 238 -143 q 254 -99 254 -109 q 212 -66 254 -72 q 168 -62 203 -64 q 146 -56 146 -62 l 146 -54 m 231 -184 q 282 -132 282 -184 q 256 -157 282 -133 q 231 -184 232 -178 z "},"»":{"ha":774,"x_min":-14,"x_max":754,"o":"m 461 552 q 480 509 480 535 q 461 466 480 483 l 202 237 l -14 237 l 298 509 l -14 781 l 202 781 l 461 552 m 735 552 q 754 509 754 535 q 735 466 754 483 l 476 237 l 260 237 l 572 509 l 260 781 l 476 781 l 735 552 z "},"¿":{"ha":667,"x_min":95,"x_max":637,"o":"m 587 -57 q 389 -158 503 -154 l 379 -158 q 185 -71 270 -158 q 95 133 95 22 q 96 151 95 142 q 208 330 102 231 q 355 496 333 446 q 363 578 361 507 q 427 630 365 614 q 466 635 448 635 q 503 629 486 635 q 550 576 543 615 q 553 547 553 562 q 536 481 553 511 q 456 403 519 453 q 377 314 396 356 q 368 274 368 292 q 393 220 368 243 q 475 186 417 200 q 569 160 548 170 q 637 61 636 129 q 587 -57 637 0 m 391 696 q 368 758 368 728 q 368 768 368 763 q 402 814 372 796 q 467 830 429 830 l 469 830 q 522 808 500 830 q 540 766 540 789 l 540 764 q 500 713 538 743 q 446 684 472 691 q 425 680 435 680 q 391 696 404 680 m 490 764 q 444 735 458 764 q 458 732 451 732 q 474 737 466 732 q 490 764 489 746 m 587 49 q 555 -1 587 46 q 467 -77 524 -49 q 403 -108 406 -108 l 403 -107 q 426 -110 414 -110 q 529 -65 475 -110 q 575 -14 557 -42 q 591 31 591 12 q 587 49 591 41 m 505 534 l 506 534 q 507 533 507 534 q 455 477 507 529 q 418 443 455 478 q 370 393 389 415 q 321 307 321 339 q 325 292 321 298 q 349 332 329 295 q 414 412 372 371 q 452 444 429 427 q 481 468 474 461 q 505 534 505 492 z "},"À":{"ha":697,"x_min":27,"x_max":670,"o":"m 669 136 q 670 125 670 130 q 644 65 670 90 q 574 36 616 37 q 491 71 528 36 q 433 189 449 111 q 367 261 418 260 l 365 261 q 283 196 316 261 q 240 110 240 111 l 241 111 q 178 50 218 71 q 118 34 147 34 q 102 35 110 34 q 43 71 62 41 q 27 131 27 96 q 30 163 27 146 q 56 292 39 220 q 95 438 80 386 q 138 572 119 516 q 345 922 245 876 q 379 930 362 930 q 503 816 444 930 q 669 136 617 595 m 414 420 q 406 468 414 423 q 391 535 398 510 q 366 584 378 584 q 349 564 357 584 q 319 444 340 547 q 317 428 317 432 l 317 427 q 322 424 317 424 q 328 425 325 424 q 355 427 342 427 q 384 424 370 427 q 405 418 390 422 l 412 416 l 412 416 q 414 418 414 416 l 414 420 m 387 377 q 410 376 399 376 q 451 391 442 376 q 454 406 454 397 q 441 458 454 425 q 441 448 441 453 q 436 416 441 431 q 387 377 424 385 m 81 174 q 81 174 81 174 q 132 368 81 188 q 193 558 163 477 q 351 848 272 770 q 368 876 368 865 q 367 880 368 878 q 361 880 364 880 q 273 789 325 880 q 175 562 226 705 q 78 200 78 290 q 81 174 78 184 m 464 1004 q 433 951 458 968 q 404 942 420 942 q 372 949 389 942 q 295 1021 353 958 q 231 1106 237 1086 q 225 1135 225 1122 q 248 1182 225 1163 q 278 1194 262 1194 q 327 1171 301 1194 q 410 1088 359 1147 q 464 1006 464 1025 l 464 1004 z "},"Á":{"ha":697,"x_min":27,"x_max":670,"o":"m 669 136 q 670 125 670 130 q 644 65 670 90 q 574 36 616 37 q 491 71 528 36 q 433 189 449 111 q 367 261 418 260 l 365 261 q 283 196 316 261 q 240 110 240 111 l 241 111 q 178 50 218 71 q 118 34 147 34 q 102 35 110 34 q 43 71 62 41 q 27 131 27 96 q 30 163 27 146 q 56 292 39 220 q 95 438 80 386 q 138 572 119 516 q 345 922 245 876 q 379 930 362 930 q 503 816 444 930 q 669 136 617 595 m 414 420 q 406 468 414 423 q 391 535 398 510 q 366 584 378 584 q 349 564 357 584 q 319 444 340 547 q 317 428 317 432 l 317 427 q 322 424 317 424 q 328 425 325 424 q 355 427 342 427 q 384 424 370 427 q 405 418 390 422 l 412 416 l 412 416 q 414 418 414 416 l 414 420 m 387 377 q 410 376 399 376 q 451 391 442 376 q 454 406 454 397 q 441 458 454 425 q 441 448 441 453 q 436 416 441 431 q 387 377 424 385 m 81 174 q 81 174 81 174 q 132 368 81 188 q 193 558 163 477 q 351 848 272 770 q 368 876 368 865 q 367 880 368 878 q 361 880 364 880 q 273 789 325 880 q 175 562 226 705 q 78 200 78 290 q 81 174 78 184 m 269 998 l 269 1001 q 323 1082 269 1020 q 406 1164 374 1141 q 454 1188 432 1188 q 485 1176 471 1188 q 507 1128 507 1156 q 503 1100 507 1115 q 437 1015 496 1080 q 360 943 379 951 q 330 936 344 936 q 299 945 313 936 q 269 998 274 962 m 318 1006 q 408 1093 320 1006 q 433 1128 430 1115 q 353 1061 404 1126 q 347 1053 350 1057 q 340 1046 342 1048 q 318 1006 319 1022 z "},"Â":{"ha":697,"x_min":27,"x_max":670,"o":"m 669 136 q 670 125 670 130 q 644 65 670 90 q 574 36 616 37 q 491 71 528 36 q 433 189 449 111 q 367 261 418 260 l 365 261 q 283 196 316 261 q 240 110 240 111 l 241 111 q 178 50 218 71 q 118 34 147 34 q 102 35 110 34 q 43 71 62 41 q 27 131 27 96 q 30 163 27 146 q 56 292 39 220 q 95 438 80 386 q 138 572 119 516 q 345 922 245 876 q 379 930 362 930 q 503 816 444 930 q 669 136 617 595 m 414 420 q 406 468 414 423 q 391 535 398 510 q 366 584 378 584 q 349 564 357 584 q 319 444 340 547 q 317 428 317 432 l 317 427 q 322 424 317 424 q 328 425 325 424 q 355 427 342 427 q 384 424 370 427 q 405 418 390 422 l 412 416 l 412 416 q 414 418 414 416 l 414 420 m 387 377 q 410 376 399 376 q 451 391 442 376 q 454 406 454 397 q 441 458 454 425 q 441 448 441 453 q 436 416 441 431 q 387 377 424 385 m 81 174 q 81 174 81 174 q 132 368 81 188 q 193 558 163 477 q 351 848 272 770 q 368 876 368 865 q 367 880 368 878 q 361 880 364 880 q 273 789 325 880 q 175 562 226 705 q 78 200 78 290 q 81 174 78 184 m 481 1097 q 585 927 580 975 q 586 922 586 924 q 558 893 586 897 q 550 892 554 892 q 486 916 522 892 q 440 961 473 927 q 385 1013 408 995 q 264 924 317 966 q 205 901 227 901 q 178 916 187 901 q 173 937 173 925 q 205 1002 173 964 q 291 1099 210 1008 q 385 1160 345 1159 l 387 1160 q 481 1097 430 1160 m 223 962 q 283 1015 240 973 q 354 1082 334 1065 q 371 1101 370 1095 q 363 1103 368 1103 q 290 1043 337 1103 q 223 962 225 962 z "},"Ã":{"ha":697,"x_min":27,"x_max":670,"o":"m 669 136 q 670 125 670 130 q 644 65 670 90 q 574 36 616 37 q 491 71 528 36 q 433 189 449 111 q 367 261 418 260 l 365 261 q 283 196 316 261 q 240 110 240 111 l 241 111 q 178 50 218 71 q 118 34 147 34 q 102 35 110 34 q 43 71 62 41 q 27 131 27 96 q 30 163 27 146 q 56 292 39 220 q 95 438 80 386 q 138 572 119 516 q 345 922 245 876 q 379 930 362 930 q 503 816 444 930 q 669 136 617 595 m 414 420 q 406 468 414 423 q 391 535 398 510 q 366 584 378 584 q 349 564 357 584 q 319 444 340 547 q 317 428 317 432 l 317 427 q 322 424 317 424 q 328 425 325 424 q 355 427 342 427 q 384 424 370 427 q 405 418 390 422 l 412 416 l 412 416 q 414 418 414 416 l 414 420 m 387 377 q 410 376 399 376 q 451 391 442 376 q 454 406 454 397 q 441 458 454 425 q 441 448 441 453 q 436 416 441 431 q 387 377 424 385 m 81 174 q 81 174 81 174 q 132 368 81 188 q 193 558 163 477 q 351 848 272 770 q 368 876 368 865 q 367 880 368 878 q 361 880 364 880 q 273 789 325 880 q 175 562 226 705 q 78 200 78 290 q 81 174 78 184 m 248 1153 q 292 1161 271 1161 q 317 1158 304 1161 q 373 1117 354 1150 q 452 1076 396 1076 q 518 1114 485 1076 q 574 1147 547 1147 l 579 1147 q 612 1116 606 1144 q 614 1100 614 1108 q 602 1053 614 1078 q 447 959 559 964 q 416 958 429 958 q 373 962 384 958 q 316 1015 342 971 q 286 1035 304 1035 l 281 1035 q 241 1010 260 1032 q 205 987 229 996 q 180 981 191 981 q 172 983 176 981 q 152 1011 154 987 l 152 1015 q 163 1062 152 1036 q 248 1153 193 1132 z "},"Ä":{"ha":697,"x_min":27,"x_max":670,"o":"m 669 136 q 670 125 670 130 q 644 65 670 90 q 574 36 616 37 q 491 71 528 36 q 433 189 449 111 q 367 261 418 260 l 365 261 q 283 196 316 261 q 240 110 240 111 l 241 111 q 178 50 218 71 q 118 34 147 34 q 102 35 110 34 q 43 71 62 41 q 27 131 27 96 q 30 163 27 146 q 56 292 39 220 q 95 438 80 386 q 138 572 119 516 q 345 922 245 876 q 379 930 362 930 q 503 816 444 930 q 669 136 617 595 m 414 420 q 406 468 414 423 q 391 535 398 510 q 366 584 378 584 q 349 564 357 584 q 319 444 340 547 q 317 428 317 432 l 317 427 q 322 424 317 424 q 328 425 325 424 q 355 427 342 427 q 384 424 370 427 q 405 418 390 422 l 412 416 l 412 416 q 414 418 414 416 l 414 420 m 387 377 q 410 376 399 376 q 451 391 442 376 q 454 406 454 397 q 441 458 454 425 q 441 448 441 453 q 436 416 441 431 q 387 377 424 385 m 81 174 q 81 174 81 174 q 132 368 81 188 q 193 558 163 477 q 351 848 272 770 q 368 876 368 865 q 367 880 368 878 q 361 880 364 880 q 273 789 325 880 q 175 562 226 705 q 78 200 78 290 q 81 174 78 184 m 273 1145 q 328 1090 319 1139 q 330 1066 330 1078 q 315 1006 330 1036 q 269 964 300 977 q 231 956 250 956 q 208 959 219 956 q 159 991 176 966 q 147 1036 147 1010 q 150 1062 147 1048 q 195 1128 158 1104 q 256 1147 222 1147 q 273 1145 264 1147 m 195 1048 q 235 1082 205 1050 q 243 1090 242 1090 q 241 1095 242 1090 q 228 1098 235 1098 q 203 1086 214 1098 q 192 1063 192 1076 q 195 1048 192 1056 m 533 1145 q 589 1090 579 1139 q 591 1066 591 1078 q 576 1006 591 1036 q 529 964 561 977 q 492 956 511 956 q 468 959 479 956 q 420 991 436 966 q 408 1036 408 1010 q 410 1062 408 1048 q 455 1128 418 1104 q 516 1147 483 1147 q 533 1145 524 1147 m 456 1072 q 505 1089 465 1069 q 515 1094 514 1094 q 515 1099 514 1094 q 503 1107 510 1104 q 476 1105 490 1112 q 458 1086 462 1098 q 456 1072 455 1080 z "},"Å":{"ha":697,"x_min":27,"x_max":670,"o":"m 669 136 q 670 125 670 130 q 644 65 670 90 q 574 36 616 37 q 491 71 528 36 q 433 189 449 111 q 367 261 418 260 l 365 261 q 283 196 316 261 q 240 110 240 111 l 241 111 q 178 50 218 71 q 118 34 147 34 q 102 35 110 34 q 43 71 62 41 q 27 131 27 96 q 30 163 27 146 q 56 292 39 220 q 95 438 80 386 q 138 572 119 516 q 345 922 245 876 q 379 930 362 930 q 503 816 444 930 q 669 136 617 595 m 414 420 q 406 468 414 423 q 391 535 398 510 q 366 584 378 584 q 349 564 357 584 q 319 444 340 547 q 317 428 317 432 l 317 427 q 322 424 317 424 q 328 425 325 424 q 355 427 342 427 q 384 424 370 427 q 405 418 390 422 l 412 416 l 412 416 q 414 418 414 416 l 414 420 m 387 377 q 410 376 399 376 q 451 391 442 376 q 454 406 454 397 q 441 458 454 425 q 441 448 441 453 q 436 416 441 431 q 387 377 424 385 m 81 174 q 81 174 81 174 q 132 368 81 188 q 193 558 163 477 q 351 848 272 770 q 368 876 368 865 q 367 880 368 878 q 361 880 364 880 q 273 789 325 880 q 175 562 226 705 q 78 200 78 290 q 81 174 78 184 m 304 1130 q 376 1160 333 1160 q 403 1158 389 1160 q 487 1094 463 1146 q 496 1049 496 1073 q 494 1024 496 1037 q 460 964 486 983 q 378 936 421 936 l 370 936 q 290 979 319 938 q 275 1037 275 1002 q 276 1056 275 1046 q 304 1130 281 1105 m 363 1034 q 384 1021 373 1021 q 403 1030 393 1021 q 414 1055 413 1041 l 414 1057 q 406 1079 414 1069 q 380 1093 394 1093 q 375 1092 378 1093 q 354 1069 357 1088 q 353 1061 353 1065 q 363 1034 353 1048 z "},"Æ":{"ha":1221,"x_min":27,"x_max":1196,"o":"m 81 176 q 132 368 83 195 q 193 558 163 477 q 351 848 272 770 q 368 876 368 865 q 367 880 368 878 q 361 880 364 880 q 273 789 325 880 q 175 562 226 705 q 78 200 78 290 q 81 176 78 185 m 638 651 q 656 709 647 688 q 788 830 690 789 q 837 848 792 832 q 880 865 873 861 q 691 800 779 865 q 625 610 625 751 q 638 651 631 619 m 387 377 q 410 376 399 376 q 451 391 442 376 q 454 406 454 397 q 441 458 454 425 q 441 448 441 453 q 436 416 441 431 q 387 377 424 385 m 406 468 q 391 535 398 510 q 366 584 378 584 q 349 564 357 584 q 319 444 340 547 q 317 428 317 432 l 317 427 q 322 424 317 424 q 328 425 325 424 q 355 427 342 427 q 384 424 370 427 q 405 418 390 422 l 412 416 l 412 416 q 414 418 414 416 l 414 420 q 406 468 414 423 m 658 81 q 644 65 652 73 q 574 36 616 37 q 491 71 528 36 q 433 189 449 111 q 367 261 418 260 l 365 261 q 283 196 316 261 q 240 110 240 111 l 241 111 q 178 50 218 71 q 118 34 147 34 q 102 35 110 34 q 43 71 62 41 q 27 131 27 96 q 30 163 27 146 q 56 292 39 220 q 95 438 80 386 q 138 572 119 516 q 345 922 245 876 q 379 930 362 930 q 503 816 444 930 q 579 620 545 734 q 642 800 593 741 q 817 903 692 862 q 921 917 858 917 q 971 915 945 917 q 1126 880 1073 909 q 1185 800 1166 858 q 1196 737 1196 768 q 1185 675 1196 706 q 1122 587 1162 609 q 1065 573 1099 573 q 1017 578 1043 573 q 960 587 982 587 q 931 581 941 587 q 908 549 908 566 q 919 527 908 538 q 1029 503 936 509 q 1085 492 1067 500 q 1115 450 1114 480 l 1115 444 q 1054 362 1115 380 q 993 352 1034 357 q 932 342 949 347 q 899 318 899 334 l 899 316 q 935 294 901 300 q 951 294 941 294 q 977 294 962 294 q 1016 295 1000 295 l 1029 295 q 1096 257 1092 292 q 1098 223 1098 239 q 996 66 1098 112 q 794 34 924 34 q 760 35 777 34 q 658 81 699 36 z "},"Ç":{"ha":703,"x_min":47,"x_max":656,"o":"m 395 312 q 541 368 478 333 q 475 313 532 327 q 430 307 450 307 q 395 312 410 307 m 91 570 q 130 734 91 654 q 237 865 170 818 q 292 889 259 880 q 326 896 313 896 q 345 890 338 896 q 300 871 336 885 q 252 846 269 857 q 91 570 163 779 m 395 -157 q 422 -132 422 -133 q 370 -184 422 -184 q 395 -157 372 -178 m 299 39 q 285 -39 285 -11 q 286 -54 285 -47 l 286 -56 q 307 -62 286 -62 q 351 -66 343 -64 q 394 -99 394 -72 q 387 -123 394 -109 q 366 -146 378 -143 q 362 -146 364 -146 q 338 -140 353 -146 q 264 -122 297 -122 q 246 -124 256 -122 q 210 -144 216 -130 q 208 -153 208 -149 q 217 -176 208 -163 q 314 -240 244 -214 q 393 -256 358 -256 q 443 -247 420 -256 q 509 -127 507 -222 q 510 -113 510 -121 q 481 -48 510 -77 q 404 -6 452 -18 l 405 -3 q 419 29 414 14 l 420 29 q 565 100 504 38 q 639 231 618 154 q 648 296 648 266 q 637 357 648 330 q 558 412 615 412 l 555 412 q 478 391 526 412 q 399 363 425 367 q 373 361 385 361 q 300 387 330 361 q 265 463 267 416 l 265 467 q 296 539 265 511 q 366 564 323 564 q 392 562 378 564 q 480 535 417 559 q 567 513 536 514 l 570 513 q 647 576 627 513 q 656 637 656 604 q 644 718 656 674 q 567 865 622 805 q 420 943 504 935 q 382 945 401 945 q 138 815 231 945 q 47 496 47 688 l 47 487 q 143 159 49 290 q 299 39 208 67 z "},"È":{"ha":712,"x_min":68,"x_max":692,"o":"m 414 527 q 525 503 431 509 q 581 492 563 500 q 610 450 609 480 l 610 444 q 549 362 610 380 q 488 352 530 357 q 427 342 445 347 q 394 318 394 334 l 394 316 q 431 294 397 300 q 446 294 436 294 q 472 294 457 294 q 511 295 496 295 l 524 295 q 591 257 587 292 q 593 223 593 239 q 491 66 593 112 q 290 34 419 34 q 255 35 273 34 q 89 224 130 38 q 68 483 68 317 l 68 513 q 73 608 68 562 q 137 800 85 738 q 312 903 187 862 q 416 917 353 917 q 467 915 440 917 q 622 880 568 909 q 681 800 661 858 q 692 737 692 768 q 681 675 692 706 q 618 587 657 609 q 560 573 594 573 q 513 578 538 573 q 455 587 477 587 q 427 581 436 587 q 404 549 404 566 q 414 527 404 538 m 121 610 q 134 651 127 619 q 151 709 142 688 q 283 830 186 789 q 332 848 288 832 q 375 865 369 861 q 186 800 274 865 q 121 610 121 751 m 487 996 q 456 943 481 959 q 427 933 443 933 q 395 941 412 933 q 318 1013 376 949 q 254 1097 260 1077 q 248 1126 248 1113 q 271 1173 248 1154 q 301 1185 285 1185 q 350 1162 324 1185 q 433 1079 382 1138 q 487 998 487 1017 l 487 996 z "},"É":{"ha":712,"x_min":68,"x_max":692,"o":"m 414 527 q 525 503 431 509 q 581 492 563 500 q 610 450 609 480 l 610 444 q 549 362 610 380 q 488 352 530 357 q 427 342 445 347 q 394 318 394 334 l 394 316 q 431 294 397 300 q 446 294 436 294 q 472 294 457 294 q 511 295 496 295 l 524 295 q 591 257 587 292 q 593 223 593 239 q 491 66 593 112 q 290 34 419 34 q 255 35 273 34 q 89 224 130 38 q 68 483 68 317 l 68 513 q 73 608 68 562 q 137 800 85 738 q 312 903 187 862 q 416 917 353 917 q 467 915 440 917 q 622 880 568 909 q 681 800 661 858 q 692 737 692 768 q 681 675 692 706 q 618 587 657 609 q 560 573 594 573 q 513 578 538 573 q 455 587 477 587 q 427 581 436 587 q 404 549 404 566 q 414 527 404 538 m 121 610 q 134 651 127 619 q 151 709 142 688 q 283 830 186 789 q 332 848 288 832 q 375 865 369 861 q 186 800 274 865 q 121 610 121 751 m 267 993 l 267 996 q 320 1076 267 1015 q 403 1159 372 1135 q 452 1183 429 1183 q 482 1171 468 1183 q 505 1123 505 1151 q 500 1095 505 1109 q 435 1010 493 1074 q 357 938 376 946 q 327 930 341 930 q 296 940 311 930 q 267 993 271 956 m 315 1000 q 405 1087 317 1001 q 430 1123 427 1109 q 351 1055 401 1121 q 344 1047 347 1051 q 337 1040 339 1042 q 315 1000 317 1017 z "},"Ê":{"ha":712,"x_min":68,"x_max":692,"o":"m 414 527 q 525 503 431 509 q 581 492 563 500 q 610 450 609 480 l 610 444 q 549 362 610 380 q 488 352 530 357 q 427 342 445 347 q 394 318 394 334 l 394 316 q 431 294 397 300 q 446 294 436 294 q 472 294 457 294 q 511 295 496 295 l 524 295 q 591 257 587 292 q 593 223 593 239 q 491 66 593 112 q 290 34 419 34 q 255 35 273 34 q 89 224 130 38 q 68 483 68 317 l 68 513 q 73 608 68 562 q 137 800 85 738 q 312 903 187 862 q 416 917 353 917 q 467 915 440 917 q 622 880 568 909 q 681 800 661 858 q 692 737 692 768 q 681 675 692 706 q 618 587 657 609 q 560 573 594 573 q 513 578 538 573 q 455 587 477 587 q 427 581 436 587 q 404 549 404 566 q 414 527 404 538 m 121 610 q 134 651 127 619 q 151 709 142 688 q 283 830 186 789 q 332 848 288 832 q 375 865 369 861 q 186 800 274 865 q 121 610 121 751 m 528 1126 q 633 956 627 1004 q 633 951 633 954 q 606 922 633 926 q 597 922 602 922 q 534 945 569 922 q 488 990 520 956 q 432 1042 456 1024 q 311 953 364 996 q 252 930 275 930 q 226 945 235 930 q 220 966 220 954 q 252 1031 220 993 q 338 1128 257 1037 q 433 1189 393 1188 l 435 1189 q 528 1126 477 1189 m 271 991 q 330 1044 288 1002 q 401 1111 381 1094 q 418 1131 417 1124 q 410 1132 415 1132 q 337 1072 385 1132 q 271 991 273 991 z "},"Ë":{"ha":712,"x_min":68,"x_max":692,"o":"m 414 527 q 525 503 431 509 q 581 492 563 500 q 610 450 609 480 l 610 444 q 549 362 610 380 q 488 352 530 357 q 427 342 445 347 q 394 318 394 334 l 394 316 q 431 294 397 300 q 446 294 436 294 q 472 294 457 294 q 511 295 496 295 l 524 295 q 591 257 587 292 q 593 223 593 239 q 491 66 593 112 q 290 34 419 34 q 255 35 273 34 q 89 224 130 38 q 68 483 68 317 l 68 513 q 73 608 68 562 q 137 800 85 738 q 312 903 187 862 q 416 917 353 917 q 467 915 440 917 q 622 880 568 909 q 681 800 661 858 q 692 737 692 768 q 681 675 692 706 q 618 587 657 609 q 560 573 594 573 q 513 578 538 573 q 455 587 477 587 q 427 581 436 587 q 404 549 404 566 q 414 527 404 538 m 121 610 q 134 651 127 619 q 151 709 142 688 q 283 830 186 789 q 332 848 288 832 q 375 865 369 861 q 186 800 274 865 q 121 610 121 751 m 304 1152 q 359 1097 350 1145 q 361 1073 361 1084 q 347 1013 361 1042 q 300 970 332 983 q 262 963 281 963 q 239 966 250 963 q 191 998 207 973 q 178 1042 178 1017 q 181 1069 178 1055 q 226 1135 189 1111 q 287 1154 254 1154 q 304 1152 295 1154 m 227 1055 q 267 1089 237 1057 q 274 1097 273 1097 q 273 1102 273 1097 q 259 1105 266 1105 q 234 1093 245 1105 q 223 1070 223 1082 q 227 1055 223 1063 m 564 1152 q 620 1097 610 1145 q 622 1073 622 1084 q 607 1013 622 1042 q 560 970 592 983 q 523 963 542 963 q 499 966 511 963 q 451 998 467 973 q 439 1042 439 1017 q 441 1069 439 1055 q 486 1135 450 1111 q 547 1154 514 1154 q 564 1152 555 1154 m 487 1078 q 536 1096 496 1076 q 546 1101 545 1101 q 546 1106 545 1101 q 534 1114 541 1111 q 507 1112 522 1118 q 489 1093 493 1105 q 487 1078 486 1086 z "},"Ì":{"ha":633,"x_min":54,"x_max":595,"o":"m 193 583 q 154 591 178 588 q 117 597 124 595 q 67 641 77 606 q 54 730 54 684 l 54 738 q 71 842 55 800 q 252 926 97 913 q 371 929 286 929 q 523 901 466 929 q 593 774 581 872 q 595 730 595 751 q 559 627 595 673 q 508 589 537 598 q 459 583 497 586 q 420 568 433 581 q 395 507 402 551 q 392 422 392 483 q 393 403 392 411 q 411 289 395 301 q 471 280 418 283 q 506 274 493 276 q 543 208 543 259 l 543 205 q 519 50 550 75 q 279 28 488 31 q 251 27 264 27 q 135 43 161 27 q 104 100 111 58 q 102 207 102 195 q 111 249 102 231 q 166 271 121 270 q 226 283 215 272 q 237 384 237 309 q 236 414 237 412 q 193 583 230 568 m 107 777 q 125 810 111 781 q 155 842 136 831 q 201 861 169 850 q 237 875 232 871 q 136 857 169 875 q 105 821 115 846 q 100 799 100 809 q 107 777 100 787 m 144 222 q 144 216 144 219 q 165 201 144 201 l 168 201 q 210 212 191 203 q 265 264 249 231 q 275 307 275 284 q 267 348 275 326 q 267 332 267 347 q 262 301 266 315 q 208 239 252 256 q 168 235 199 235 q 144 222 146 235 m 400 1026 q 370 973 395 989 q 340 964 356 964 q 309 971 325 964 q 231 1043 290 979 q 167 1128 174 1107 q 161 1157 161 1143 q 184 1204 161 1185 q 214 1216 198 1216 q 263 1192 237 1216 q 346 1109 295 1168 q 400 1028 400 1047 l 400 1026 z "},"Í":{"ha":633,"x_min":54,"x_max":595,"o":"m 193 583 q 154 591 178 588 q 117 597 124 595 q 67 641 77 606 q 54 730 54 684 l 54 738 q 71 842 55 800 q 252 926 97 913 q 371 929 286 929 q 523 901 466 929 q 593 774 581 872 q 595 730 595 751 q 559 627 595 673 q 508 589 537 598 q 459 583 497 586 q 420 568 433 581 q 395 507 402 551 q 392 422 392 483 q 393 403 392 411 q 411 289 395 301 q 471 280 418 283 q 506 274 493 276 q 543 208 543 259 l 543 205 q 519 50 550 75 q 279 28 488 31 q 251 27 264 27 q 135 43 161 27 q 104 100 111 58 q 102 207 102 195 q 111 249 102 231 q 166 271 121 270 q 226 283 215 272 q 237 384 237 309 q 236 414 237 412 q 193 583 230 568 m 107 777 q 125 810 111 781 q 155 842 136 831 q 201 861 169 850 q 237 875 232 871 q 136 857 169 875 q 105 821 115 846 q 100 799 100 809 q 107 777 100 787 m 144 222 q 144 216 144 219 q 165 201 144 201 l 168 201 q 210 212 191 203 q 265 264 249 231 q 275 307 275 284 q 267 348 275 326 q 267 332 267 347 q 262 301 266 315 q 208 239 252 256 q 168 235 199 235 q 144 222 146 235 m 227 1017 l 227 1020 q 280 1101 227 1039 q 363 1183 332 1160 q 412 1207 389 1207 q 442 1195 428 1207 q 465 1147 465 1175 q 460 1119 465 1134 q 395 1034 453 1099 q 317 962 336 970 q 287 955 301 955 q 256 964 271 955 q 227 1017 231 981 m 275 1025 q 365 1112 277 1025 q 390 1147 387 1134 q 311 1080 361 1145 q 304 1072 307 1076 q 297 1065 299 1067 q 275 1025 277 1041 z "},"Î":{"ha":633,"x_min":54,"x_max":595,"o":"m 193 583 q 154 591 178 588 q 117 597 124 595 q 67 641 77 606 q 54 730 54 684 l 54 738 q 71 842 55 800 q 252 926 97 913 q 371 929 286 929 q 523 901 466 929 q 593 774 581 872 q 595 730 595 751 q 559 627 595 673 q 508 589 537 598 q 459 583 497 586 q 420 568 433 581 q 395 507 402 551 q 392 422 392 483 q 393 403 392 411 q 411 289 395 301 q 471 280 418 283 q 506 274 493 276 q 543 208 543 259 l 543 205 q 519 50 550 75 q 279 28 488 31 q 251 27 264 27 q 135 43 161 27 q 104 100 111 58 q 102 207 102 195 q 111 249 102 231 q 166 271 121 270 q 226 283 215 272 q 237 384 237 309 q 236 414 237 412 q 193 583 230 568 m 107 777 q 125 810 111 781 q 155 842 136 831 q 201 861 169 850 q 237 875 232 871 q 136 857 169 875 q 105 821 115 846 q 100 799 100 809 q 107 777 100 787 m 144 222 q 144 216 144 219 q 165 201 144 201 l 168 201 q 210 212 191 203 q 265 264 249 231 q 275 307 275 284 q 267 348 275 326 q 267 332 267 347 q 262 301 266 315 q 208 239 252 256 q 168 235 199 235 q 144 222 146 235 m 426 1145 q 530 975 525 1023 q 531 970 531 972 q 503 941 531 945 q 495 941 499 941 q 431 964 467 941 q 385 1009 418 975 q 330 1061 353 1043 q 209 972 262 1015 q 150 949 172 949 q 123 964 132 949 q 118 985 118 973 q 150 1050 118 1012 q 236 1147 155 1056 q 330 1208 290 1207 l 332 1208 q 426 1145 375 1208 m 168 1010 q 228 1063 185 1021 q 299 1130 279 1113 q 316 1149 315 1143 q 308 1151 313 1151 q 235 1091 282 1151 q 168 1010 170 1010 z "},"Ï":{"ha":633,"x_min":54,"x_max":595,"o":"m 193 583 q 154 591 178 588 q 117 597 124 595 q 67 641 77 606 q 54 730 54 684 l 54 738 q 71 842 55 800 q 252 926 97 913 q 371 929 286 929 q 523 901 466 929 q 593 774 581 872 q 595 730 595 751 q 559 627 595 673 q 508 589 537 598 q 459 583 497 586 q 420 568 433 581 q 395 507 402 551 q 392 422 392 483 q 393 403 392 411 q 411 289 395 301 q 471 280 418 283 q 506 274 493 276 q 543 208 543 259 l 543 205 q 519 50 550 75 q 279 28 488 31 q 251 27 264 27 q 135 43 161 27 q 104 100 111 58 q 102 207 102 195 q 111 249 102 231 q 166 271 121 270 q 226 283 215 272 q 237 384 237 309 q 236 414 237 412 q 193 583 230 568 m 107 777 q 125 810 111 781 q 155 842 136 831 q 201 861 169 850 q 237 875 232 871 q 136 857 169 875 q 105 821 115 846 q 100 799 100 809 q 107 777 100 787 m 144 222 q 144 216 144 219 q 165 201 144 201 l 168 201 q 210 212 191 203 q 265 264 249 231 q 275 307 275 284 q 267 348 275 326 q 267 332 267 347 q 262 301 266 315 q 208 239 252 256 q 168 235 199 235 q 144 222 146 235 m 228 1159 q 283 1103 274 1152 q 286 1080 286 1091 q 271 1019 286 1049 q 224 977 256 990 q 186 970 205 970 q 163 972 174 970 q 115 1005 131 980 q 102 1049 102 1024 q 105 1076 102 1062 q 150 1141 113 1118 q 211 1160 178 1160 q 228 1159 219 1160 m 151 1062 q 191 1096 161 1063 q 198 1103 197 1103 q 197 1109 197 1103 q 183 1112 190 1112 q 158 1100 170 1112 q 147 1077 147 1089 q 151 1062 147 1069 m 489 1159 q 545 1103 535 1152 q 547 1080 547 1091 q 532 1019 547 1049 q 485 977 517 990 q 448 970 467 970 q 424 972 435 970 q 376 1005 392 980 q 363 1049 363 1024 q 366 1076 363 1062 q 411 1141 374 1118 q 472 1160 439 1160 q 489 1159 480 1160 m 411 1085 q 460 1103 421 1083 q 470 1107 469 1107 q 471 1113 469 1107 q 459 1120 465 1118 q 431 1118 446 1125 q 413 1100 417 1112 q 411 1085 410 1093 z "},"Ð":{"ha":814,"x_min":-18,"x_max":787,"o":"m 172 796 q 189 850 181 834 q 226 890 205 880 q 261 908 258 905 q 240 914 252 914 q 218 910 230 914 q 176 872 188 900 q 159 753 159 835 q 172 796 164 760 m 498 323 q 557 420 557 361 q 522 380 551 418 q 434 313 491 338 q 381 288 382 290 q 498 323 446 288 m 317 406 q 308 345 313 371 q 307 338 307 341 q 347 334 326 334 q 406 342 375 334 q 486 385 455 356 q 513 435 513 410 q 513 445 513 440 q 448 506 505 480 q 358 532 389 532 q 322 499 323 532 q 321 458 321 478 q 326 458 324 458 q 386 430 386 449 l 386 429 q 317 406 385 409 m 102 463 q 132 865 113 793 q 281 960 156 960 q 475 913 378 960 q 549 867 513 894 q 733 650 670 780 q 787 440 783 544 l 787 428 q 736 260 787 344 q 598 114 686 178 q 418 24 513 52 q 304 7 357 7 q 239 14 270 7 q 134 70 172 29 q 95 172 95 112 l 95 178 q 96 203 95 191 q 100 404 98 312 q 72 404 84 404 q 5 410 14 406 q -18 432 -18 421 q -18 437 -18 435 q 30 458 -12 451 q 78 463 52 462 l 102 463 z "},"Ñ":{"ha":829,"x_min":95,"x_max":755,"o":"m 266 73 q 237 27 261 43 q 187 14 216 14 l 184 14 q 133 31 155 15 q 104 76 109 47 q 95 311 95 141 q 96 428 95 364 q 99 780 99 691 l 99 827 q 117 907 99 882 q 166 932 133 928 q 179 932 173 932 q 222 922 203 932 q 291 845 256 903 q 453 467 384 692 q 486 390 477 390 l 487 390 q 514 488 494 394 q 528 722 524 535 q 550 910 531 883 q 648 959 585 959 q 663 958 656 959 q 748 876 741 951 q 755 712 755 803 q 744 455 755 597 q 642 56 719 125 q 549 20 604 22 l 541 20 q 453 51 489 20 q 311 237 356 135 q 293 284 302 259 q 283 310 283 309 q 280 314 281 314 q 279 311 279 314 q 277 283 278 307 q 266 73 273 117 m 582 836 q 586 842 585 838 q 603 874 601 871 q 621 889 608 880 q 639 904 634 898 q 628 909 632 909 q 618 911 623 911 q 583 887 597 911 q 574 859 574 872 q 582 836 574 846 m 490 364 q 512 357 502 357 q 553 414 542 357 q 566 494 566 456 q 564 522 566 509 q 555 485 561 514 q 543 435 548 453 q 490 364 523 372 m 127 762 q 172 877 137 848 q 180 888 178 882 q 166 890 172 890 q 134 867 145 890 q 123 810 123 844 q 127 762 123 787 m 290 1169 q 334 1177 313 1177 q 359 1175 347 1177 q 415 1133 396 1166 q 494 1092 438 1093 q 560 1130 527 1092 q 616 1163 589 1163 l 621 1163 q 654 1132 648 1160 q 656 1116 656 1124 q 644 1069 656 1094 q 489 975 602 980 q 458 975 471 975 q 415 978 426 975 q 358 1031 385 987 q 328 1051 347 1051 l 323 1051 q 283 1027 302 1048 q 247 1003 271 1012 q 222 998 233 998 q 214 999 218 998 q 194 1027 196 1004 l 194 1031 q 205 1078 194 1052 q 290 1169 235 1148 z "},"Ò":{"ha":863,"x_min":47,"x_max":816,"o":"m 649 886 q 770 722 726 827 q 816 505 812 623 l 816 489 q 781 282 816 380 q 666 102 742 171 q 440 14 573 18 l 427 14 q 217 100 296 14 q 54 447 81 248 q 47 532 47 490 q 140 814 47 691 q 384 939 216 916 q 454 943 420 943 q 649 886 572 943 m 315 427 q 289 342 289 382 q 338 239 289 287 q 408 204 372 204 q 422 205 415 204 q 491 266 466 213 q 514 359 514 314 q 505 415 514 388 q 416 498 476 497 q 315 427 357 498 m 423 156 q 524 212 486 156 q 559 329 559 262 q 534 275 557 328 q 467 191 511 223 q 423 156 425 161 m 99 587 q 119 637 109 601 q 141 705 132 683 q 286 852 180 798 q 348 873 302 860 q 399 892 390 886 q 181 808 263 892 q 99 587 99 724 m 511 1016 q 481 963 506 979 q 451 954 467 954 q 420 961 436 954 q 342 1033 401 969 q 278 1118 285 1097 q 273 1147 273 1133 q 295 1194 273 1175 q 326 1206 309 1206 q 374 1182 349 1206 q 457 1099 406 1158 q 511 1018 511 1037 l 511 1016 z "},"Ó":{"ha":863,"x_min":47,"x_max":816,"o":"m 649 886 q 770 722 726 827 q 816 505 812 623 l 816 489 q 781 282 816 380 q 666 102 742 171 q 440 14 573 18 l 427 14 q 217 100 296 14 q 54 447 81 248 q 47 532 47 490 q 140 814 47 691 q 384 939 216 916 q 454 943 420 943 q 649 886 572 943 m 315 427 q 289 342 289 382 q 338 239 289 287 q 408 204 372 204 q 422 205 415 204 q 491 266 466 213 q 514 359 514 314 q 505 415 514 388 q 416 498 476 497 q 315 427 357 498 m 423 156 q 524 212 486 156 q 559 329 559 262 q 534 275 557 328 q 467 191 511 223 q 423 156 425 161 m 99 587 q 119 637 109 601 q 141 705 132 683 q 286 852 180 798 q 348 873 302 860 q 399 892 390 886 q 181 808 263 892 q 99 587 99 724 m 353 1014 l 353 1017 q 406 1097 353 1036 q 489 1180 458 1156 q 538 1204 515 1204 q 568 1192 554 1204 q 591 1144 591 1172 q 586 1116 591 1131 q 521 1031 579 1095 q 444 959 463 967 q 413 951 427 951 q 382 961 397 951 q 353 1014 357 977 m 401 1021 q 491 1108 404 1022 q 516 1144 513 1131 q 437 1076 488 1142 q 430 1068 433 1072 q 423 1061 425 1063 q 401 1021 403 1038 z "},"Ô":{"ha":863,"x_min":47,"x_max":816,"o":"m 649 886 q 770 722 726 827 q 816 505 812 623 l 816 489 q 781 282 816 380 q 666 102 742 171 q 440 14 573 18 l 427 14 q 217 100 296 14 q 54 447 81 248 q 47 532 47 490 q 140 814 47 691 q 384 939 216 916 q 454 943 420 943 q 649 886 572 943 m 315 427 q 289 342 289 382 q 338 239 289 287 q 408 204 372 204 q 422 205 415 204 q 491 266 466 213 q 514 359 514 314 q 505 415 514 388 q 416 498 476 497 q 315 427 357 498 m 423 156 q 524 212 486 156 q 559 329 559 262 q 534 275 557 328 q 467 191 511 223 q 423 156 425 161 m 99 587 q 119 637 109 601 q 141 705 132 683 q 286 852 180 798 q 348 873 302 860 q 399 892 390 886 q 181 808 263 892 q 99 587 99 724 m 553 1139 q 658 968 652 1016 q 659 963 659 966 q 631 935 659 938 q 623 934 627 934 q 559 958 594 934 q 513 1002 545 968 q 457 1055 481 1036 q 336 965 389 1008 q 277 943 300 943 q 251 957 260 943 q 245 978 245 966 q 277 1044 245 1005 q 363 1140 282 1049 q 458 1201 418 1200 l 460 1201 q 553 1139 503 1201 m 296 1004 q 355 1056 313 1015 q 427 1123 406 1106 q 444 1143 442 1136 q 435 1144 440 1144 q 362 1084 410 1144 q 296 1004 298 1004 z "},"Õ":{"ha":863,"x_min":47,"x_max":816,"o":"m 649 886 q 770 722 726 827 q 816 505 812 623 l 816 489 q 781 282 816 380 q 666 102 742 171 q 440 14 573 18 l 427 14 q 217 100 296 14 q 54 447 81 248 q 47 532 47 490 q 140 814 47 691 q 384 939 216 916 q 454 943 420 943 q 649 886 572 943 m 315 427 q 289 342 289 382 q 338 239 289 287 q 408 204 372 204 q 422 205 415 204 q 491 266 466 213 q 514 359 514 314 q 505 415 514 388 q 416 498 476 497 q 315 427 357 498 m 423 156 q 524 212 486 156 q 559 329 559 262 q 534 275 557 328 q 467 191 511 223 q 423 156 425 161 m 99 587 q 119 637 109 601 q 141 705 132 683 q 286 852 180 798 q 348 873 302 860 q 399 892 390 886 q 181 808 263 892 q 99 587 99 724 m 297 1177 q 341 1185 319 1185 q 366 1182 353 1185 q 422 1141 403 1174 q 500 1099 445 1100 q 567 1137 534 1099 q 623 1171 595 1171 l 628 1171 q 661 1139 654 1168 q 663 1124 663 1132 q 650 1076 663 1101 q 496 983 608 987 q 465 982 478 982 q 422 985 433 982 q 365 1039 391 995 q 334 1059 353 1059 l 330 1059 q 290 1034 309 1056 q 254 1010 277 1019 q 229 1005 239 1005 q 221 1006 224 1005 q 201 1035 203 1011 l 201 1039 q 212 1086 201 1059 q 297 1177 242 1156 z "},"Ö":{"ha":863,"x_min":47,"x_max":816,"o":"m 649 886 q 770 722 726 827 q 816 505 812 623 l 816 489 q 781 282 816 380 q 666 102 742 171 q 440 14 573 18 l 427 14 q 217 100 296 14 q 54 447 81 248 q 47 532 47 490 q 140 814 47 691 q 384 939 216 916 q 454 943 420 943 q 649 886 572 943 m 315 427 q 289 342 289 382 q 338 239 289 287 q 408 204 372 204 q 422 205 415 204 q 491 266 466 213 q 514 359 514 314 q 505 415 514 388 q 416 498 476 497 q 315 427 357 498 m 423 156 q 524 212 486 156 q 559 329 559 262 q 534 275 557 328 q 467 191 511 223 q 423 156 425 161 m 99 587 q 119 637 109 601 q 141 705 132 683 q 286 852 180 798 q 348 873 302 860 q 399 892 390 886 q 181 808 263 892 q 99 587 99 724 m 335 1159 q 391 1103 381 1152 q 393 1080 393 1091 q 378 1019 393 1049 q 331 977 363 990 q 294 970 313 970 q 270 972 281 970 q 222 1005 238 980 q 210 1049 210 1024 q 212 1076 210 1062 q 257 1141 220 1118 q 318 1160 285 1160 q 335 1159 326 1160 m 258 1062 q 298 1096 268 1063 q 305 1103 304 1103 q 304 1109 304 1103 q 290 1112 297 1112 q 265 1100 277 1112 q 254 1077 254 1089 q 258 1062 254 1069 m 596 1159 q 652 1103 642 1152 q 654 1080 654 1091 q 639 1019 654 1049 q 592 977 624 990 q 555 970 574 970 q 531 972 543 970 q 483 1005 499 980 q 471 1049 471 1024 q 473 1076 471 1062 q 518 1141 481 1118 q 579 1160 546 1160 q 596 1159 587 1160 m 518 1085 q 568 1103 528 1083 q 577 1107 576 1107 q 578 1113 576 1107 q 566 1120 572 1118 q 538 1118 553 1125 q 520 1100 524 1112 q 518 1085 517 1093 z "},"×":{"ha":637,"x_min":68,"x_max":570,"o":"m 557 325 q 542 254 570 282 q 528 243 536 248 q 422 227 486 216 q 312 326 385 253 l 300 338 q 154 223 172 220 q 98 248 118 227 q 90 256 93 252 q 83 330 68 287 q 190 458 90 347 q 73 618 68 600 q 102 677 80 655 q 115 687 108 682 q 193 696 149 711 q 317 590 213 688 q 445 703 421 694 q 496 703 469 712 q 530 680 515 695 q 538 672 534 677 q 555 627 555 651 q 539 589 555 605 q 534 584 537 586 q 435 471 511 551 q 557 325 549 351 m 102 627 q 119 586 104 606 q 152 556 134 565 q 102 627 122 592 z "},"Ø":{"ha":863,"x_min":47,"x_max":816,"o":"m 524 212 q 559 329 559 262 q 534 275 557 328 q 467 191 511 223 q 423 156 425 161 q 524 212 486 156 m 119 637 q 141 705 132 683 q 286 852 180 798 q 348 873 302 860 q 399 892 390 886 q 181 808 263 892 q 99 587 99 724 q 119 637 109 601 m 362 218 q 408 204 385 204 q 422 205 415 204 q 491 266 466 213 q 514 359 514 314 q 505 415 514 388 q 494 439 500 428 q 433 336 465 390 q 362 218 395 272 m 320 258 q 412 410 362 328 q 458 485 436 449 q 416 498 439 498 q 315 427 357 498 q 289 342 289 382 q 320 258 289 298 m 718 815 q 770 722 749 774 q 816 505 812 623 l 816 489 q 781 282 816 380 q 666 102 742 171 q 440 14 573 18 l 427 14 q 265 58 333 14 q 194 -54 212 -28 q 155 -86 172 -80 q 149 -85 151 -87 q 147 -37 137 -76 q 222 94 176 16 q 217 100 220 97 q 54 447 81 248 q 47 532 47 490 q 140 814 47 691 q 384 939 216 916 q 454 943 420 943 q 649 886 572 943 q 685 854 668 871 q 734 928 727 920 q 772 955 758 950 q 778 955 775 956 q 777 922 787 950 q 766 901 772 912 q 718 815 758 884 z "},"Ù":{"ha":798,"x_min":44,"x_max":753,"o":"m 643 155 q 525 55 606 86 q 404 34 470 34 q 360 36 382 34 q 200 83 273 44 q 95 180 125 122 q 45 505 53 262 q 44 579 44 544 q 77 832 44 762 q 195 930 112 910 q 229 934 214 934 q 319 869 291 934 q 334 817 328 849 q 340 707 340 779 q 336 583 340 654 q 334 496 334 535 q 345 355 334 404 q 391 307 356 307 l 395 307 q 452 357 431 309 q 495 582 482 425 q 534 823 509 751 q 637 920 566 920 q 694 896 668 920 q 737 825 723 870 q 753 694 753 774 q 734 486 753 608 q 643 155 700 263 m 553 681 q 566 730 557 690 q 581 787 576 774 q 615 844 593 823 q 627 866 627 856 q 627 871 627 869 q 618 872 622 872 q 566 796 585 872 q 551 704 551 743 q 553 681 551 692 m 99 718 q 111 756 101 721 q 136 817 119 792 q 178 857 150 838 q 211 882 206 874 q 193 886 202 886 q 149 867 172 886 q 102 781 111 837 q 100 746 102 777 l 99 718 m 404 261 q 509 351 473 261 q 535 503 535 418 l 517 431 q 427 286 487 325 q 405 272 406 272 l 404 261 m 529 972 q 498 920 524 936 q 469 910 485 910 q 437 918 454 910 q 360 989 418 926 q 296 1074 302 1054 q 290 1103 290 1090 q 313 1150 290 1131 q 343 1162 327 1162 q 392 1139 366 1162 q 475 1056 424 1115 q 529 975 529 994 l 529 972 z "},"Ú":{"ha":798,"x_min":44,"x_max":753,"o":"m 643 155 q 525 55 606 86 q 404 34 470 34 q 360 36 382 34 q 200 83 273 44 q 95 180 125 122 q 45 505 53 262 q 44 579 44 544 q 77 832 44 762 q 195 930 112 910 q 229 934 214 934 q 319 869 291 934 q 334 817 328 849 q 340 707 340 779 q 336 583 340 654 q 334 496 334 535 q 345 355 334 404 q 391 307 356 307 l 395 307 q 452 357 431 309 q 495 582 482 425 q 534 823 509 751 q 637 920 566 920 q 694 896 668 920 q 737 825 723 870 q 753 694 753 774 q 734 486 753 608 q 643 155 700 263 m 553 681 q 566 730 557 690 q 581 787 576 774 q 615 844 593 823 q 627 866 627 856 q 627 871 627 869 q 618 872 622 872 q 566 796 585 872 q 551 704 551 743 q 553 681 551 692 m 99 718 q 111 756 101 721 q 136 817 119 792 q 178 857 150 838 q 211 882 206 874 q 193 886 202 886 q 149 867 172 886 q 102 781 111 837 q 100 746 102 777 l 99 718 m 404 261 q 509 351 473 261 q 535 503 535 418 l 517 431 q 427 286 487 325 q 405 272 406 272 l 404 261 m 302 975 l 302 977 q 356 1058 302 996 q 439 1141 408 1117 q 488 1164 465 1164 q 518 1152 504 1164 q 541 1105 541 1133 q 536 1076 541 1091 q 471 991 529 1056 q 393 920 412 928 q 363 912 377 912 q 332 922 347 912 q 302 975 307 938 m 351 982 q 441 1069 353 983 q 466 1105 463 1091 q 387 1037 437 1103 q 380 1029 383 1033 q 373 1022 375 1024 q 351 982 353 998 z "},"Û":{"ha":798,"x_min":44,"x_max":753,"o":"m 643 155 q 525 55 606 86 q 404 34 470 34 q 360 36 382 34 q 200 83 273 44 q 95 180 125 122 q 45 505 53 262 q 44 579 44 544 q 77 832 44 762 q 195 930 112 910 q 229 934 214 934 q 319 869 291 934 q 334 817 328 849 q 340 707 340 779 q 336 583 340 654 q 334 496 334 535 q 345 355 334 404 q 391 307 356 307 l 395 307 q 452 357 431 309 q 495 582 482 425 q 534 823 509 751 q 637 920 566 920 q 694 896 668 920 q 737 825 723 870 q 753 694 753 774 q 734 486 753 608 q 643 155 700 263 m 553 681 q 566 730 557 690 q 581 787 576 774 q 615 844 593 823 q 627 866 627 856 q 627 871 627 869 q 618 872 622 872 q 566 796 585 872 q 551 704 551 743 q 553 681 551 692 m 99 718 q 111 756 101 721 q 136 817 119 792 q 178 857 150 838 q 211 882 206 874 q 193 886 202 886 q 149 867 172 886 q 102 781 111 837 q 100 746 102 777 l 99 718 m 404 261 q 509 351 473 261 q 535 503 535 418 l 517 431 q 427 286 487 325 q 405 272 406 272 l 404 261 m 532 1139 q 637 968 631 1016 q 637 963 637 966 q 610 935 637 938 q 602 934 606 934 q 538 958 573 934 q 492 1002 524 968 q 436 1055 460 1036 q 315 965 368 1008 q 256 943 279 943 q 230 957 239 943 q 224 978 224 966 q 256 1044 224 1005 q 342 1140 261 1049 q 437 1201 397 1200 l 439 1201 q 532 1139 481 1201 m 275 1004 q 334 1056 292 1015 q 406 1123 385 1106 q 422 1143 421 1136 q 414 1144 419 1144 q 341 1084 389 1144 q 275 1004 277 1004 z "},"Ü":{"ha":798,"x_min":44,"x_max":753,"o":"m 643 155 q 525 55 606 86 q 404 34 470 34 q 360 36 382 34 q 200 83 273 44 q 95 180 125 122 q 45 505 53 262 q 44 579 44 544 q 77 832 44 762 q 195 930 112 910 q 229 934 214 934 q 319 869 291 934 q 334 817 328 849 q 340 707 340 779 q 336 583 340 654 q 334 496 334 535 q 345 355 334 404 q 391 307 356 307 l 395 307 q 452 357 431 309 q 495 582 482 425 q 534 823 509 751 q 637 920 566 920 q 694 896 668 920 q 737 825 723 870 q 753 694 753 774 q 734 486 753 608 q 643 155 700 263 m 553 681 q 566 730 557 690 q 581 787 576 774 q 615 844 593 823 q 627 866 627 856 q 627 871 627 869 q 618 872 622 872 q 566 796 585 872 q 551 704 551 743 q 553 681 551 692 m 99 718 q 111 756 101 721 q 136 817 119 792 q 178 857 150 838 q 211 882 206 874 q 193 886 202 886 q 149 867 172 886 q 102 781 111 837 q 100 746 102 777 l 99 718 m 404 261 q 509 351 473 261 q 535 503 535 418 l 517 431 q 427 286 487 325 q 405 272 406 272 l 404 261 m 332 1159 q 388 1103 378 1152 q 390 1080 390 1091 q 375 1019 390 1049 q 328 977 360 990 q 291 970 310 970 q 267 972 279 970 q 219 1005 235 980 q 207 1049 207 1024 q 210 1076 207 1062 q 254 1141 218 1118 q 315 1160 282 1160 q 332 1159 323 1160 m 255 1062 q 295 1096 265 1063 q 302 1103 302 1103 q 301 1109 302 1103 q 288 1112 294 1112 q 262 1100 274 1112 q 252 1077 252 1089 q 255 1062 252 1069 m 593 1159 q 649 1103 640 1152 q 651 1080 651 1091 q 636 1019 651 1049 q 589 977 621 990 q 552 970 571 970 q 528 972 540 970 q 480 1005 496 980 q 468 1049 468 1024 q 471 1076 468 1062 q 515 1141 479 1118 q 576 1160 543 1160 q 593 1159 585 1160 m 515 1085 q 565 1103 526 1083 q 574 1107 574 1107 q 575 1113 574 1107 q 564 1120 570 1118 q 536 1118 551 1125 q 517 1100 522 1112 q 515 1085 515 1093 z "},"Ý":{"ha":844,"x_min":27,"x_max":817,"o":"m 462 642 q 497 737 469 659 q 542 850 522 808 q 675 987 604 985 l 678 987 q 760 970 724 987 q 814 910 806 949 q 817 889 817 901 q 629 536 817 779 q 543 343 543 424 q 544 86 543 84 q 505 20 535 43 q 443 0 479 1 l 440 0 q 380 16 408 0 q 338 62 350 34 q 330 153 330 83 q 330 197 330 173 q 332 262 332 234 q 326 349 332 325 q 289 471 305 438 q 216 572 274 500 q 102 714 106 707 q 27 865 27 816 l 27 869 q 79 944 31 919 q 140 959 107 959 q 185 952 161 959 q 342 829 281 926 q 420 641 382 764 q 439 602 432 602 q 462 642 445 602 m 77 865 q 106 885 85 868 q 130 911 127 903 q 72 883 72 911 q 77 865 72 876 m 445 576 q 461 570 453 570 q 519 636 488 570 q 545 705 531 663 l 561 751 q 643 903 606 867 q 678 935 675 935 l 678 935 q 661 941 670 941 q 575 834 623 941 q 534 730 557 794 q 507 660 510 665 q 470 611 499 642 q 445 576 445 585 l 445 576 m 342 1000 l 342 1003 q 396 1084 342 1022 q 479 1166 448 1143 q 528 1190 505 1190 q 558 1178 544 1190 q 581 1131 581 1158 q 576 1102 581 1117 q 511 1017 569 1082 q 433 945 452 954 q 403 938 417 938 q 372 947 387 938 q 342 1000 347 964 m 391 1008 q 481 1095 393 1008 q 506 1131 503 1117 q 427 1063 477 1128 q 420 1055 423 1059 q 413 1048 415 1050 q 391 1008 393 1024 z "},"Þ":{"ha":788,"x_min":95,"x_max":693,"o":"m 334 380 q 332 376 333 377 q 370 372 352 372 q 467 403 425 372 q 488 433 488 418 q 487 439 488 436 q 438 475 481 460 q 371 491 394 491 q 345 471 345 491 q 334 380 342 413 m 98 807 q 136 889 106 858 q 203 924 164 918 q 220 925 212 925 q 275 911 249 925 q 330 854 311 892 q 340 746 338 811 q 458 718 403 741 q 514 692 487 707 q 652 562 605 639 q 693 436 690 498 l 693 428 q 566 251 693 332 q 333 177 450 177 q 313 178 323 177 q 294 70 302 86 q 225 0 262 3 l 222 0 q 161 69 184 0 q 115 430 142 127 q 95 750 95 653 q 98 807 95 788 m 142 805 q 170 838 143 806 q 199 871 197 871 l 199 871 q 157 851 174 871 q 142 805 142 834 m 429 334 q 492 358 459 334 q 518 395 518 377 q 515 408 518 401 q 475 370 508 403 q 446 347 460 355 q 429 334 434 340 z "},"ß":{"ha":769,"x_min":95,"x_max":674,"o":"m 419 258 q 374 307 414 288 q 363 311 368 309 q 358 313 361 312 q 331 357 338 318 q 328 384 328 371 q 334 418 328 403 q 413 494 342 443 q 464 562 464 530 q 463 574 464 568 q 362 633 446 633 l 349 633 q 329 633 334 633 l 327 633 q 307 613 311 629 q 290 407 290 549 q 303 102 290 283 q 307 32 307 54 q 304 12 307 15 q 252 0 297 0 q 214 1 235 0 q 118 17 165 5 q 98 36 103 21 q 95 437 97 41 l 95 597 q 98 866 95 846 q 118 897 103 890 q 260 920 184 920 q 372 908 313 920 q 592 806 506 880 q 674 652 674 734 q 673 630 674 641 q 504 421 658 520 q 437 391 489 411 q 446 393 440 393 q 536 366 469 393 q 648 253 637 325 q 650 233 650 243 q 610 138 650 185 q 479 45 564 82 q 452 38 467 38 q 420 45 438 38 q 359 88 387 58 q 326 153 331 119 q 325 165 325 159 q 348 220 325 196 l 353 220 q 394 227 376 220 q 419 256 419 236 l 419 258 m 371 389 q 397 410 380 391 q 439 451 421 436 q 498 528 490 492 q 465 495 488 525 q 420 454 455 481 q 379 418 386 427 q 371 389 371 406 m 359 168 q 373 157 366 157 q 377 158 375 157 q 414 178 378 158 q 449 233 449 198 q 407 197 443 231 q 381 182 398 189 q 359 168 366 176 z "},"à":{"ha":697,"x_min":27,"x_max":670,"o":"m 669 136 q 670 125 670 130 q 644 65 670 90 q 574 36 616 37 q 491 71 528 36 q 433 189 449 111 q 367 261 418 260 l 365 261 q 283 196 316 261 q 240 110 240 111 l 241 111 q 178 50 218 71 q 118 34 147 34 q 102 35 110 34 q 43 71 62 41 q 27 131 27 96 q 30 163 27 146 q 56 292 39 220 q 95 438 80 386 q 138 572 119 516 q 345 922 245 876 q 379 930 362 930 q 503 816 444 930 q 669 136 617 595 m 414 420 q 406 468 414 423 q 391 535 398 510 q 366 584 378 584 q 349 564 357 584 q 319 444 340 547 q 317 428 317 432 l 317 427 q 322 424 317 424 q 328 425 325 424 q 355 427 342 427 q 384 424 370 427 q 405 418 390 422 l 412 416 l 412 416 q 414 418 414 416 l 414 420 m 387 377 q 410 376 399 376 q 451 391 442 376 q 454 406 454 397 q 441 458 454 425 q 441 448 441 453 q 436 416 441 431 q 387 377 424 385 m 81 174 q 81 174 81 174 q 132 368 81 188 q 193 558 163 477 q 351 848 272 770 q 368 876 368 865 q 367 880 368 878 q 361 880 364 880 q 273 789 325 880 q 175 562 226 705 q 78 200 78 290 q 81 174 78 184 m 464 1038 q 433 985 458 1002 q 404 976 420 976 q 372 983 389 976 q 295 1055 353 991 q 231 1140 237 1120 q 225 1169 225 1156 q 248 1216 225 1197 q 278 1228 262 1228 q 327 1204 301 1228 q 410 1122 359 1181 q 464 1040 464 1059 l 464 1038 z "},"á":{"ha":697,"x_min":27,"x_max":670,"o":"m 669 136 q 670 125 670 130 q 644 65 670 90 q 574 36 616 37 q 491 71 528 36 q 433 189 449 111 q 367 261 418 260 l 365 261 q 283 196 316 261 q 240 110 240 111 l 241 111 q 178 50 218 71 q 118 34 147 34 q 102 35 110 34 q 43 71 62 41 q 27 131 27 96 q 30 163 27 146 q 56 292 39 220 q 95 438 80 386 q 138 572 119 516 q 345 922 245 876 q 379 930 362 930 q 503 816 444 930 q 669 136 617 595 m 414 420 q 406 468 414 423 q 391 535 398 510 q 366 584 378 584 q 349 564 357 584 q 319 444 340 547 q 317 428 317 432 l 317 427 q 322 424 317 424 q 328 425 325 424 q 355 427 342 427 q 384 424 370 427 q 405 418 390 422 l 412 416 l 412 416 q 414 418 414 416 l 414 420 m 387 377 q 410 376 399 376 q 451 391 442 376 q 454 406 454 397 q 441 458 454 425 q 441 448 441 453 q 436 416 441 431 q 387 377 424 385 m 81 174 q 81 174 81 174 q 132 368 81 188 q 193 558 163 477 q 351 848 272 770 q 368 876 368 865 q 367 880 368 878 q 361 880 364 880 q 273 789 325 880 q 175 562 226 705 q 78 200 78 290 q 81 174 78 184 m 269 1005 l 269 1008 q 323 1088 269 1027 q 406 1171 374 1147 q 454 1195 432 1195 q 485 1183 471 1195 q 507 1135 507 1163 q 503 1107 507 1122 q 437 1022 496 1086 q 360 950 379 958 q 330 943 344 943 q 299 952 313 943 q 269 1005 274 968 m 318 1013 q 408 1099 320 1013 q 433 1135 430 1122 q 353 1067 404 1133 q 347 1059 350 1063 q 340 1053 342 1055 q 318 1013 319 1029 z "},"â":{"ha":697,"x_min":27,"x_max":670,"o":"m 669 136 q 670 125 670 130 q 644 65 670 90 q 574 36 616 37 q 491 71 528 36 q 433 189 449 111 q 367 261 418 260 l 365 261 q 283 196 316 261 q 240 110 240 111 l 241 111 q 178 50 218 71 q 118 34 147 34 q 102 35 110 34 q 43 71 62 41 q 27 131 27 96 q 30 163 27 146 q 56 292 39 220 q 95 438 80 386 q 138 572 119 516 q 345 922 245 876 q 379 930 362 930 q 503 816 444 930 q 669 136 617 595 m 414 420 q 406 468 414 423 q 391 535 398 510 q 366 584 378 584 q 349 564 357 584 q 319 444 340 547 q 317 428 317 432 l 317 427 q 322 424 317 424 q 328 425 325 424 q 355 427 342 427 q 384 424 370 427 q 405 418 390 422 l 412 416 l 412 416 q 414 418 414 416 l 414 420 m 387 377 q 410 376 399 376 q 451 391 442 376 q 454 406 454 397 q 441 458 454 425 q 441 448 441 453 q 436 416 441 431 q 387 377 424 385 m 81 174 q 81 174 81 174 q 132 368 81 188 q 193 558 163 477 q 351 848 272 770 q 368 876 368 865 q 367 880 368 878 q 361 880 364 880 q 273 789 325 880 q 175 562 226 705 q 78 200 78 290 q 81 174 78 184 m 481 1104 q 585 934 580 981 q 586 928 586 931 q 558 900 586 903 q 550 899 554 899 q 486 923 522 899 q 440 968 473 934 q 385 1020 408 1002 q 264 930 317 973 q 205 908 227 908 q 178 922 187 908 q 173 943 173 932 q 205 1009 173 970 q 291 1105 210 1015 q 385 1166 345 1166 l 387 1166 q 481 1104 430 1166 m 223 969 q 283 1021 240 980 q 354 1088 334 1072 q 371 1108 370 1101 q 363 1109 368 1109 q 290 1050 337 1109 q 223 969 225 969 z "},"ã":{"ha":697,"x_min":27,"x_max":670,"o":"m 669 136 q 670 125 670 130 q 644 65 670 90 q 574 36 616 37 q 491 71 528 36 q 433 189 449 111 q 367 261 418 260 l 365 261 q 283 196 316 261 q 240 110 240 111 l 241 111 q 178 50 218 71 q 118 34 147 34 q 102 35 110 34 q 43 71 62 41 q 27 131 27 96 q 30 163 27 146 q 56 292 39 220 q 95 438 80 386 q 138 572 119 516 q 345 922 245 876 q 379 930 362 930 q 503 816 444 930 q 669 136 617 595 m 414 420 q 406 468 414 423 q 391 535 398 510 q 366 584 378 584 q 349 564 357 584 q 319 444 340 547 q 317 428 317 432 l 317 427 q 322 424 317 424 q 328 425 325 424 q 355 427 342 427 q 384 424 370 427 q 405 418 390 422 l 412 416 l 412 416 q 414 418 414 416 l 414 420 m 387 377 q 410 376 399 376 q 451 391 442 376 q 454 406 454 397 q 441 458 454 425 q 441 448 441 453 q 436 416 441 431 q 387 377 424 385 m 81 174 q 81 174 81 174 q 132 368 81 188 q 193 558 163 477 q 351 848 272 770 q 368 876 368 865 q 367 880 368 878 q 361 880 364 880 q 273 789 325 880 q 175 562 226 705 q 78 200 78 290 q 81 174 78 184 m 248 1166 q 292 1175 271 1175 q 317 1172 304 1175 q 373 1131 354 1164 q 452 1089 396 1090 q 518 1127 485 1089 q 574 1160 547 1160 l 579 1160 q 612 1129 606 1158 q 614 1114 614 1122 q 602 1066 614 1091 q 447 972 559 977 q 416 972 429 972 q 373 975 384 972 q 316 1029 342 985 q 286 1048 304 1048 l 281 1048 q 241 1024 260 1046 q 205 1000 229 1009 q 180 995 191 995 q 172 996 176 995 q 152 1025 154 1001 l 152 1029 q 163 1076 152 1049 q 248 1166 193 1145 z "},"ä":{"ha":697,"x_min":27,"x_max":670,"o":"m 669 136 q 670 125 670 130 q 644 65 670 90 q 574 36 616 37 q 491 71 528 36 q 433 189 449 111 q 367 261 418 260 l 365 261 q 283 196 316 261 q 240 110 240 111 l 241 111 q 178 50 218 71 q 118 34 147 34 q 102 35 110 34 q 43 71 62 41 q 27 131 27 96 q 30 163 27 146 q 56 292 39 220 q 95 438 80 386 q 138 572 119 516 q 345 922 245 876 q 379 930 362 930 q 503 816 444 930 q 669 136 617 595 m 414 420 q 406 468 414 423 q 391 535 398 510 q 366 584 378 584 q 349 564 357 584 q 319 444 340 547 q 317 428 317 432 l 317 427 q 322 424 317 424 q 328 425 325 424 q 355 427 342 427 q 384 424 370 427 q 405 418 390 422 l 412 416 l 412 416 q 414 418 414 416 l 414 420 m 387 377 q 410 376 399 376 q 451 391 442 376 q 454 406 454 397 q 441 458 454 425 q 441 448 441 453 q 436 416 441 431 q 387 377 424 385 m 81 174 q 81 174 81 174 q 132 368 81 188 q 193 558 163 477 q 351 848 272 770 q 368 876 368 865 q 367 880 368 878 q 361 880 364 880 q 273 789 325 880 q 175 562 226 705 q 78 200 78 290 q 81 174 78 184 m 273 1159 q 328 1103 319 1152 q 330 1080 330 1091 q 315 1019 330 1049 q 269 977 300 990 q 231 970 250 970 q 208 972 219 970 q 159 1005 176 980 q 147 1049 147 1024 q 150 1076 147 1062 q 195 1141 158 1118 q 256 1160 222 1160 q 273 1159 264 1160 m 195 1062 q 235 1096 205 1063 q 243 1103 242 1103 q 241 1109 242 1103 q 228 1112 235 1112 q 203 1100 214 1112 q 192 1077 192 1089 q 195 1062 192 1069 m 533 1159 q 589 1103 579 1152 q 591 1080 591 1091 q 576 1019 591 1049 q 529 977 561 990 q 492 970 511 970 q 468 972 479 970 q 420 1005 436 980 q 408 1049 408 1024 q 410 1076 408 1062 q 455 1141 418 1118 q 516 1160 483 1160 q 533 1159 524 1160 m 456 1085 q 505 1103 465 1083 q 515 1107 514 1107 q 515 1113 514 1107 q 503 1120 510 1118 q 476 1118 490 1125 q 458 1100 462 1112 q 456 1085 455 1093 z "},"å":{"ha":697,"x_min":27,"x_max":670,"o":"m 669 136 q 670 125 670 130 q 644 65 670 90 q 574 36 616 37 q 491 71 528 36 q 433 189 449 111 q 367 261 418 260 l 365 261 q 283 196 316 261 q 240 110 240 111 l 241 111 q 178 50 218 71 q 118 34 147 34 q 102 35 110 34 q 43 71 62 41 q 27 131 27 96 q 30 163 27 146 q 56 292 39 220 q 95 438 80 386 q 138 572 119 516 q 345 922 245 876 q 379 930 362 930 q 503 816 444 930 q 669 136 617 595 m 414 420 q 406 468 414 423 q 391 535 398 510 q 366 584 378 584 q 349 564 357 584 q 319 444 340 547 q 317 428 317 432 l 317 427 q 322 424 317 424 q 328 425 325 424 q 355 427 342 427 q 384 424 370 427 q 405 418 390 422 l 412 416 l 412 416 q 414 418 414 416 l 414 420 m 387 377 q 410 376 399 376 q 451 391 442 376 q 454 406 454 397 q 441 458 454 425 q 441 448 441 453 q 436 416 441 431 q 387 377 424 385 m 81 174 q 81 174 81 174 q 132 368 81 188 q 193 558 163 477 q 351 848 272 770 q 368 876 368 865 q 367 880 368 878 q 361 880 364 880 q 273 789 325 880 q 175 562 226 705 q 78 200 78 290 q 81 174 78 184 m 304 1134 q 376 1164 333 1164 q 403 1162 389 1164 q 487 1097 463 1149 q 496 1051 496 1076 q 494 1026 496 1039 q 460 965 486 984 q 378 936 421 936 l 370 936 q 290 981 319 938 q 275 1039 275 1002 q 276 1059 275 1048 q 304 1134 281 1109 m 363 1027 q 384 1014 373 1014 q 403 1023 393 1014 q 414 1048 413 1034 l 414 1050 q 406 1072 414 1063 q 380 1086 394 1086 q 375 1085 378 1086 q 354 1062 357 1081 q 353 1055 353 1058 q 363 1027 353 1041 z "},"æ":{"ha":1221,"x_min":27,"x_max":1196,"o":"m 81 176 q 132 368 83 195 q 193 558 163 477 q 351 848 272 770 q 368 876 368 865 q 367 880 368 878 q 361 880 364 880 q 273 789 325 880 q 175 562 226 705 q 78 200 78 290 q 81 176 78 185 m 638 651 q 656 709 647 688 q 788 830 690 789 q 837 848 792 832 q 880 865 873 861 q 691 800 779 865 q 625 610 625 751 q 638 651 631 619 m 387 377 q 410 376 399 376 q 451 391 442 376 q 454 406 454 397 q 441 458 454 425 q 441 448 441 453 q 436 416 441 431 q 387 377 424 385 m 406 468 q 391 535 398 510 q 366 584 378 584 q 349 564 357 584 q 319 444 340 547 q 317 428 317 432 l 317 427 q 322 424 317 424 q 328 425 325 424 q 355 427 342 427 q 384 424 370 427 q 405 418 390 422 l 412 416 l 412 416 q 414 418 414 416 l 414 420 q 406 468 414 423 m 658 81 q 644 65 652 73 q 574 36 616 37 q 491 71 528 36 q 433 189 449 111 q 367 261 418 260 l 365 261 q 283 196 316 261 q 240 110 240 111 l 241 111 q 178 50 218 71 q 118 34 147 34 q 102 35 110 34 q 43 71 62 41 q 27 131 27 96 q 30 163 27 146 q 56 292 39 220 q 95 438 80 386 q 138 572 119 516 q 345 922 245 876 q 379 930 362 930 q 503 816 444 930 q 579 620 545 734 q 642 800 593 741 q 817 903 692 862 q 921 917 858 917 q 971 915 945 917 q 1126 880 1073 909 q 1185 800 1166 858 q 1196 737 1196 768 q 1185 675 1196 706 q 1122 587 1162 609 q 1065 573 1099 573 q 1017 578 1043 573 q 960 587 982 587 q 931 581 941 587 q 908 549 908 566 q 919 527 908 538 q 1029 503 936 509 q 1085 492 1067 500 q 1115 450 1114 480 l 1115 444 q 1054 362 1115 380 q 993 352 1034 357 q 932 342 949 347 q 899 318 899 334 l 899 316 q 935 294 901 300 q 951 294 941 294 q 977 294 962 294 q 1016 295 1000 295 l 1029 295 q 1096 257 1092 292 q 1098 223 1098 239 q 996 66 1098 112 q 794 34 924 34 q 760 35 777 34 q 658 81 699 36 z "},"ç":{"ha":703,"x_min":47,"x_max":656,"o":"m 395 312 q 541 368 478 333 q 475 313 532 327 q 430 307 450 307 q 395 312 410 307 m 91 570 q 130 734 91 654 q 237 865 170 818 q 292 889 259 880 q 326 896 313 896 q 345 890 338 896 q 300 871 336 885 q 252 846 269 857 q 91 570 163 779 m 395 -157 q 422 -132 422 -133 q 370 -184 422 -184 q 395 -157 372 -178 m 299 39 q 285 -39 285 -11 q 286 -54 285 -47 l 286 -56 q 307 -62 286 -62 q 351 -66 343 -64 q 394 -99 394 -72 q 387 -123 394 -109 q 366 -146 378 -143 q 362 -146 364 -146 q 338 -140 353 -146 q 264 -122 297 -122 q 246 -124 256 -122 q 210 -144 216 -130 q 208 -153 208 -149 q 217 -176 208 -163 q 314 -240 244 -214 q 393 -256 358 -256 q 443 -247 420 -256 q 509 -127 507 -222 q 510 -113 510 -121 q 481 -48 510 -77 q 404 -6 452 -18 l 405 -3 q 419 29 414 14 l 420 29 q 565 100 504 38 q 639 231 618 154 q 648 296 648 266 q 637 357 648 330 q 558 412 615 412 l 555 412 q 478 391 526 412 q 399 363 425 367 q 373 361 385 361 q 300 387 330 361 q 265 463 267 416 l 265 467 q 296 539 265 511 q 366 564 323 564 q 392 562 378 564 q 480 535 417 559 q 567 513 536 514 l 570 513 q 647 576 627 513 q 656 637 656 604 q 644 718 656 674 q 567 865 622 805 q 420 943 504 935 q 382 945 401 945 q 138 815 231 945 q 47 496 47 688 l 47 487 q 143 159 49 290 q 299 39 208 67 z "},"è":{"ha":712,"x_min":68,"x_max":692,"o":"m 414 527 q 525 503 431 509 q 581 492 563 500 q 610 450 609 480 l 610 444 q 549 362 610 380 q 488 352 530 357 q 427 342 445 347 q 394 318 394 334 l 394 316 q 431 294 397 300 q 446 294 436 294 q 472 294 457 294 q 511 295 496 295 l 524 295 q 591 257 587 292 q 593 223 593 239 q 491 66 593 112 q 290 34 419 34 q 255 35 273 34 q 89 224 130 38 q 68 483 68 317 l 68 513 q 73 608 68 562 q 137 800 85 738 q 312 903 187 862 q 416 917 353 917 q 467 915 440 917 q 622 880 568 909 q 681 800 661 858 q 692 737 692 768 q 681 675 692 706 q 618 587 657 609 q 560 573 594 573 q 513 578 538 573 q 455 587 477 587 q 427 581 436 587 q 404 549 404 566 q 414 527 404 538 m 121 610 q 134 651 127 619 q 151 709 142 688 q 283 830 186 789 q 332 848 288 832 q 375 865 369 861 q 186 800 274 865 q 121 610 121 751 m 487 1002 q 456 949 481 966 q 427 940 443 940 q 395 947 412 940 q 318 1019 376 956 q 254 1104 260 1084 q 248 1133 248 1120 q 271 1180 248 1161 q 301 1192 285 1192 q 350 1168 324 1192 q 433 1086 382 1145 q 487 1004 487 1023 l 487 1002 z "},"é":{"ha":712,"x_min":68,"x_max":692,"o":"m 414 527 q 525 503 431 509 q 581 492 563 500 q 610 450 609 480 l 610 444 q 549 362 610 380 q 488 352 530 357 q 427 342 445 347 q 394 318 394 334 l 394 316 q 431 294 397 300 q 446 294 436 294 q 472 294 457 294 q 511 295 496 295 l 524 295 q 591 257 587 292 q 593 223 593 239 q 491 66 593 112 q 290 34 419 34 q 255 35 273 34 q 89 224 130 38 q 68 483 68 317 l 68 513 q 73 608 68 562 q 137 800 85 738 q 312 903 187 862 q 416 917 353 917 q 467 915 440 917 q 622 880 568 909 q 681 800 661 858 q 692 737 692 768 q 681 675 692 706 q 618 587 657 609 q 560 573 594 573 q 513 578 538 573 q 455 587 477 587 q 427 581 436 587 q 404 549 404 566 q 414 527 404 538 m 121 610 q 134 651 127 619 q 151 709 142 688 q 283 830 186 789 q 332 848 288 832 q 375 865 369 861 q 186 800 274 865 q 121 610 121 751 m 267 1000 l 267 1002 q 320 1083 267 1021 q 403 1166 372 1142 q 452 1190 429 1190 q 482 1177 468 1190 q 505 1130 505 1158 q 500 1101 505 1116 q 435 1017 493 1081 q 357 945 376 953 q 327 937 341 937 q 296 947 311 937 q 267 1000 271 963 m 315 1007 q 405 1094 317 1008 q 430 1130 427 1116 q 351 1062 401 1128 q 344 1054 347 1058 q 337 1047 339 1049 q 315 1007 317 1023 z "},"ê":{"ha":712,"x_min":68,"x_max":692,"o":"m 414 527 q 525 503 431 509 q 581 492 563 500 q 610 450 609 480 l 610 444 q 549 362 610 380 q 488 352 530 357 q 427 342 445 347 q 394 318 394 334 l 394 316 q 431 294 397 300 q 446 294 436 294 q 472 294 457 294 q 511 295 496 295 l 524 295 q 591 257 587 292 q 593 223 593 239 q 491 66 593 112 q 290 34 419 34 q 255 35 273 34 q 89 224 130 38 q 68 483 68 317 l 68 513 q 73 608 68 562 q 137 800 85 738 q 312 903 187 862 q 416 917 353 917 q 467 915 440 917 q 622 880 568 909 q 681 800 661 858 q 692 737 692 768 q 681 675 692 706 q 618 587 657 609 q 560 573 594 573 q 513 578 538 573 q 455 587 477 587 q 427 581 436 587 q 404 549 404 566 q 414 527 404 538 m 121 610 q 134 651 127 619 q 151 709 142 688 q 283 830 186 789 q 332 848 288 832 q 375 865 369 861 q 186 800 274 865 q 121 610 121 751 m 528 1126 q 633 956 627 1004 q 633 951 633 954 q 606 922 633 926 q 597 922 602 922 q 534 945 569 922 q 488 990 520 956 q 432 1042 456 1024 q 311 953 364 996 q 252 930 275 930 q 226 945 235 930 q 220 966 220 954 q 252 1031 220 993 q 338 1128 257 1037 q 433 1189 393 1188 l 435 1189 q 528 1126 477 1189 m 271 991 q 330 1044 288 1002 q 401 1111 381 1094 q 418 1131 417 1124 q 410 1132 415 1132 q 337 1072 385 1132 q 271 991 273 991 z "},"ë":{"ha":712,"x_min":68,"x_max":692,"o":"m 414 527 q 525 503 431 509 q 581 492 563 500 q 610 450 609 480 l 610 444 q 549 362 610 380 q 488 352 530 357 q 427 342 445 347 q 394 318 394 334 l 394 316 q 431 294 397 300 q 446 294 436 294 q 472 294 457 294 q 511 295 496 295 l 524 295 q 591 257 587 292 q 593 223 593 239 q 491 66 593 112 q 290 34 419 34 q 255 35 273 34 q 89 224 130 38 q 68 483 68 317 l 68 513 q 73 608 68 562 q 137 800 85 738 q 312 903 187 862 q 416 917 353 917 q 467 915 440 917 q 622 880 568 909 q 681 800 661 858 q 692 737 692 768 q 681 675 692 706 q 618 587 657 609 q 560 573 594 573 q 513 578 538 573 q 455 587 477 587 q 427 581 436 587 q 404 549 404 566 q 414 527 404 538 m 121 610 q 134 651 127 619 q 151 709 142 688 q 283 830 186 789 q 332 848 288 832 q 375 865 369 861 q 186 800 274 865 q 121 610 121 751 m 304 1152 q 359 1097 350 1145 q 361 1073 361 1084 q 347 1013 361 1042 q 300 970 332 983 q 262 963 281 963 q 239 966 250 963 q 191 998 207 973 q 178 1042 178 1017 q 181 1069 178 1055 q 226 1135 189 1111 q 287 1154 254 1154 q 304 1152 295 1154 m 227 1055 q 267 1089 237 1057 q 274 1097 273 1097 q 273 1102 273 1097 q 259 1105 266 1105 q 234 1093 245 1105 q 223 1070 223 1082 q 227 1055 223 1063 m 564 1152 q 620 1097 610 1145 q 622 1073 622 1084 q 607 1013 622 1042 q 560 970 592 983 q 523 963 542 963 q 499 966 511 963 q 451 998 467 973 q 439 1042 439 1017 q 441 1069 439 1055 q 486 1135 450 1111 q 547 1154 514 1154 q 564 1152 555 1154 m 487 1078 q 536 1096 496 1076 q 546 1101 545 1101 q 546 1106 545 1101 q 534 1114 541 1111 q 507 1112 522 1118 q 489 1093 493 1105 q 487 1078 486 1086 z "},"ì":{"ha":633,"x_min":54,"x_max":595,"o":"m 193 583 q 154 591 178 588 q 117 597 124 595 q 67 641 77 606 q 54 730 54 684 l 54 738 q 71 842 55 800 q 252 926 97 913 q 371 929 286 929 q 523 901 466 929 q 593 774 581 872 q 595 730 595 751 q 559 627 595 673 q 508 589 537 598 q 459 583 497 586 q 420 568 433 581 q 395 507 402 551 q 392 422 392 483 q 393 403 392 411 q 411 289 395 301 q 471 280 418 283 q 506 274 493 276 q 543 208 543 259 l 543 205 q 519 50 550 75 q 279 28 488 31 q 251 27 264 27 q 135 43 161 27 q 104 100 111 58 q 102 207 102 195 q 111 249 102 231 q 166 271 121 270 q 226 283 215 272 q 237 384 237 309 q 236 414 237 412 q 193 583 230 568 m 107 777 q 125 810 111 781 q 155 842 136 831 q 201 861 169 850 q 237 875 232 871 q 136 857 169 875 q 105 821 115 846 q 100 799 100 809 q 107 777 100 787 m 144 222 q 144 216 144 219 q 165 201 144 201 l 168 201 q 210 212 191 203 q 265 264 249 231 q 275 307 275 284 q 267 348 275 326 q 267 332 267 347 q 262 301 266 315 q 208 239 252 256 q 168 235 199 235 q 144 222 146 235 m 404 1023 q 374 970 399 986 q 344 960 360 960 q 313 968 329 960 q 235 1040 294 976 q 171 1124 178 1104 q 165 1154 165 1140 q 188 1200 165 1181 q 218 1213 202 1213 q 267 1189 241 1213 q 350 1106 299 1165 q 404 1025 404 1044 l 404 1023 z "},"í":{"ha":633,"x_min":54,"x_max":595,"o":"m 193 583 q 154 591 178 588 q 117 597 124 595 q 67 641 77 606 q 54 730 54 684 l 54 738 q 71 842 55 800 q 252 926 97 913 q 371 929 286 929 q 523 901 466 929 q 593 774 581 872 q 595 730 595 751 q 559 627 595 673 q 508 589 537 598 q 459 583 497 586 q 420 568 433 581 q 395 507 402 551 q 392 422 392 483 q 393 403 392 411 q 411 289 395 301 q 471 280 418 283 q 506 274 493 276 q 543 208 543 259 l 543 205 q 519 50 550 75 q 279 28 488 31 q 251 27 264 27 q 135 43 161 27 q 104 100 111 58 q 102 207 102 195 q 111 249 102 231 q 166 271 121 270 q 226 283 215 272 q 237 384 237 309 q 236 414 237 412 q 193 583 230 568 m 107 777 q 125 810 111 781 q 155 842 136 831 q 201 861 169 850 q 237 875 232 871 q 136 857 169 875 q 105 821 115 846 q 100 799 100 809 q 107 777 100 787 m 144 222 q 144 216 144 219 q 165 201 144 201 l 168 201 q 210 212 191 203 q 265 264 249 231 q 275 307 275 284 q 267 348 275 326 q 267 332 267 347 q 262 301 266 315 q 208 239 252 256 q 168 235 199 235 q 144 222 146 235 m 227 1017 l 227 1020 q 280 1101 227 1039 q 363 1183 332 1160 q 412 1207 389 1207 q 442 1195 428 1207 q 465 1147 465 1175 q 460 1119 465 1134 q 395 1034 453 1099 q 317 962 336 970 q 287 955 301 955 q 256 964 271 955 q 227 1017 231 981 m 275 1025 q 365 1112 277 1025 q 390 1147 387 1134 q 311 1080 361 1145 q 304 1072 307 1076 q 297 1065 299 1067 q 275 1025 277 1041 z "},"î":{"ha":633,"x_min":54,"x_max":595,"o":"m 193 583 q 154 591 178 588 q 117 597 124 595 q 67 641 77 606 q 54 730 54 684 l 54 738 q 71 842 55 800 q 252 926 97 913 q 371 929 286 929 q 523 901 466 929 q 593 774 581 872 q 595 730 595 751 q 559 627 595 673 q 508 589 537 598 q 459 583 497 586 q 420 568 433 581 q 395 507 402 551 q 392 422 392 483 q 393 403 392 411 q 411 289 395 301 q 471 280 418 283 q 506 274 493 276 q 543 208 543 259 l 543 205 q 519 50 550 75 q 279 28 488 31 q 251 27 264 27 q 135 43 161 27 q 104 100 111 58 q 102 207 102 195 q 111 249 102 231 q 166 271 121 270 q 226 283 215 272 q 237 384 237 309 q 236 414 237 412 q 193 583 230 568 m 107 777 q 125 810 111 781 q 155 842 136 831 q 201 861 169 850 q 237 875 232 871 q 136 857 169 875 q 105 821 115 846 q 100 799 100 809 q 107 777 100 787 m 144 222 q 144 216 144 219 q 165 201 144 201 l 168 201 q 210 212 191 203 q 265 264 249 231 q 275 307 275 284 q 267 348 275 326 q 267 332 267 347 q 262 301 266 315 q 208 239 252 256 q 168 235 199 235 q 144 222 146 235 m 426 1145 q 530 975 525 1023 q 531 970 531 972 q 503 941 531 945 q 495 941 499 941 q 431 964 467 941 q 385 1009 418 975 q 330 1061 353 1043 q 209 972 262 1015 q 150 949 172 949 q 123 964 132 949 q 118 985 118 973 q 150 1050 118 1012 q 236 1147 155 1056 q 330 1208 290 1207 l 332 1208 q 426 1145 375 1208 m 168 1010 q 228 1063 185 1021 q 299 1130 279 1113 q 316 1149 315 1143 q 308 1151 313 1151 q 235 1091 282 1151 q 168 1010 170 1010 z "},"ï":{"ha":633,"x_min":54,"x_max":595,"o":"m 193 583 q 154 591 178 588 q 117 597 124 595 q 67 641 77 606 q 54 730 54 684 l 54 738 q 71 842 55 800 q 252 926 97 913 q 371 929 286 929 q 523 901 466 929 q 593 774 581 872 q 595 730 595 751 q 559 627 595 673 q 508 589 537 598 q 459 583 497 586 q 420 568 433 581 q 395 507 402 551 q 392 422 392 483 q 393 403 392 411 q 411 289 395 301 q 471 280 418 283 q 506 274 493 276 q 543 208 543 259 l 543 205 q 519 50 550 75 q 279 28 488 31 q 251 27 264 27 q 135 43 161 27 q 104 100 111 58 q 102 207 102 195 q 111 249 102 231 q 166 271 121 270 q 226 283 215 272 q 237 384 237 309 q 236 414 237 412 q 193 583 230 568 m 107 777 q 125 810 111 781 q 155 842 136 831 q 201 861 169 850 q 237 875 232 871 q 136 857 169 875 q 105 821 115 846 q 100 799 100 809 q 107 777 100 787 m 144 222 q 144 216 144 219 q 165 201 144 201 l 168 201 q 210 212 191 203 q 265 264 249 231 q 275 307 275 284 q 267 348 275 326 q 267 332 267 347 q 262 301 266 315 q 208 239 252 256 q 168 235 199 235 q 144 222 146 235 m 228 1159 q 283 1103 274 1152 q 286 1080 286 1091 q 271 1019 286 1049 q 224 977 256 990 q 186 970 205 970 q 163 972 174 970 q 115 1005 131 980 q 102 1049 102 1024 q 105 1076 102 1062 q 150 1141 113 1118 q 211 1160 178 1160 q 228 1159 219 1160 m 151 1062 q 191 1096 161 1063 q 198 1103 197 1103 q 197 1109 197 1103 q 183 1112 190 1112 q 158 1100 170 1112 q 147 1077 147 1089 q 151 1062 147 1069 m 489 1159 q 545 1103 535 1152 q 547 1080 547 1091 q 532 1019 547 1049 q 485 977 517 990 q 448 970 467 970 q 424 972 435 970 q 376 1005 392 980 q 363 1049 363 1024 q 366 1076 363 1062 q 411 1141 374 1118 q 472 1160 439 1160 q 489 1159 480 1160 m 411 1085 q 460 1103 421 1083 q 470 1107 469 1107 q 471 1113 469 1107 q 459 1120 465 1118 q 431 1118 446 1125 q 413 1100 417 1112 q 411 1085 410 1093 z "},"ð":{"ha":814,"x_min":-18,"x_max":787,"o":"m 172 796 q 189 850 181 834 q 226 890 205 880 q 261 908 258 905 q 240 914 252 914 q 218 910 230 914 q 176 872 188 900 q 159 753 159 835 q 172 796 164 760 m 498 323 q 557 420 557 361 q 522 380 551 418 q 434 313 491 338 q 381 288 382 290 q 498 323 446 288 m 317 406 q 308 345 313 371 q 307 338 307 341 q 347 334 326 334 q 406 342 375 334 q 486 385 455 356 q 513 435 513 410 q 513 445 513 440 q 448 506 505 480 q 358 532 389 532 q 322 499 323 532 q 321 458 321 478 q 326 458 324 458 q 386 430 386 449 l 386 429 q 317 406 385 409 m 102 463 q 132 865 113 793 q 281 960 156 960 q 475 913 378 960 q 549 867 513 894 q 733 650 670 780 q 787 440 783 544 l 787 428 q 736 260 787 344 q 598 114 686 178 q 418 24 513 52 q 304 7 357 7 q 239 14 270 7 q 134 70 172 29 q 95 172 95 112 l 95 178 q 96 203 95 191 q 100 404 98 312 q 72 404 84 404 q 5 410 14 406 q -18 432 -18 421 q -18 437 -18 435 q 30 458 -12 451 q 78 463 52 462 l 102 463 z "},"ñ":{"ha":829,"x_min":95,"x_max":755,"o":"m 266 73 q 237 27 261 43 q 187 14 216 14 l 184 14 q 133 31 155 15 q 104 76 109 47 q 95 311 95 141 q 96 428 95 364 q 99 780 99 691 l 99 827 q 117 907 99 882 q 166 932 133 928 q 179 932 173 932 q 222 922 203 932 q 291 845 256 903 q 453 467 384 692 q 486 390 477 390 l 487 390 q 514 488 494 394 q 528 722 524 535 q 550 910 531 883 q 648 959 585 959 q 663 958 656 959 q 748 876 741 951 q 755 712 755 803 q 744 455 755 597 q 642 56 719 125 q 549 20 604 22 l 541 20 q 453 51 489 20 q 311 237 356 135 q 293 284 302 259 q 283 310 283 309 q 280 314 281 314 q 279 311 279 314 q 277 283 278 307 q 266 73 273 117 m 582 836 q 586 842 585 838 q 603 874 601 871 q 621 889 608 880 q 639 904 634 898 q 628 909 632 909 q 618 911 623 911 q 583 887 597 911 q 574 859 574 872 q 582 836 574 846 m 490 364 q 512 357 502 357 q 553 414 542 357 q 566 494 566 456 q 564 522 566 509 q 555 485 561 514 q 543 435 548 453 q 490 364 523 372 m 127 762 q 172 877 137 848 q 180 888 178 882 q 166 890 172 890 q 134 867 145 890 q 123 810 123 844 q 127 762 123 787 m 290 1169 q 334 1177 313 1177 q 359 1175 347 1177 q 415 1133 396 1166 q 494 1092 438 1093 q 560 1130 527 1092 q 616 1163 589 1163 l 621 1163 q 654 1132 648 1160 q 656 1116 656 1124 q 644 1069 656 1094 q 489 975 602 980 q 458 975 471 975 q 415 978 426 975 q 358 1031 385 987 q 328 1051 347 1051 l 323 1051 q 283 1027 302 1048 q 247 1003 271 1012 q 222 998 233 998 q 214 999 218 998 q 194 1027 196 1004 l 194 1031 q 205 1078 194 1052 q 290 1169 235 1148 z "},"ò":{"ha":863,"x_min":47,"x_max":816,"o":"m 649 886 q 770 722 726 827 q 816 505 812 623 l 816 489 q 781 282 816 380 q 666 102 742 171 q 440 14 573 18 l 427 14 q 217 100 296 14 q 54 447 81 248 q 47 532 47 490 q 140 814 47 691 q 384 939 216 916 q 454 943 420 943 q 649 886 572 943 m 315 427 q 289 342 289 382 q 338 239 289 287 q 408 204 372 204 q 422 205 415 204 q 491 266 466 213 q 514 359 514 314 q 505 415 514 388 q 416 498 476 497 q 315 427 357 498 m 423 156 q 524 212 486 156 q 559 329 559 262 q 534 275 557 328 q 467 191 511 223 q 423 156 425 161 m 99 587 q 119 637 109 601 q 141 705 132 683 q 286 852 180 798 q 348 873 302 860 q 399 892 390 886 q 181 808 263 892 q 99 587 99 724 m 511 1016 q 481 963 506 979 q 451 954 467 954 q 420 961 436 954 q 342 1033 401 969 q 278 1118 285 1097 q 273 1147 273 1133 q 295 1194 273 1175 q 326 1206 309 1206 q 374 1182 349 1206 q 457 1099 406 1158 q 511 1018 511 1037 l 511 1016 z "},"ó":{"ha":863,"x_min":47,"x_max":816,"o":"m 649 886 q 770 722 726 827 q 816 505 812 623 l 816 489 q 781 282 816 380 q 666 102 742 171 q 440 14 573 18 l 427 14 q 217 100 296 14 q 54 447 81 248 q 47 532 47 490 q 140 814 47 691 q 384 939 216 916 q 454 943 420 943 q 649 886 572 943 m 315 427 q 289 342 289 382 q 338 239 289 287 q 408 204 372 204 q 422 205 415 204 q 491 266 466 213 q 514 359 514 314 q 505 415 514 388 q 416 498 476 497 q 315 427 357 498 m 423 156 q 524 212 486 156 q 559 329 559 262 q 534 275 557 328 q 467 191 511 223 q 423 156 425 161 m 99 587 q 119 637 109 601 q 141 705 132 683 q 286 852 180 798 q 348 873 302 860 q 399 892 390 886 q 181 808 263 892 q 99 587 99 724 m 353 1014 l 353 1017 q 406 1097 353 1036 q 489 1180 458 1156 q 538 1204 515 1204 q 568 1192 554 1204 q 591 1144 591 1172 q 586 1116 591 1131 q 521 1031 579 1095 q 444 959 463 967 q 413 951 427 951 q 382 961 397 951 q 353 1014 357 977 m 401 1021 q 491 1108 404 1022 q 516 1144 513 1131 q 437 1076 488 1142 q 430 1068 433 1072 q 423 1061 425 1063 q 401 1021 403 1038 z "},"ô":{"ha":863,"x_min":47,"x_max":816,"o":"m 649 886 q 770 722 726 827 q 816 505 812 623 l 816 489 q 781 282 816 380 q 666 102 742 171 q 440 14 573 18 l 427 14 q 217 100 296 14 q 54 447 81 248 q 47 532 47 490 q 140 814 47 691 q 384 939 216 916 q 454 943 420 943 q 649 886 572 943 m 315 427 q 289 342 289 382 q 338 239 289 287 q 408 204 372 204 q 422 205 415 204 q 491 266 466 213 q 514 359 514 314 q 505 415 514 388 q 416 498 476 497 q 315 427 357 498 m 423 156 q 524 212 486 156 q 559 329 559 262 q 534 275 557 328 q 467 191 511 223 q 423 156 425 161 m 99 587 q 119 637 109 601 q 141 705 132 683 q 286 852 180 798 q 348 873 302 860 q 399 892 390 886 q 181 808 263 892 q 99 587 99 724 m 533 1145 q 637 975 632 1023 q 638 970 638 972 q 610 941 638 945 q 602 941 606 941 q 538 964 574 941 q 492 1009 525 975 q 437 1061 460 1043 q 316 972 369 1015 q 257 949 279 949 q 231 964 239 949 q 225 985 225 973 q 257 1050 225 1012 q 343 1147 262 1056 q 437 1208 397 1207 l 439 1208 q 533 1145 482 1208 m 275 1010 q 335 1063 292 1021 q 406 1130 386 1113 q 423 1149 422 1143 q 415 1151 420 1151 q 342 1091 389 1151 q 275 1010 277 1010 z "},"õ":{"ha":863,"x_min":47,"x_max":816,"o":"m 649 886 q 770 722 726 827 q 816 505 812 623 l 816 489 q 781 282 816 380 q 666 102 742 171 q 440 14 573 18 l 427 14 q 217 100 296 14 q 54 447 81 248 q 47 532 47 490 q 140 814 47 691 q 384 939 216 916 q 454 943 420 943 q 649 886 572 943 m 315 427 q 289 342 289 382 q 338 239 289 287 q 408 204 372 204 q 422 205 415 204 q 491 266 466 213 q 514 359 514 314 q 505 415 514 388 q 416 498 476 497 q 315 427 357 498 m 423 156 q 524 212 486 156 q 559 329 559 262 q 534 275 557 328 q 467 191 511 223 q 423 156 425 161 m 99 587 q 119 637 109 601 q 141 705 132 683 q 286 852 180 798 q 348 873 302 860 q 399 892 390 886 q 181 808 263 892 q 99 587 99 724 m 297 1177 q 341 1185 319 1185 q 366 1182 353 1185 q 422 1141 403 1174 q 500 1099 445 1100 q 567 1137 534 1099 q 623 1171 595 1171 l 628 1171 q 661 1139 654 1168 q 663 1124 663 1132 q 650 1076 663 1101 q 496 983 608 987 q 465 982 478 982 q 422 985 433 982 q 365 1039 391 995 q 334 1059 353 1059 l 330 1059 q 290 1034 309 1056 q 254 1010 277 1019 q 229 1005 239 1005 q 221 1006 224 1005 q 201 1035 203 1011 l 201 1039 q 212 1086 201 1059 q 297 1177 242 1156 z "},"ö":{"ha":863,"x_min":47,"x_max":816,"o":"m 649 886 q 770 722 726 827 q 816 505 812 623 l 816 489 q 781 282 816 380 q 666 102 742 171 q 440 14 573 18 l 427 14 q 217 100 296 14 q 54 447 81 248 q 47 532 47 490 q 140 814 47 691 q 384 939 216 916 q 454 943 420 943 q 649 886 572 943 m 315 427 q 289 342 289 382 q 338 239 289 287 q 408 204 372 204 q 422 205 415 204 q 491 266 466 213 q 514 359 514 314 q 505 415 514 388 q 416 498 476 497 q 315 427 357 498 m 423 156 q 524 212 486 156 q 559 329 559 262 q 534 275 557 328 q 467 191 511 223 q 423 156 425 161 m 99 587 q 119 637 109 601 q 141 705 132 683 q 286 852 180 798 q 348 873 302 860 q 399 892 390 886 q 181 808 263 892 q 99 587 99 724 m 335 1159 q 391 1103 381 1152 q 393 1080 393 1091 q 378 1019 393 1049 q 331 977 363 990 q 294 970 313 970 q 270 972 281 970 q 222 1005 238 980 q 210 1049 210 1024 q 212 1076 210 1062 q 257 1141 220 1118 q 318 1160 285 1160 q 335 1159 326 1160 m 258 1062 q 298 1096 268 1063 q 305 1103 304 1103 q 304 1109 304 1103 q 290 1112 297 1112 q 265 1100 277 1112 q 254 1077 254 1089 q 258 1062 254 1069 m 596 1159 q 652 1103 642 1152 q 654 1080 654 1091 q 639 1019 654 1049 q 592 977 624 990 q 555 970 574 970 q 531 972 543 970 q 483 1005 499 980 q 471 1049 471 1024 q 473 1076 471 1062 q 518 1141 481 1118 q 579 1160 546 1160 q 596 1159 587 1160 m 518 1085 q 568 1103 528 1083 q 577 1107 576 1107 q 578 1113 576 1107 q 566 1120 572 1118 q 538 1118 553 1125 q 520 1100 524 1112 q 518 1085 517 1093 z "},"÷":{"ha":665,"x_min":34,"x_max":631,"o":"m 422 728 q 424 713 424 721 q 388 657 424 678 q 324 640 359 640 q 304 642 315 640 q 250 672 272 646 q 224 728 228 696 q 224 738 224 733 q 239 784 224 764 q 302 817 260 810 q 318 818 311 818 q 380 796 352 818 q 422 728 414 770 m 357 330 q 413 275 404 323 q 415 251 415 262 q 400 191 415 220 q 353 149 385 161 q 316 141 335 141 q 292 144 304 141 q 244 176 260 151 q 232 220 232 195 q 235 247 232 233 q 279 313 243 289 q 340 332 307 332 q 357 330 349 332 m 270 739 q 277 738 274 738 q 294 744 286 738 q 307 764 306 753 q 290 771 298 771 q 278 767 284 771 q 268 749 268 760 q 270 739 268 745 m 280 233 q 320 267 290 235 q 328 275 327 275 q 326 280 327 275 q 313 283 319 283 q 288 271 299 283 q 277 248 277 260 q 280 233 277 241 m 133 415 q 37 465 51 431 q 34 480 34 472 q 123 557 37 523 q 370 569 279 572 q 564 548 532 566 q 627 494 615 522 q 630 481 629 488 q 581 435 631 452 q 557 427 570 431 q 319 407 501 413 q 133 415 201 401 z "},"ø":{"ha":863,"x_min":47,"x_max":816,"o":"m 524 212 q 559 329 559 262 q 534 275 557 328 q 467 191 511 223 q 423 156 425 161 q 524 212 486 156 m 119 637 q 141 705 132 683 q 286 852 180 798 q 348 873 302 860 q 399 892 390 886 q 181 808 263 892 q 99 587 99 724 q 119 637 109 601 m 362 218 q 408 204 385 204 q 422 205 415 204 q 491 266 466 213 q 514 359 514 314 q 505 415 514 388 q 494 439 500 428 q 433 336 465 390 q 362 218 395 272 m 320 258 q 412 410 362 328 q 458 485 436 449 q 416 498 439 498 q 315 427 357 498 q 289 342 289 382 q 320 258 289 298 m 718 815 q 770 722 749 774 q 816 505 812 623 l 816 489 q 781 282 816 380 q 666 102 742 171 q 440 14 573 18 l 427 14 q 265 58 333 14 q 194 -54 212 -28 q 155 -86 172 -80 q 149 -85 151 -87 q 147 -37 137 -76 q 222 94 176 16 q 217 100 220 97 q 54 447 81 248 q 47 532 47 490 q 140 814 47 691 q 384 939 216 916 q 454 943 420 943 q 649 886 572 943 q 685 854 668 871 q 734 928 727 920 q 772 955 758 950 q 778 955 775 956 q 777 922 787 950 q 766 901 772 912 q 718 815 758 884 z "},"ù":{"ha":798,"x_min":44,"x_max":753,"o":"m 643 155 q 525 55 606 86 q 404 34 470 34 q 360 36 382 34 q 200 83 273 44 q 95 180 125 122 q 45 505 53 262 q 44 579 44 544 q 77 832 44 762 q 195 930 112 910 q 229 934 214 934 q 319 869 291 934 q 334 817 328 849 q 340 707 340 779 q 336 583 340 654 q 334 496 334 535 q 345 355 334 404 q 391 307 356 307 l 395 307 q 452 357 431 309 q 495 582 482 425 q 534 823 509 751 q 637 920 566 920 q 694 896 668 920 q 737 825 723 870 q 753 694 753 774 q 734 486 753 608 q 643 155 700 263 m 553 681 q 566 730 557 690 q 581 787 576 774 q 615 844 593 823 q 627 866 627 856 q 627 871 627 869 q 618 872 622 872 q 566 796 585 872 q 551 704 551 743 q 553 681 551 692 m 99 718 q 111 756 101 721 q 136 817 119 792 q 178 857 150 838 q 211 882 206 874 q 193 886 202 886 q 149 867 172 886 q 102 781 111 837 q 100 746 102 777 l 99 718 m 404 261 q 509 351 473 261 q 535 503 535 418 l 517 431 q 427 286 487 325 q 405 272 406 272 l 404 261 m 529 1013 q 498 960 524 977 q 469 951 485 951 q 437 958 454 951 q 360 1030 418 966 q 296 1115 302 1095 q 290 1144 290 1131 q 313 1191 290 1172 q 343 1203 327 1203 q 392 1179 366 1203 q 475 1097 424 1156 q 529 1015 529 1034 l 529 1013 z "},"ú":{"ha":798,"x_min":44,"x_max":753,"o":"m 643 155 q 525 55 606 86 q 404 34 470 34 q 360 36 382 34 q 200 83 273 44 q 95 180 125 122 q 45 505 53 262 q 44 579 44 544 q 77 832 44 762 q 195 930 112 910 q 229 934 214 934 q 319 869 291 934 q 334 817 328 849 q 340 707 340 779 q 336 583 340 654 q 334 496 334 535 q 345 355 334 404 q 391 307 356 307 l 395 307 q 452 357 431 309 q 495 582 482 425 q 534 823 509 751 q 637 920 566 920 q 694 896 668 920 q 737 825 723 870 q 753 694 753 774 q 734 486 753 608 q 643 155 700 263 m 553 681 q 566 730 557 690 q 581 787 576 774 q 615 844 593 823 q 627 866 627 856 q 627 871 627 869 q 618 872 622 872 q 566 796 585 872 q 551 704 551 743 q 553 681 551 692 m 99 718 q 111 756 101 721 q 136 817 119 792 q 178 857 150 838 q 211 882 206 874 q 193 886 202 886 q 149 867 172 886 q 102 781 111 837 q 100 746 102 777 l 99 718 m 404 261 q 509 351 473 261 q 535 503 535 418 l 517 431 q 427 286 487 325 q 405 272 406 272 l 404 261 m 302 1015 l 302 1018 q 356 1099 302 1037 q 439 1181 408 1158 q 488 1205 465 1205 q 518 1193 504 1205 q 541 1145 541 1173 q 536 1117 541 1132 q 471 1032 529 1097 q 393 960 412 968 q 363 953 377 953 q 332 962 347 953 q 302 1015 307 979 m 351 1023 q 441 1109 353 1023 q 466 1145 463 1132 q 387 1078 437 1143 q 380 1069 383 1074 q 373 1063 375 1065 q 351 1023 353 1039 z "},"û":{"ha":798,"x_min":44,"x_max":753,"o":"m 643 155 q 525 55 606 86 q 404 34 470 34 q 360 36 382 34 q 200 83 273 44 q 95 180 125 122 q 45 505 53 262 q 44 579 44 544 q 77 832 44 762 q 195 930 112 910 q 229 934 214 934 q 319 869 291 934 q 334 817 328 849 q 340 707 340 779 q 336 583 340 654 q 334 496 334 535 q 345 355 334 404 q 391 307 356 307 l 395 307 q 452 357 431 309 q 495 582 482 425 q 534 823 509 751 q 637 920 566 920 q 694 896 668 920 q 737 825 723 870 q 753 694 753 774 q 734 486 753 608 q 643 155 700 263 m 553 681 q 566 730 557 690 q 581 787 576 774 q 615 844 593 823 q 627 866 627 856 q 627 871 627 869 q 618 872 622 872 q 566 796 585 872 q 551 704 551 743 q 553 681 551 692 m 99 718 q 111 756 101 721 q 136 817 119 792 q 178 857 150 838 q 211 882 206 874 q 193 886 202 886 q 149 867 172 886 q 102 781 111 837 q 100 746 102 777 l 99 718 m 404 261 q 509 351 473 261 q 535 503 535 418 l 517 431 q 427 286 487 325 q 405 272 406 272 l 404 261 m 532 1145 q 637 975 631 1023 q 637 970 637 972 q 610 941 637 945 q 602 941 606 941 q 538 964 573 941 q 492 1009 524 975 q 436 1061 460 1043 q 315 972 368 1015 q 256 949 279 949 q 230 964 239 949 q 224 985 224 973 q 256 1050 224 1012 q 342 1147 261 1056 q 437 1208 397 1207 l 439 1208 q 532 1145 481 1208 m 275 1010 q 334 1063 292 1021 q 406 1130 385 1113 q 422 1149 421 1143 q 414 1151 419 1151 q 341 1091 389 1151 q 275 1010 277 1010 z "},"ü":{"ha":798,"x_min":44,"x_max":753,"o":"m 643 155 q 525 55 606 86 q 404 34 470 34 q 360 36 382 34 q 200 83 273 44 q 95 180 125 122 q 45 505 53 262 q 44 579 44 544 q 77 832 44 762 q 195 930 112 910 q 229 934 214 934 q 319 869 291 934 q 334 817 328 849 q 340 707 340 779 q 336 583 340 654 q 334 496 334 535 q 345 355 334 404 q 391 307 356 307 l 395 307 q 452 357 431 309 q 495 582 482 425 q 534 823 509 751 q 637 920 566 920 q 694 896 668 920 q 737 825 723 870 q 753 694 753 774 q 734 486 753 608 q 643 155 700 263 m 553 681 q 566 730 557 690 q 581 787 576 774 q 615 844 593 823 q 627 866 627 856 q 627 871 627 869 q 618 872 622 872 q 566 796 585 872 q 551 704 551 743 q 553 681 551 692 m 99 718 q 111 756 101 721 q 136 817 119 792 q 178 857 150 838 q 211 882 206 874 q 193 886 202 886 q 149 867 172 886 q 102 781 111 837 q 100 746 102 777 l 99 718 m 404 261 q 509 351 473 261 q 535 503 535 418 l 517 431 q 427 286 487 325 q 405 272 406 272 l 404 261 m 332 1159 q 388 1103 378 1152 q 390 1080 390 1091 q 375 1019 390 1049 q 328 977 360 990 q 291 970 310 970 q 267 972 279 970 q 219 1005 235 980 q 207 1049 207 1024 q 210 1076 207 1062 q 254 1141 218 1118 q 315 1160 282 1160 q 332 1159 323 1160 m 255 1062 q 295 1096 265 1063 q 302 1103 302 1103 q 301 1109 302 1103 q 288 1112 294 1112 q 262 1100 274 1112 q 252 1077 252 1089 q 255 1062 252 1069 m 593 1159 q 649 1103 640 1152 q 651 1080 651 1091 q 636 1019 651 1049 q 589 977 621 990 q 552 970 571 970 q 528 972 540 970 q 480 1005 496 980 q 468 1049 468 1024 q 471 1076 468 1062 q 515 1141 479 1118 q 576 1160 543 1160 q 593 1159 585 1160 m 515 1085 q 565 1103 526 1083 q 574 1107 574 1107 q 575 1113 574 1107 q 564 1120 570 1118 q 536 1118 551 1125 q 517 1100 522 1112 q 515 1085 515 1093 z "},"ý":{"ha":844,"x_min":27,"x_max":817,"o":"m 462 642 q 497 737 469 659 q 542 850 522 808 q 675 987 604 985 l 678 987 q 760 970 724 987 q 814 910 806 949 q 817 889 817 901 q 629 536 817 779 q 543 343 543 424 q 544 86 543 84 q 505 20 535 43 q 443 0 479 1 l 440 0 q 380 16 408 0 q 338 62 350 34 q 330 153 330 83 q 330 197 330 173 q 332 262 332 234 q 326 349 332 325 q 289 471 305 438 q 216 572 274 500 q 102 714 106 707 q 27 865 27 816 l 27 869 q 79 944 31 919 q 140 959 107 959 q 185 952 161 959 q 342 829 281 926 q 420 641 382 764 q 439 602 432 602 q 462 642 445 602 m 77 865 q 106 885 85 868 q 130 911 127 903 q 72 883 72 911 q 77 865 72 876 m 445 576 q 461 570 453 570 q 519 636 488 570 q 545 705 531 663 l 561 751 q 643 903 606 867 q 678 935 675 935 l 678 935 q 661 941 670 941 q 575 834 623 941 q 534 730 557 794 q 507 660 510 665 q 470 611 499 642 q 445 576 445 585 l 445 576 m 342 1000 l 342 1003 q 396 1084 342 1022 q 479 1166 448 1143 q 528 1190 505 1190 q 558 1178 544 1190 q 581 1131 581 1158 q 576 1102 581 1117 q 511 1017 569 1082 q 433 945 452 954 q 403 938 417 938 q 372 947 387 938 q 342 1000 347 964 m 391 1008 q 481 1095 393 1008 q 506 1131 503 1117 q 427 1063 477 1128 q 420 1055 423 1059 q 413 1048 415 1050 q 391 1008 393 1024 z "},"þ":{"ha":788,"x_min":95,"x_max":693,"o":"m 334 380 q 332 376 333 377 q 370 372 352 372 q 467 403 425 372 q 488 433 488 418 q 487 439 488 436 q 438 475 481 460 q 371 491 394 491 q 345 471 345 491 q 334 380 342 413 m 98 807 q 136 889 106 858 q 203 924 164 918 q 220 925 212 925 q 275 911 249 925 q 330 854 311 892 q 340 746 338 811 q 458 718 403 741 q 514 692 487 707 q 652 562 605 639 q 693 436 690 498 l 693 428 q 566 251 693 332 q 333 177 450 177 q 313 178 323 177 q 294 70 302 86 q 225 0 262 3 l 222 0 q 161 69 184 0 q 115 430 142 127 q 95 750 95 653 q 98 807 95 788 m 142 805 q 170 838 143 806 q 199 871 197 871 l 199 871 q 157 851 174 871 q 142 805 142 834 m 429 334 q 492 358 459 334 q 518 395 518 377 q 515 408 518 401 q 475 370 508 403 q 446 347 460 355 q 429 334 434 340 z "},"ÿ":{"ha":844,"x_min":27,"x_max":817,"o":"m 462 614 q 497 710 469 632 q 542 823 522 781 q 666 939 595 937 l 669 939 q 751 922 715 939 q 806 862 798 901 q 808 841 808 852 q 629 509 817 752 q 543 316 543 397 q 544 86 543 84 q 505 20 535 43 q 443 0 479 1 l 440 0 q 380 16 408 0 q 338 62 350 34 q 330 153 330 83 q 330 197 330 173 q 332 262 332 234 q 326 322 332 298 q 289 444 305 411 q 216 545 274 473 q 102 687 106 680 q 27 838 27 789 l 27 842 q 79 917 31 892 q 140 932 107 932 q 185 925 161 932 q 342 802 281 899 q 420 614 382 737 q 439 574 432 574 q 462 614 445 575 m 77 838 q 106 858 85 841 q 130 884 127 876 q 72 856 72 884 q 77 838 72 848 m 445 549 q 461 543 453 543 q 519 609 488 543 q 545 677 531 636 l 561 724 q 634 855 606 840 q 669 887 667 887 l 669 886 q 652 892 661 892 q 575 807 614 892 q 534 703 557 767 q 507 633 510 638 q 470 584 499 615 q 445 549 445 558 l 445 549 m 312 1145 q 368 1090 358 1139 q 370 1066 370 1078 q 355 1006 370 1036 q 308 964 340 977 q 271 956 290 956 q 247 959 258 956 q 199 991 215 966 q 186 1036 186 1010 q 189 1062 186 1048 q 234 1128 197 1104 q 295 1147 262 1147 q 312 1145 303 1147 m 235 1048 q 275 1082 245 1050 q 282 1090 281 1090 q 281 1095 281 1090 q 267 1098 274 1098 q 242 1086 254 1098 q 231 1063 231 1076 q 235 1048 231 1056 m 573 1145 q 629 1090 619 1139 q 631 1066 631 1078 q 616 1006 631 1036 q 569 964 601 977 q 532 956 551 956 q 508 959 519 956 q 460 991 476 966 q 448 1036 448 1010 q 450 1062 448 1048 q 495 1128 458 1104 q 556 1147 523 1147 q 573 1145 564 1147 m 495 1072 q 545 1089 505 1069 q 554 1094 553 1094 q 555 1099 553 1094 q 543 1107 549 1104 q 515 1105 530 1112 q 497 1086 501 1098 q 495 1072 494 1080 z "},"ı":{"ha":633,"x_min":54,"x_max":595,"o":"m 193 583 q 154 591 178 588 q 117 597 124 595 q 67 641 77 606 q 54 730 54 684 l 54 738 q 71 842 55 800 q 252 926 97 913 q 371 929 286 929 q 523 901 466 929 q 593 774 581 872 q 595 730 595 751 q 559 627 595 673 q 508 589 537 598 q 459 583 497 586 q 420 568 433 581 q 395 507 402 551 q 392 422 392 483 q 393 403 392 411 q 411 289 395 301 q 471 280 418 283 q 506 274 493 276 q 543 208 543 259 l 543 205 q 519 50 550 75 q 279 28 488 31 q 251 27 264 27 q 135 43 161 27 q 104 100 111 58 q 102 207 102 195 q 111 249 102 231 q 166 271 121 270 q 226 283 215 272 q 237 384 237 309 q 236 414 237 412 q 193 583 230 568 m 107 777 q 125 810 111 781 q 155 842 136 831 q 201 861 169 850 q 237 875 232 871 q 136 857 169 875 q 105 821 115 846 q 100 799 100 809 q 107 777 100 787 m 144 222 q 144 216 144 219 q 165 201 144 201 l 168 201 q 210 212 191 203 q 265 264 249 231 q 275 307 275 284 q 267 348 275 326 q 267 332 267 347 q 262 301 266 315 q 208 239 252 256 q 168 235 199 235 q 144 222 146 235 z "},"ˆ":{"ha":603,"x_min":95,"x_max":508,"o":"m 403 895 q 507 724 502 772 q 508 719 508 722 q 480 690 508 694 q 472 690 476 690 q 408 713 444 690 q 362 758 395 724 q 307 810 330 792 q 186 721 239 764 q 127 699 149 699 q 100 713 109 699 q 95 734 95 722 q 127 800 95 761 q 213 896 132 805 q 307 957 267 956 l 309 957 q 403 895 352 957 m 145 760 q 205 812 162 770 q 276 879 256 862 q 293 899 292 892 q 285 900 290 900 q 212 840 259 900 q 145 760 147 760 z "},"ˇ":{"ha":603,"x_min":95,"x_max":508,"o":"m 403 753 q 309 690 352 690 l 307 690 q 213 751 267 690 q 127 847 132 842 q 95 913 95 886 q 100 934 95 924 q 127 948 109 948 q 186 926 149 948 q 307 836 239 884 q 362 889 330 855 q 408 934 395 922 q 472 957 444 957 q 480 956 476 957 q 508 928 508 953 q 507 923 508 926 q 403 753 502 875 z "},"ˉ":{"ha":564,"x_min":95,"x_max":469,"o":"m 118 748 q 95 806 95 777 q 96 817 95 812 q 143 873 102 854 q 279 884 167 884 q 416 872 391 883 q 469 800 469 849 l 469 796 q 396 734 468 742 q 277 726 351 726 q 243 727 261 726 q 118 748 132 728 z "},"˘":{"ha":510,"x_min":61,"x_max":449,"o":"m 62 841 l 62 848 q 75 878 62 871 q 85 880 79 880 q 119 866 99 880 q 243 802 165 804 l 248 802 q 392 866 326 802 q 425 880 411 880 q 435 878 431 880 q 449 846 449 871 l 449 841 q 379 732 443 773 q 243 695 321 696 l 241 695 q 114 731 165 695 q 61 831 61 768 q 62 841 61 836 z "},"˙":{"ha":319,"x_min":68,"x_max":251,"o":"m 193 928 q 249 873 239 922 q 251 849 251 861 q 236 789 251 819 q 189 747 221 760 q 152 739 171 739 q 128 742 140 739 q 80 774 96 749 q 68 819 68 793 q 71 845 68 831 q 115 911 79 887 q 176 930 143 930 q 193 928 184 930 m 116 831 q 156 865 126 833 q 163 873 163 873 q 162 878 163 873 q 149 881 155 881 q 123 869 135 881 q 113 846 113 859 q 116 831 113 839 z "},"˚":{"ha":410,"x_min":95,"x_max":315,"o":"m 124 918 q 195 954 153 954 q 222 951 208 954 q 307 873 283 937 q 315 819 315 848 q 313 789 315 805 q 280 717 306 740 q 197 682 241 682 l 190 682 q 110 735 139 685 q 95 805 95 762 q 96 828 95 816 q 124 918 101 888 m 182 794 q 203 781 193 781 q 222 790 212 781 q 233 814 233 801 l 233 817 q 225 839 233 829 q 200 852 214 852 q 195 852 197 852 q 174 829 176 848 q 173 821 173 825 q 182 794 173 808 z "},"˛":{"ha":395,"x_min":96,"x_max":314,"o":"m 314 -205 q 216 -237 279 -237 q 132 -207 165 -237 q 96 -121 96 -174 q 131 -20 96 -78 q 178 39 151 14 l 304 39 q 235 -38 252 -11 q 212 -92 212 -71 q 216 -108 212 -101 q 245 -124 226 -124 q 256 -123 251 -124 q 314 -95 274 -120 l 314 -205 z "},"˜":{"ha":652,"x_min":95,"x_max":557,"o":"m 191 919 q 235 927 214 927 q 260 924 248 927 q 316 883 297 916 q 395 842 339 842 q 461 880 428 842 q 517 913 490 913 l 522 913 q 555 882 549 910 q 557 866 557 874 q 545 819 557 844 q 390 725 503 730 q 359 724 372 724 q 316 728 327 724 q 259 781 286 737 q 229 801 248 801 l 224 801 q 184 777 203 798 q 148 753 172 762 q 123 747 134 747 q 115 749 119 747 q 95 777 97 753 l 95 781 q 106 828 95 802 q 191 919 136 898 z "},"˝":{"ha":694,"x_min":-24,"x_max":452,"o":"m -24 777 l -24 779 q 29 860 -24 798 q 112 943 81 919 q 161 966 138 966 q 191 954 177 966 q 214 907 214 935 q 209 878 214 893 q 144 793 202 858 q 66 722 85 730 q 36 714 50 714 q 5 724 20 714 q -24 777 -20 740 m 24 784 q 114 871 26 785 q 139 907 136 893 q 60 839 111 905 q 53 831 56 835 q 46 824 48 826 q 24 784 26 800 m 214 777 l 214 779 q 267 860 214 798 q 350 943 319 919 q 399 966 376 966 q 429 954 415 966 q 452 907 452 935 q 447 878 452 893 q 382 793 440 858 q 304 722 323 730 q 274 714 288 714 q 243 724 258 714 q 214 777 218 740 m 262 784 q 352 871 264 785 q 377 907 374 893 q 298 839 349 905 q 291 831 294 835 q 284 824 286 826 q 262 784 264 800 z "},"–":{"ha":812,"x_min":68,"x_max":744,"o":"m 68 467 l 744 467 l 744 312 l 68 312 l 68 467 z "},"—":{"ha":1083,"x_min":68,"x_max":1015,"o":"m 68 467 l 1015 467 l 1015 312 l 68 312 l 68 467 z "},"‘":{"ha":309,"x_min":68,"x_max":241,"o":"m 237 783 q 169 710 221 727 q 142 705 155 705 q 79 743 105 705 q 68 783 68 759 q 80 841 68 808 q 134 931 100 896 q 205 963 166 979 q 221 924 232 946 q 188 891 189 902 q 187 881 187 886 q 205 846 187 852 q 238 825 232 836 q 241 809 241 819 q 237 783 241 798 m 191 790 q 186 791 188 791 q 168 782 177 791 q 155 761 155 771 l 155 759 q 168 756 162 756 q 184 762 177 756 q 193 779 193 769 q 191 790 193 784 z "},"’":{"ha":309,"x_min":68,"x_max":241,"o":"m 72 889 q 140 962 88 945 q 168 967 155 967 q 230 930 204 967 q 241 890 241 913 q 229 831 241 865 q 176 741 209 777 q 104 709 143 694 q 88 749 77 726 q 121 781 121 770 q 122 791 122 787 q 104 826 122 820 q 71 847 77 836 q 68 863 68 853 q 72 889 68 874 m 119 882 q 123 882 121 882 q 142 890 132 882 q 154 911 154 901 l 154 913 q 142 916 147 916 q 125 910 132 916 q 117 893 117 903 q 119 882 117 888 z "},"‚":{"ha":309,"x_min":68,"x_max":241,"o":"m 72 53 q 140 126 88 109 q 168 131 155 131 q 230 94 204 131 q 241 54 241 77 q 229 -5 241 28 q 176 -95 209 -60 q 104 -127 143 -142 q 88 -87 77 -110 q 121 -55 121 -66 q 122 -45 122 -50 q 104 -10 122 -16 q 71 11 77 0 q 68 27 68 17 q 72 53 68 38 m 119 46 q 123 45 121 45 q 142 54 132 45 q 154 75 154 65 l 154 77 q 142 80 147 80 q 125 74 132 80 q 117 57 117 67 q 119 46 117 52 z "},"“":{"ha":552,"x_min":68,"x_max":484,"o":"m 237 783 q 169 710 221 727 q 142 705 155 705 q 79 743 105 705 q 68 783 68 759 q 80 841 68 808 q 134 931 100 896 q 205 963 166 979 q 221 924 232 946 q 188 891 189 902 q 187 881 187 886 q 205 846 187 852 q 238 825 232 836 q 241 809 241 819 q 237 783 241 798 m 191 790 q 186 791 188 791 q 168 782 177 791 q 155 761 155 771 l 155 759 q 168 756 162 756 q 184 762 177 756 q 193 779 193 769 q 191 790 193 784 m 480 783 q 412 710 464 727 q 385 705 397 705 q 322 743 348 705 q 311 783 311 759 q 323 841 311 808 q 376 931 343 896 q 448 963 409 979 q 464 924 475 946 q 431 891 431 902 q 430 881 430 886 q 448 846 430 852 q 481 825 475 836 q 484 809 484 819 q 480 783 484 798 m 433 790 q 429 791 431 791 q 410 782 420 791 q 398 761 398 771 l 398 759 q 410 756 405 756 q 427 762 420 756 q 435 779 435 769 q 433 790 435 784 z "},"”":{"ha":552,"x_min":68,"x_max":484,"o":"m 72 889 q 140 962 88 945 q 168 967 155 967 q 230 930 204 967 q 241 890 241 913 q 229 831 241 865 q 176 741 209 777 q 104 709 143 694 q 88 749 77 726 q 121 781 121 770 q 122 791 122 787 q 104 826 122 820 q 71 847 77 836 q 68 863 68 853 q 72 889 68 874 m 119 882 q 123 882 121 882 q 142 890 132 882 q 154 911 154 901 l 154 913 q 142 916 147 916 q 125 910 132 916 q 117 893 117 903 q 119 882 117 888 m 315 889 q 383 962 331 945 q 410 967 397 967 q 473 930 447 967 q 484 890 484 913 q 472 831 484 865 q 418 741 452 777 q 347 709 386 694 q 331 749 320 726 q 364 781 363 770 q 365 791 365 787 q 347 826 365 820 q 314 847 320 836 q 311 863 311 853 q 315 889 311 874 m 361 882 q 366 882 364 882 q 385 890 375 882 q 397 911 397 901 l 397 913 q 385 916 390 916 q 368 910 375 916 q 359 893 359 903 q 361 882 359 888 z "},"„":{"ha":552,"x_min":68,"x_max":484,"o":"m 72 53 q 140 126 88 109 q 168 131 155 131 q 230 94 204 131 q 241 54 241 77 q 229 -5 241 28 q 176 -95 209 -60 q 104 -127 143 -142 q 88 -87 77 -110 q 121 -55 121 -66 q 122 -45 122 -50 q 104 -10 122 -16 q 71 11 77 0 q 68 27 68 17 q 72 53 68 38 m 119 46 q 123 45 121 45 q 142 54 132 45 q 154 75 154 65 l 154 77 q 142 80 147 80 q 125 74 132 80 q 117 57 117 67 q 119 46 117 52 m 315 53 q 383 126 331 109 q 410 131 397 131 q 473 94 447 131 q 484 54 484 77 q 472 -5 484 28 q 418 -95 452 -60 q 347 -127 386 -142 q 331 -87 320 -110 q 364 -55 363 -66 q 365 -45 365 -50 q 347 -10 365 -16 q 314 11 320 0 q 311 27 311 17 q 315 53 311 38 m 361 46 q 366 45 364 45 q 385 54 375 45 q 397 75 397 65 l 397 77 q 385 80 390 80 q 368 74 375 80 q 359 57 359 67 q 361 46 359 52 z "},"†":{"ha":773,"x_min":7,"x_max":766,"o":"m 461 646 l 461 -189 l 312 -189 l 312 646 l 7 646 l 7 795 l 312 795 l 312 1100 l 461 1100 l 461 795 l 766 795 l 766 646 l 461 646 z "},"‡":{"ha":773,"x_min":7,"x_max":766,"o":"m 312 788 l 312 1100 l 461 1100 l 461 788 l 766 788 l 766 639 l 461 639 l 461 273 l 766 273 l 766 123 l 461 123 l 461 -189 l 312 -189 l 312 123 l 7 123 l 7 273 l 312 273 l 312 639 l 7 639 l 7 788 l 312 788 z "},"•":{"ha":541,"x_min":92,"x_max":450,"o":"m 271 703 q 397 651 345 703 q 450 524 450 598 q 397 398 450 450 q 271 345 345 345 q 144 398 197 345 q 92 524 92 450 q 144 651 92 598 q 271 703 197 703 z "},"…":{"ha":1389,"x_min":68,"x_max":1177,"o":"m 193 189 q 249 134 239 182 q 251 110 251 121 q 236 50 251 79 q 189 7 221 20 q 152 0 171 0 q 128 3 140 0 q 80 35 96 10 q 68 79 68 54 q 71 106 68 92 q 115 172 79 148 q 176 191 143 191 q 193 189 184 191 m 116 92 q 156 126 126 94 q 163 134 163 134 q 162 139 163 134 q 149 142 155 142 q 123 130 135 142 q 113 107 113 119 q 116 92 113 100 m 656 189 q 712 134 703 182 q 714 110 714 121 q 699 50 714 79 q 652 7 684 20 q 615 0 634 0 q 591 3 603 0 q 543 35 559 10 q 531 79 531 54 q 534 106 531 92 q 578 172 542 148 q 640 191 606 191 q 656 189 648 191 m 579 92 q 619 126 589 94 q 627 134 626 134 q 625 139 626 134 q 612 142 618 142 q 587 130 598 142 q 576 107 576 119 q 579 92 576 100 m 1120 189 q 1175 134 1166 182 q 1177 110 1177 121 q 1162 50 1177 79 q 1116 7 1147 20 q 1078 0 1097 0 q 1055 3 1066 0 q 1006 35 1023 10 q 994 79 994 54 q 997 106 994 92 q 1042 172 1005 148 q 1103 191 1069 191 q 1120 189 1111 191 m 1042 92 q 1082 126 1053 94 q 1090 134 1089 134 q 1088 139 1089 134 q 1075 142 1082 142 q 1050 130 1061 142 q 1039 107 1039 119 q 1042 92 1039 100 z "},"‹":{"ha":770,"x_min":95,"x_max":675,"o":"m 104 447 q 95 479 95 460 l 95 488 q 104 519 95 507 q 132 570 114 543 q 574 865 514 864 q 589 865 582 865 q 669 838 650 865 q 675 817 675 828 q 638 749 675 789 q 298 484 522 625 q 638 217 522 341 q 675 150 675 178 q 669 129 675 138 q 589 102 650 102 l 574 102 q 132 397 514 102 q 104 447 114 423 m 143 492 q 164 515 152 497 q 186 539 178 532 q 237 579 222 569 q 290 618 252 590 q 342 658 322 642 l 562 807 q 224 592 511 807 q 170 549 178 558 q 142 499 142 523 q 143 492 142 496 z "},"›":{"ha":770,"x_min":95,"x_max":675,"o":"m 665 520 q 675 488 675 507 l 675 479 q 665 448 675 460 q 637 397 656 424 q 195 102 256 103 q 181 102 188 102 q 101 130 119 102 q 95 151 95 139 q 132 218 95 178 q 472 484 248 342 q 132 750 248 626 q 95 817 95 789 q 101 838 95 829 q 181 865 119 865 l 195 865 q 637 570 256 865 q 665 520 656 544 m 627 475 q 606 452 618 470 q 584 428 592 435 q 533 388 547 398 q 480 349 518 377 q 427 309 448 325 l 208 160 q 546 375 258 160 q 600 418 591 409 q 627 468 627 444 q 627 475 627 471 z "}}}
